<svg width="22" height="24" viewBox="0 0 22 24" fill="none" xmlns="http://www.w3.org/2000/svg">
<path d="M8.25915 21.2497C8.08499 21.2497 7.91082 21.1797 7.77332 21.0297L3.18082 16.0197C2.91499 15.7297 2.91499 15.2497 3.18082 14.9597C3.44665 14.6697 3.88665 14.6697 4.15249 14.9597L8.74499 19.9697C9.01082 20.2597 9.01082 20.7397 8.74499 21.0297C8.60749 21.1697 8.43332 21.2497 8.25915 21.2497Z" fill="#2C665C"/>
<path d="M8.25879 21.25C7.88296 21.25 7.57129 20.91 7.57129 20.5V3.5C7.57129 3.09 7.88296 2.75 8.25879 2.75C8.63462 2.75 8.94629 3.09 8.94629 3.5V20.5C8.94629 20.91 8.63462 21.25 8.25879 21.25Z" fill="#2C665C"/>
<path d="M18.3422 9.26043C18.168 9.26043 17.9938 9.19043 17.8563 9.04043L13.2638 4.03043C12.998 3.74043 12.998 3.26043 13.2638 2.97043C13.5297 2.68043 13.9697 2.68043 14.2355 2.97043L18.828 7.98043C19.0938 8.27043 19.0938 8.75043 18.828 9.04043C18.6905 9.19043 18.5163 9.26043 18.3422 9.26043Z" fill="#2C665C"/>
<path d="M13.7412 21.25C13.3654 21.25 13.0537 20.91 13.0537 20.5V3.5C13.0537 3.09 13.3654 2.75 13.7412 2.75C14.117 2.75 14.4287 3.09 14.4287 3.5V20.5C14.4287 20.91 14.1262 21.25 13.7412 21.25Z" fill="#2C665C"/>
</svg>
