<svg width="40" height="40" viewBox="0 0 40 40" fill="none" xmlns="http://www.w3.org/2000/svg">
<rect x="0.5" y="0.5" width="39" height="39" rx="19.5" stroke="#E9F4F2"/>
<path d="M22.025 14.3171C22.1834 14.3171 22.3417 14.3754 22.4667 14.5004L27.525 19.5587C27.7667 19.8004 27.7667 20.2004 27.525 20.4421L22.4667 25.5004C22.225 25.7421 21.825 25.7421 21.5834 25.5004C21.3417 25.2587 21.3417 24.8587 21.5834 24.6171L26.2 20.0004L21.5834 15.3837C21.3417 15.1421 21.3417 14.7421 21.5834 14.5004C21.7 14.3754 21.8667 14.3171 22.025 14.3171Z" fill="#2C665C"/>
<path d="M12.9166 19.375L26.9417 19.375C27.2833 19.375 27.5667 19.6583 27.5667 20C27.5667 20.3417 27.2833 20.625 26.9417 20.625L12.9166 20.625C12.575 20.625 12.2916 20.3417 12.2916 20C12.2916 19.6583 12.575 19.375 12.9166 19.375Z" fill="#2C665C"/>
</svg>
