<svg width="24" height="24" viewBox="0 0 24 24" fill="none" xmlns="http://www.w3.org/2000/svg">
<path d="M15 22.75H9C3.57 22.75 1.25 20.43 1.25 15V9C1.25 3.57 3.57 1.25 9 1.25H15C20.43 1.25 22.75 3.57 22.75 9V15C22.75 20.43 20.43 22.75 15 22.75ZM9 2.75C4.39 2.75 2.75 4.39 2.75 9V15C2.75 19.61 4.39 21.25 9 21.25H15C19.61 21.25 21.25 19.61 21.25 15V9C21.25 4.39 19.61 2.75 15 2.75H9Z" fill="#2C665C"/>
<path d="M12.0011 18.9501C11.7611 18.9501 11.5211 18.8901 11.3211 18.7801C10.1611 18.1501 8.11111 17.4701 6.82111 17.3001L6.6311 17.2701C5.6511 17.1501 4.87109 16.2701 4.87109 15.2601V7.56009C4.87109 6.99009 5.11112 6.44009 5.52112 6.06009C5.94112 5.68009 6.4811 5.4901 7.0611 5.5401C8.5211 5.6601 10.6411 6.3601 11.8911 7.1401L11.9911 7.2001L12.0311 7.1701C13.2911 6.3801 15.4111 5.6701 16.8811 5.5401C16.9011 5.5401 16.9611 5.5401 16.9811 5.5401C17.5011 5.4901 18.0611 5.69009 18.4711 6.06009C18.8911 6.44009 19.1211 6.97008 19.1211 7.55008V15.2401C19.1211 16.2401 18.3411 17.1201 17.3511 17.2501L17.1411 17.2801C15.8611 17.4501 13.8011 18.1301 12.6611 18.7601C12.4711 18.9001 12.2411 18.9501 12.0011 18.9501ZM6.89111 7.05008C6.75111 7.05008 6.63108 7.10008 6.54108 7.18008C6.43108 7.28008 6.3811 7.4201 6.3811 7.5701V15.2701C6.3811 15.5101 6.60112 15.7601 6.83112 15.7901L7.02112 15.8201C8.48112 16.0201 10.7211 16.7501 12.0211 17.4601C13.2311 16.7601 15.4811 16.0101 16.9511 15.8201L17.1711 15.7901C17.4011 15.7601 17.6211 15.5101 17.6211 15.2701V7.58007C17.6211 7.42007 17.5611 7.29009 17.4611 7.19009C17.3511 7.09009 17.2111 7.05009 17.0511 7.06009C17.0311 7.06009 16.9711 7.06009 16.9511 7.06009C15.7911 7.16009 13.8811 7.80008 12.8411 8.46008L12.7411 8.52008C12.3011 8.79008 11.6811 8.79009 11.2611 8.53009L11.1111 8.44009C10.0611 7.78009 8.1511 7.15008 6.9411 7.05008C6.9211 7.05008 6.91111 7.05008 6.89111 7.05008Z" fill="#2C665C"/>
<path d="M12 18.4096C11.59 18.4096 11.25 18.0696 11.25 17.6596V8.09961C11.25 7.68961 11.59 7.34961 12 7.34961C12.41 7.34961 12.75 7.68961 12.75 8.09961V17.6596C12.75 18.0796 12.41 18.4096 12 18.4096Z" fill="#2C665C"/>
</svg>
