<svg width="32" height="32" viewBox="0 0 32 32" fill="none" xmlns="http://www.w3.org/2000/svg">
<path d="M16.0003 29.4397C15.6003 29.4397 15.2003 29.3464 14.867 29.1597C12.3737 27.7997 7.98699 26.3597 5.24033 25.9997L4.85366 25.9464C3.10699 25.733 1.66699 24.093 1.66699 22.3197V6.21302C1.66699 5.15968 2.08033 4.19968 2.84033 3.50635C3.60033 2.81302 4.58699 2.47968 5.62699 2.57302C8.56033 2.79968 12.987 4.26635 15.4937 5.83968L15.8137 6.02635C15.907 6.07968 16.107 6.07968 16.187 6.03969L16.4003 5.90635C18.907 4.33302 23.3337 2.83968 26.2803 2.58635C26.307 2.58635 26.4137 2.58635 26.4403 2.58635C27.4137 2.49302 28.4137 2.83968 29.1603 3.53302C29.9203 4.22635 30.3337 5.18635 30.3337 6.23968V22.333C30.3337 24.1197 28.8937 25.7464 27.1337 25.9597L26.6937 26.013C23.947 26.373 19.547 27.8264 17.107 29.173C16.787 29.3597 16.4003 29.4397 16.0003 29.4397ZM5.30699 4.55968C4.88033 4.55968 4.49366 4.70635 4.18699 4.98635C3.85366 5.29302 3.66699 5.73302 3.66699 6.21302V22.3197C3.66699 23.1064 4.34699 23.8664 5.10699 23.973L5.50699 24.0264C8.50699 24.4264 13.107 25.933 15.7737 27.3864C15.8937 27.4397 16.067 27.453 16.1337 27.4264C18.8003 25.9464 23.427 24.4264 26.4403 24.0264L26.8937 23.973C27.6537 23.8797 28.3337 23.1064 28.3337 22.3197V6.22635C28.3337 5.73302 28.147 5.30635 27.8137 4.98635C27.467 4.67968 27.027 4.53302 26.5337 4.55968C26.507 4.55968 26.4003 4.55968 26.3737 4.55968C23.827 4.78635 19.7203 6.15968 17.4803 7.55968L17.267 7.70635C16.5337 8.15969 15.4937 8.15968 14.787 7.71968L14.467 7.53302C12.187 6.13302 8.08033 4.77302 5.46699 4.55968C5.41366 4.55968 5.36033 4.55968 5.30699 4.55968Z" fill="#2C665C"/>
<path d="M16 28.3203C15.4533 28.3203 15 27.867 15 27.3203V7.32031C15 6.77365 15.4533 6.32031 16 6.32031C16.5467 6.32031 17 6.77365 17 7.32031V27.3203C17 27.8803 16.5467 28.3203 16 28.3203Z" fill="#2C665C"/>
<path d="M10.333 12.3203H7.33301C6.78634 12.3203 6.33301 11.867 6.33301 11.3203C6.33301 10.7736 6.78634 10.3203 7.33301 10.3203H10.333C10.8797 10.3203 11.333 10.7736 11.333 11.3203C11.333 11.867 10.8797 12.3203 10.333 12.3203Z" fill="#2C665C"/>
<path d="M11.333 16.3203H7.33301C6.78634 16.3203 6.33301 15.867 6.33301 15.3203C6.33301 14.7736 6.78634 14.3203 7.33301 14.3203H11.333C11.8797 14.3203 12.333 14.7736 12.333 15.3203C12.333 15.867 11.8797 16.3203 11.333 16.3203Z" fill="#2C665C"/>
</svg>
