<svg width="41" height="40" viewBox="0 0 41 40" fill="none" xmlns="http://www.w3.org/2000/svg">
<rect x="0.5" width="40" height="40" rx="20" fill="#C99D66"/>
<path d="M24.8667 28.9587H16.1334C13.8001 28.9587 12.3167 27.567 12.1834 25.242L11.7501 18.367C11.6834 17.3253 12.0417 16.3253 12.7584 15.567C13.4667 14.8087 14.4667 14.3753 15.5001 14.3753C15.7667 14.3753 16.0251 14.217 16.1501 13.967L16.7501 12.7753C17.2417 11.8003 18.4751 11.042 19.5501 11.042H21.4584C22.5334 11.042 23.7584 11.8003 24.2501 12.767L24.8501 13.9837C24.9751 14.217 25.2251 14.3753 25.5001 14.3753C26.5334 14.3753 27.5334 14.8087 28.2417 15.567C28.9584 16.3337 29.3167 17.3253 29.2501 18.367L28.8167 25.2503C28.6667 27.6087 27.2251 28.9587 24.8667 28.9587ZM19.5501 12.292C18.9334 12.292 18.1501 12.7753 17.8667 13.3337L17.2667 14.5337C16.9167 15.2087 16.2417 15.6253 15.5001 15.6253C14.8001 15.6253 14.1501 15.9087 13.6667 16.417C13.1917 16.9253 12.9501 17.592 13.0001 18.2837L13.4334 25.167C13.5334 26.8503 14.4417 27.7087 16.1334 27.7087H24.8667C26.5501 27.7087 27.4584 26.8503 27.5667 25.167L28.0001 18.2837C28.0417 17.592 27.8084 16.9253 27.3334 16.417C26.8501 15.9087 26.2001 15.6253 25.5001 15.6253C24.7584 15.6253 24.0834 15.2087 23.7334 14.5503L23.1251 13.3337C22.8501 12.7837 22.0667 12.3003 21.4501 12.3003H19.5501V12.292Z" fill="white"/>
<path d="M21.75 17.292H19.25C18.9083 17.292 18.625 17.0087 18.625 16.667C18.625 16.3253 18.9083 16.042 19.25 16.042H21.75C22.0917 16.042 22.375 16.3253 22.375 16.667C22.375 17.0087 22.0917 17.292 21.75 17.292Z" fill="white"/>
<path d="M20.4993 25.6247C18.6577 25.6247 17.166 24.133 17.166 22.2913C17.166 20.4497 18.6577 18.958 20.4993 18.958C22.341 18.958 23.8327 20.4497 23.8327 22.2913C23.8327 24.133 22.341 25.6247 20.4993 25.6247ZM20.4993 20.208C19.3493 20.208 18.416 21.1413 18.416 22.2913C18.416 23.4413 19.3493 24.3747 20.4993 24.3747C21.6493 24.3747 22.5827 23.4413 22.5827 22.2913C22.5827 21.1413 21.6493 20.208 20.4993 20.208Z" fill="white"/>
</svg>
