<svg width="24" height="24" viewBox="0 0 24 24" fill="none" xmlns="http://www.w3.org/2000/svg">
<path d="M12 1.25C17.93 1.25 22.75 6.07 22.75 12C22.75 17.93 17.93 22.75 12 22.75C6.07 22.75 1.25 17.93 1.25 12C1.25 6.07 6.07 1.25 12 1.25ZM12 21.25C17.1 21.25 21.25 17.1 21.25 12C21.25 6.9 17.1 2.75 12 2.75C6.9 2.75 2.75 6.9 2.75 12C2.75 17.1 6.9 21.25 12 21.25Z" fill="#2C665C"/>
<path d="M14.8296 8.41965C15.0196 8.41965 15.2096 8.48965 15.3596 8.63965C15.6496 8.92965 15.6496 9.40965 15.3596 9.69965L9.69965 15.3596C9.40965 15.6496 8.92965 15.6496 8.63965 15.3596C8.34965 15.0696 8.34965 14.5896 8.63965 14.2996L14.2996 8.63965C14.4396 8.48965 14.6396 8.41965 14.8296 8.41965Z" fill="#2C665C"/>
<path d="M9.16965 8.41965C9.35965 8.41965 9.54965 8.48965 9.69965 8.63965L15.3596 14.2996C15.6496 14.5896 15.6496 15.0696 15.3596 15.3596C15.0696 15.6496 14.5896 15.6496 14.2996 15.3596L8.63965 9.69965C8.34965 9.40965 8.34965 8.92965 8.63965 8.63965C8.78965 8.48965 8.97965 8.41965 9.16965 8.41965Z" fill="#2C665C"/>
</svg>
