<svg width="44" height="44" viewBox="0 0 44 44" fill="none" xmlns="http://www.w3.org/2000/svg">
<path d="M22 11.25C27.93 11.25 32.75 16.07 32.75 22C32.75 27.93 27.93 32.75 22 32.75C16.07 32.75 11.25 27.93 11.25 22C11.25 16.07 16.07 11.25 22 11.25ZM22 31.25C27.1 31.25 31.25 27.1 31.25 22C31.25 16.9 27.1 12.75 22 12.75C16.9 12.75 12.75 16.9 12.75 22C12.75 27.1 16.9 31.25 22 31.25Z" fill="white"/>
<path d="M24.8306 18.4196C25.0206 18.4196 25.2106 18.4896 25.3606 18.6396C25.6506 18.9296 25.6506 19.4096 25.3606 19.6996L19.7006 25.3596C19.4106 25.6496 18.9306 25.6496 18.6406 25.3596C18.3506 25.0696 18.3506 24.5896 18.6406 24.2996L24.3006 18.6396C24.4406 18.4896 24.6406 18.4196 24.8306 18.4196Z" fill="white"/>
<path d="M19.1706 18.4196C19.3606 18.4196 19.5506 18.4896 19.7006 18.6396L25.3606 24.2996C25.6506 24.5896 25.6506 25.0696 25.3606 25.3596C25.0706 25.6496 24.5906 25.6496 24.3006 25.3596L18.6406 19.6996C18.3506 19.4096 18.3506 18.9296 18.6406 18.6396C18.7906 18.4896 18.9806 18.4196 19.1706 18.4196Z" fill="white"/>
</svg>
