<svg width="19" height="18" viewBox="0 0 19 18" fill="none" xmlns="http://www.w3.org/2000/svg">
<path d="M9.33364 1.5C8.34873 1.5 7.37346 1.69399 6.46351 2.0709C5.55357 2.44781 4.72678 3.00026 4.03034 3.6967C2.62382 5.10322 1.83364 7.01088 1.83364 9C1.82708 10.7319 2.42673 12.4114 3.52864 13.7475L2.02864 15.2475C1.92457 15.353 1.85407 15.4869 1.82604 15.6324C1.79801 15.7779 1.81371 15.9284 1.87114 16.065C1.93343 16.1999 2.03442 16.3133 2.16127 16.3908C2.28813 16.4682 2.43514 16.5063 2.58364 16.5H9.33364C11.3228 16.5 13.2304 15.7098 14.6369 14.3033C16.0435 12.8968 16.8336 10.9891 16.8336 9C16.8336 7.01088 16.0435 5.10322 14.6369 3.6967C13.2304 2.29018 11.3228 1.5 9.33364 1.5ZM9.33364 15H4.39114L5.08864 14.3025C5.22833 14.162 5.30673 13.9719 5.30673 13.7738C5.30673 13.5756 5.22833 13.3855 5.08864 13.245C4.10658 12.264 3.49502 10.9729 3.35816 9.59159C3.2213 8.21029 3.5676 6.82425 4.33806 5.66964C5.10852 4.51503 6.25548 3.66327 7.58353 3.25948C8.91157 2.85569 10.3385 2.92485 11.6213 3.45519C12.9041 3.98552 13.9633 4.94421 14.6185 6.16792C15.2737 7.39163 15.4843 8.80466 15.2145 10.1663C14.9447 11.5279 14.2111 12.7538 13.1388 13.6352C12.0665 14.5166 10.7217 14.9989 9.33364 15Z" fill="#828282"/>
</svg>
