<svg width="25" height="24" viewBox="0 0 25 24" fill="none" xmlns="http://www.w3.org/2000/svg">
<path d="M6.28999 19.5196C5.67999 19.5196 5.10999 19.3096 4.69999 18.9196C4.17999 18.4296 3.92999 17.6896 4.01999 16.8896L4.38999 13.6496C4.45999 13.0396 4.82999 12.2296 5.25999 11.7896L13.47 3.09956C15.52 0.929561 17.66 0.869561 19.83 2.91956C22 4.96956 22.06 7.10956 20.01 9.27956L11.8 17.9696C11.38 18.4196 10.6 18.8396 9.98999 18.9396L6.76999 19.4896C6.59999 19.4996 6.44999 19.5196 6.28999 19.5196ZM16.68 2.90956C15.91 2.90956 15.24 3.38956 14.56 4.10956L6.34999 12.8096C6.14999 13.0196 5.91999 13.5196 5.87999 13.8096L5.50999 17.0496C5.46999 17.3796 5.54999 17.6496 5.72999 17.8196C5.90999 17.9896 6.17999 18.0496 6.50999 17.9996L9.72999 17.4496C10.02 17.3996 10.5 17.1396 10.7 16.9296L18.91 8.23956C20.15 6.91956 20.6 5.69956 18.79 3.99956C17.99 3.22956 17.3 2.90956 16.68 2.90956Z" fill="#2C665C"/>
<path d="M18.0904 10.9508C18.0704 10.9508 18.0404 10.9508 18.0204 10.9508C14.9004 10.6408 12.3904 8.27083 11.9104 5.17083C11.8504 4.76083 12.1304 4.38083 12.5404 4.31083C12.9504 4.25083 13.3304 4.53083 13.4004 4.94083C13.7804 7.36083 15.7404 9.22083 18.1804 9.46083C18.5904 9.50083 18.8904 9.87083 18.8504 10.2808C18.8004 10.6608 18.4704 10.9508 18.0904 10.9508Z" fill="#2C665C"/>
<path d="M21.75 22.75H3.75C3.34 22.75 3 22.41 3 22C3 21.59 3.34 21.25 3.75 21.25H21.75C22.16 21.25 22.5 21.59 22.5 22C22.5 22.41 22.16 22.75 21.75 22.75Z" fill="#2C665C"/>
</svg>
