<svg width="25" height="24" viewBox="0 0 25 24" fill="none" xmlns="http://www.w3.org/2000/svg">
<path d="M20.02 11.25H15.98C13.97 11.25 13 10.27 13 8.27V4.23C13 2.22 13.98 1.25 15.98 1.25H20.02C22.03 1.25 23 2.23 23 4.23V8.27C23 10.27 22.02 11.25 20.02 11.25ZM15.98 2.75C14.8 2.75 14.5 3.05 14.5 4.23V8.27C14.5 9.45 14.8 9.75 15.98 9.75H20.02C21.2 9.75 21.5 9.45 21.5 8.27V4.23C21.5 3.05 21.2 2.75 20.02 2.75H15.98Z" fill="#2C665C"/>
<path d="M8.52 11.25H4.48C2.47 11.25 1.5 10.36 1.5 8.52V3.98C1.5 2.14 2.48 1.25 4.48 1.25H8.52C10.53 1.25 11.5 2.14 11.5 3.98V8.51C11.5 10.36 10.52 11.25 8.52 11.25ZM4.48 2.75C3.14 2.75 3 3.13 3 3.98V8.51C3 9.37 3.14 9.74 4.48 9.74H8.52C9.86 9.74 10 9.36 10 8.51V3.98C10 3.12 9.86 2.75 8.52 2.75H4.48Z" fill="#2C665C"/>
<path d="M8.52 22.75H4.48C2.47 22.75 1.5 21.77 1.5 19.77V15.73C1.5 13.72 2.48 12.75 4.48 12.75H8.52C10.53 12.75 11.5 13.73 11.5 15.73V19.77C11.5 21.77 10.52 22.75 8.52 22.75ZM4.48 14.25C3.3 14.25 3 14.55 3 15.73V19.77C3 20.95 3.3 21.25 4.48 21.25H8.52C9.7 21.25 10 20.95 10 19.77V15.73C10 14.55 9.7 14.25 8.52 14.25H4.48Z" fill="#2C665C"/>
<path d="M21.25 16.25H15.25C14.84 16.25 14.5 15.91 14.5 15.5C14.5 15.09 14.84 14.75 15.25 14.75H21.25C21.66 14.75 22 15.09 22 15.5C22 15.91 21.66 16.25 21.25 16.25Z" fill="#2C665C"/>
<path d="M21.25 20.25H15.25C14.84 20.25 14.5 19.91 14.5 19.5C14.5 19.09 14.84 18.75 15.25 18.75H21.25C21.66 18.75 22 19.09 22 19.5C22 19.91 21.66 20.25 21.25 20.25Z" fill="#2C665C"/>
</svg>
