<svg width="225" height="150" viewBox="0 0 225 150" fill="none" xmlns="http://www.w3.org/2000/svg">
<g clip-path="url(#clip0_2017_4888)">
<path d="M178.445 99.8892H163.671C160.05 99.8892 157.017 97.4255 157.017 94.3045C157.017 92.7439 157.8 91.3477 158.974 90.362C160.148 89.3765 161.812 88.7195 163.671 88.7195H165.823C167.682 88.7195 169.345 88.0622 170.52 87.0767C171.694 86.0912 172.476 84.695 172.476 83.1345C172.476 80.0955 169.541 77.5495 165.823 77.5495H120.698C119.519 77.5495 118.761 76.1002 118.761 74.9212C118.761 71.9645 115.924 69.5825 112.401 69.5825H95.6085C95.1837 69.5825 94.7764 69.4137 94.4761 69.1134C94.1757 68.813 94.007 68.4057 94.007 67.981C94.007 67.5562 94.1757 67.1489 94.4761 66.8485C94.7764 66.5482 95.1837 66.3795 95.6085 66.3795H159.953C162.79 66.3795 165.432 65.394 167.291 63.8332C169.15 62.2727 170.324 60.0552 170.324 57.6735C170.324 52.8277 165.627 48.9675 159.953 48.9675H126.72C121.505 48.9675 116.344 44.943 111.129 44.943H92.5752C89.8535 44.943 87.6472 42.7367 87.6472 40.015C87.6472 37.2935 89.8535 35.087 92.5752 35.087H134.122C136.079 35.087 137.938 34.43 139.21 33.3622C140.482 32.2947 141.265 30.8162 141.265 29.0915C141.265 25.8062 138.036 23.0957 134.122 23.0957H38.3347C36.378 23.0957 34.519 23.753 33.247 24.8207C31.975 25.8882 31.1922 27.3667 31.1922 29.0915C31.1922 32.3767 34.421 35.087 38.3347 35.087H40.7807C44.0095 35.087 46.7492 37.3047 46.7492 40.0972C46.7492 41.4935 46.0642 42.7255 44.988 43.6287C43.9117 44.5322 42.4442 45.1072 40.7807 45.1072H28.942C26.8872 45.1072 24.9305 45.8465 23.5605 46.9962C22.1907 48.1462 21.3102 49.7067 21.3102 51.5135C21.3102 55.0452 24.7347 57.8377 28.844 57.8377H40.8787C44.7922 57.8377 48.0212 60.548 48.0212 63.8332C48.0212 65.476 47.2385 66.9545 45.9665 68.022C44.6945 69.0897 42.9332 69.747 40.9765 69.747H30.2137C28.4527 69.747 26.8872 70.3217 25.713 71.3075C24.539 72.293 23.854 73.607 23.854 75.0855C23.854 78.0422 26.6915 80.424 30.2137 80.424H38.9217C43.9117 80.424 47.9232 83.7915 47.9232 87.9802C47.9232 90.0335 46.945 92.0047 45.2815 93.3187C43.6182 94.715 41.368 95.5365 38.9217 95.5365H26.7895C24.3432 95.5365 22.093 96.3577 20.5275 97.754C18.8642 99.068 17.8857 100.957 17.8857 103.01C17.8857 107.117 21.8972 110.484 26.7895 110.484H64.2522C68.3895 110.484 72.4537 112.784 76.591 112.784H83.414C86.022 112.784 88.1365 114.898 88.1365 117.507C88.1365 120.115 86.022 122.229 83.414 122.229H66.8067C64.6542 122.229 62.7952 122.968 61.4255 124.118C60.0557 125.268 59.1752 126.911 59.1752 128.635C59.1752 132.167 62.5997 135.042 66.8067 135.042H168.563C170.715 135.042 172.574 134.303 173.944 133.153C175.314 132.003 176.194 130.36 176.194 128.635C176.194 125.104 172.77 122.229 168.563 122.229H165.53C162.399 122.229 159.953 120.094 159.953 117.548C159.953 116.234 160.54 115.084 161.616 114.262C162.594 113.441 164.062 112.866 165.627 112.866H178.445C180.597 112.866 182.456 112.127 183.826 110.977C185.196 109.827 186.076 108.185 186.076 106.46C186.076 102.764 182.652 99.8892 178.445 99.8892Z" fill="url(#paint0_linear_2017_4888)"/>
<path d="M212.16 88.2913C209.253 89.7331 205.396 87.8791 205.396 87.8791C205.396 87.8791 206.253 83.6883 209.161 82.2486C212.068 80.8068 215.924 82.6588 215.924 82.6588C215.924 82.6588 215.066 86.8493 212.16 88.2913Z" fill="url(#paint1_linear_2017_4888)"/>
<path d="M15.2553 90.8368C19.4993 93.3806 25.5886 91.0291 25.5886 91.0291C25.5886 91.0291 24.7923 84.5543 20.5456 82.0136C16.3013 79.4698 10.2148 81.8183 10.2148 81.8183C10.2148 81.8183 11.0111 88.2931 15.2553 90.8368Z" fill="url(#paint2_linear_2017_4888)"/>
<path d="M208.453 47.5857C207.363 47.5857 206.48 48.4694 206.48 49.5595C206.48 50.6495 207.363 51.5332 208.453 51.5332C209.544 51.5332 210.427 50.6495 210.427 49.5595C210.427 48.4694 209.544 47.5857 208.453 47.5857Z" fill="#2C665C"/>
<path d="M167.067 114.392C165.016 114.392 163.354 116.054 163.354 118.104C163.354 120.154 165.016 121.816 167.067 121.816C169.117 121.816 170.779 120.154 170.779 118.104C170.779 116.054 169.117 114.392 167.067 114.392Z" fill="#2C665C"/>
<path d="M39.8511 131.694C38.2237 131.694 36.9044 130.375 36.9044 128.748C36.9044 127.12 38.2237 125.801 39.8511 125.801C41.4785 125.801 42.7979 127.12 42.7979 128.748C42.7979 130.375 41.4785 131.694 39.8511 131.694Z" fill="#2C665C"/>
<path d="M199.907 72.2468C198.817 72.2468 197.934 71.3634 197.934 70.2738C197.934 69.1841 198.817 68.3008 199.907 68.3008C200.997 68.3008 201.88 69.1841 201.88 70.2738C201.88 71.3634 200.997 72.2468 199.907 72.2468Z" fill="#2C665C"/>
<path d="M157.405 136.664C155.382 136.664 153.741 135.024 153.741 133C153.741 130.976 155.382 129.336 157.405 129.336C159.429 129.336 161.069 130.976 161.069 133C161.069 135.024 159.429 136.664 157.405 136.664Z" fill="#E1E4E5"/>
<path d="M201.906 129.484C200.366 129.484 199.117 128.235 199.117 126.695C199.117 125.155 200.366 123.906 201.906 123.906C203.446 123.906 204.695 125.155 204.695 126.695C204.695 128.235 203.446 129.484 201.906 129.484Z" fill="#E1E4E5"/>
<path d="M180.753 32.323C178.817 32.323 177.247 30.7536 177.247 28.8177C177.247 26.8819 178.817 25.3125 180.753 25.3125C182.688 25.3125 184.258 26.8819 184.258 28.8177C184.258 30.7536 182.688 32.323 180.753 32.323Z" fill="#E1E4E5"/>
<path d="M43.0715 61.2871C43.4694 62.7723 42.5881 64.2988 41.1029 64.6968C39.6177 65.0947 38.0912 64.2134 37.6932 62.7282C37.2953 61.243 38.1766 59.7165 39.6618 59.3185C41.147 58.9206 42.6735 59.8019 43.0715 61.2871Z" fill="#E1E4E5"/>
<path d="M72.0091 31.0012C69.9636 31.0012 68.3054 29.343 68.3054 27.2975C68.3054 25.252 69.9636 23.5938 72.0091 23.5938C74.0547 23.5938 75.7129 25.252 75.7129 27.2975C75.7129 29.343 74.0547 31.0012 72.0091 31.0012Z" fill="#E1E4E5"/>
<path d="M194.966 98.3866C193.392 98.3866 192.117 97.3662 192.117 96.1074C192.117 94.8486 193.392 93.8281 194.966 93.8281C196.539 93.8281 197.815 94.8486 197.815 96.1074C197.815 97.3662 196.539 98.3866 194.966 98.3866Z" fill="#E1E4E5"/>
<path d="M203.387 18.0955C204.215 21.1866 202.381 24.3638 199.289 25.192C196.198 26.0203 193.021 24.1859 192.193 21.0949C191.365 18.0038 193.199 14.8266 196.29 13.9984C199.381 13.1701 202.558 15.0045 203.387 18.0955Z" fill="#E1E4E5"/>
<path d="M25.0032 35.3223H25.0437C25.2839 38.7275 27.8164 38.7798 27.8164 38.7798C27.8164 38.7798 25.0239 38.8343 25.0239 42.769C25.0239 38.8343 22.2314 38.7798 22.2314 38.7798C22.2314 38.7798 24.7627 38.7275 25.0032 35.3223ZM76.2464 127.977H76.2854C76.5162 131.372 78.9474 131.424 78.9474 131.424C78.9474 131.424 76.2664 131.478 76.2664 135.401C76.2664 131.478 73.5852 131.424 73.5852 131.424C73.5852 131.424 76.0157 131.372 76.2464 127.977Z" fill="#E1E4E5"/>
<path d="M45.8716 13.584H90.9373C110.967 13.584 115.974 28.3547 115.974 28.3547V137.611C115.974 137.611 105.959 122.84 90.9373 122.84H45.8716V13.584Z" fill="#2C665C"/>
<path fill-rule="evenodd" clip-rule="evenodd" d="M142.874 13.6035V47.429L156.9 38.5703L170.926 47.429V13.604H186.076V122.86H141.011C125.989 122.86 115.974 137.631 115.974 137.631V28.3743C115.974 28.3743 120.981 13.6035 141.011 13.6035H142.874Z" fill="#2C665C"/>
<path d="M105.648 59.2296H58.9136M105.648 69.8266H58.9136M105.648 80.4233H58.9136M105.648 91.0201H58.9136M105.648 101.617H58.9136M58.9136 48.6328H105.648M174.392 59.2296H127.657M174.392 69.8266H127.657M174.392 80.4233H127.657M174.392 91.0201H127.657M174.392 101.617H127.657" stroke="white" stroke-width="3.375" stroke-linecap="round" stroke-linejoin="round"/>
</g>
<defs>
<linearGradient id="paint0_linear_2017_4888" x1="105.567" y1="197.805" x2="103.27" y2="-98.7048" gradientUnits="userSpaceOnUse">
<stop stop-color="white"/>
<stop offset="1" stop-color="#EEEEEE"/>
</linearGradient>
<linearGradient id="paint1_linear_2017_4888" x1="200.998" y1="92.7886" x2="224.972" y2="73.8258" gradientUnits="userSpaceOnUse">
<stop stop-color="white"/>
<stop offset="1" stop-color="#EEEEEE"/>
</linearGradient>
<linearGradient id="paint2_linear_2017_4888" x1="31.6791" y1="99.0251" x2="-2.47116" y2="67.2948" gradientUnits="userSpaceOnUse">
<stop stop-color="white"/>
<stop offset="1" stop-color="#EEEEEE"/>
</linearGradient>
<clipPath id="clip0_2017_4888">
<rect width="225" height="150" fill="white"/>
</clipPath>
</defs>
</svg>
