<svg width="22" height="22" viewBox="0 0 22 22" fill="none" xmlns="http://www.w3.org/2000/svg">
<path fill-rule="evenodd" clip-rule="evenodd" d="M16.4997 11.0003C17.1854 11.0002 17.8574 10.8077 18.4392 10.4448C19.0211 10.0818 19.4895 9.56303 19.7913 8.94726C20.0931 8.33148 20.2161 7.64341 20.1464 6.96121C20.0768 6.279 19.8172 5.63001 19.3972 5.08793C18.9772 4.54585 18.4136 4.13241 17.7704 3.89458C17.1272 3.65675 16.4302 3.60405 15.7586 3.74247C15.087 3.88089 14.4676 4.20489 13.9709 4.67766C13.4741 5.15042 13.1199 5.75302 12.9485 6.41699H2.74968C2.50656 6.41699 2.2734 6.51357 2.1015 6.68548C1.92959 6.85739 1.83301 7.09054 1.83301 7.33366C1.83301 7.57677 1.92959 7.80993 2.1015 7.98184C2.2734 8.15375 2.50656 8.25033 2.74968 8.25033H12.9485C13.3555 9.83158 14.791 11.0003 16.4997 11.0003ZM14.6663 7.33366C14.6663 7.81989 14.8595 8.2862 15.2033 8.63002C15.5471 8.97384 16.0134 9.16699 16.4997 9.16699C16.9859 9.16699 17.4522 8.97384 17.796 8.63002C18.1399 8.2862 18.333 7.81989 18.333 7.33366C18.333 6.84743 18.1399 6.38111 17.796 6.0373C17.4522 5.69348 16.9859 5.50033 16.4997 5.50033C16.0134 5.50033 15.5471 5.69348 15.2033 6.0373C14.8595 6.38111 14.6663 6.84743 14.6663 7.33366ZM1.83301 14.667C1.83213 13.7739 2.15722 12.9112 2.74727 12.2408C3.33732 11.5704 4.15176 11.1384 5.03772 11.0259C5.92368 10.9134 6.82025 11.1281 7.55914 11.6297C8.29804 12.1313 8.82846 12.8854 9.05084 13.7503H19.2497C19.4928 13.7503 19.726 13.8469 19.8979 14.0188C20.0698 14.1907 20.1663 14.4239 20.1663 14.667C20.1663 14.9101 20.0698 15.1433 19.8979 15.3152C19.726 15.4871 19.4928 15.5837 19.2497 15.5837H9.05084C8.82559 16.4458 8.29426 17.1964 7.55606 17.6955C6.81786 18.1945 5.92326 18.4078 5.03931 18.2956C4.15535 18.1833 3.34247 17.7531 2.75245 17.0854C2.16243 16.4177 1.83561 15.558 1.83301 14.667ZM7.33301 14.667C7.33301 14.1808 7.13986 13.7144 6.79604 13.3706C6.45222 13.0268 5.98591 12.8337 5.49968 12.8337C5.01345 12.8337 4.54713 13.0268 4.20331 13.3706C3.8595 13.7144 3.66634 14.1808 3.66634 14.667C3.66634 15.1532 3.8595 15.6195 4.20331 15.9634C4.54713 16.3072 5.01345 16.5003 5.49968 16.5003C5.98591 16.5003 6.45222 16.3072 6.79604 15.9634C7.13986 15.6195 7.33301 15.1532 7.33301 14.667Z" fill="#2C665C"/>
</svg>
