<svg width="20" height="20" viewBox="0 0 20 20" fill="none" xmlns="http://www.w3.org/2000/svg">
<path d="M2.55342 6.25866C3.24676 4.87803 4.31039 3.71742 5.62544 2.90655C6.94049 2.09568 8.45513 1.66651 10.0001 1.66699C12.2459 1.66699 14.1326 2.49283 15.5751 3.83783L13.1859 6.22783C12.3217 5.40199 11.2234 4.98116 10.0001 4.98116C7.82925 4.98116 5.99175 6.44783 5.33758 8.41699C5.17092 8.91699 5.07592 9.45033 5.07592 10.0003C5.07592 10.5503 5.17092 11.0837 5.33758 11.5837C5.99258 13.5537 7.82925 15.0195 10.0001 15.0195C11.1209 15.0195 12.0751 14.7237 12.8217 14.2237C13.2546 13.9387 13.6252 13.5688 13.9111 13.1366C14.197 12.7043 14.3922 12.2185 14.4851 11.7087H10.0001V8.48533H17.8484C17.9467 9.03033 18.0001 9.59866 18.0001 10.1895C18.0001 12.7278 17.0917 14.8645 15.5151 16.3145C14.1367 17.5878 12.2501 18.3337 10.0001 18.3337C8.90561 18.3341 7.82178 18.1188 6.81054 17.7002C5.79929 17.2816 4.88046 16.6678 4.10655 15.8939C3.33264 15.12 2.71883 14.2011 2.30019 13.1899C1.88156 12.1786 1.66631 11.0948 1.66675 10.0003C1.66675 8.65533 1.98842 7.38366 2.55342 6.25866Z" fill="#2C665C"/>
</svg>
