<svg width="18" height="18" viewBox="0 0 18 18" fill="none" xmlns="http://www.w3.org/2000/svg">
<path d="M14.3024 9.85585L10.0597 14.0993C9.77838 14.3806 9.39692 14.5385 8.99918 14.5385C8.60143 14.5385 8.21997 14.3806 7.93868 14.0993L3.69593 9.8566C3.3452 9.50893 3.0666 9.09542 2.87612 8.63979C2.68564 8.18417 2.58703 7.69541 2.58595 7.20157C2.58487 6.70773 2.68134 6.21854 2.86982 5.76209C3.0583 5.30564 3.33509 4.89091 3.68429 4.54171C4.03348 4.19251 4.44821 3.91573 4.90467 3.72724C5.36112 3.53876 5.85031 3.44229 6.34415 3.44337C6.83799 3.44445 7.32675 3.54306 7.78237 3.73354C8.238 3.92402 8.65151 4.20262 8.99918 4.55335C9.70535 3.86475 10.6544 3.4821 11.6407 3.48828C12.627 3.49446 13.5712 3.88897 14.2687 4.58636C14.9662 5.28376 15.3608 6.22787 15.3671 7.21418C15.3734 8.20049 14.9909 9.14958 14.3024 9.85585Z" stroke="#828282" stroke-width="1.5" stroke-linecap="round" stroke-linejoin="round"/>
</svg>
