<svg width="40" height="40" viewBox="0 0 40 40" fill="none" xmlns="http://www.w3.org/2000/svg">
<rect width="40" height="40" rx="20" fill="#E9F4F2"/>
<path d="M19.9993 11.667C22.2635 11.667 22.546 11.6753 23.4343 11.717C24.3218 11.7587 24.926 11.8978 25.4577 12.1045C26.0077 12.3162 26.471 12.6028 26.9343 13.0653C27.3581 13.4819 27.686 13.9858 27.8952 14.542C28.101 15.0728 28.241 15.6778 28.2827 16.5653C28.3218 17.4537 28.3327 17.7362 28.3327 20.0003C28.3327 22.2645 28.3243 22.547 28.2827 23.4353C28.241 24.3228 28.101 24.927 27.8952 25.4587C27.6866 26.0151 27.3586 26.5192 26.9343 26.9353C26.5177 27.3589 26.0138 27.6868 25.4577 27.8962C24.9268 28.102 24.3218 28.242 23.4343 28.2837C22.546 28.3228 22.2635 28.3337 19.9993 28.3337C17.7352 28.3337 17.4527 28.3253 16.5643 28.2837C15.6768 28.242 15.0727 28.102 14.541 27.8962C13.9846 27.6874 13.4806 27.3594 13.0643 26.9353C12.6405 26.5188 12.3126 26.0149 12.1035 25.4587C11.8968 24.9278 11.7577 24.3228 11.716 23.4353C11.6768 22.547 11.666 22.2645 11.666 20.0003C11.666 17.7362 11.6743 17.4537 11.716 16.5653C11.7577 15.677 11.8968 15.0737 12.1035 14.542C12.312 13.9855 12.64 13.4814 13.0643 13.0653C13.4807 12.6414 13.9847 12.3134 14.541 12.1045C15.0727 11.8978 15.676 11.7587 16.5643 11.717C17.4527 11.6778 17.7352 11.667 19.9993 11.667ZM19.9993 15.8337C18.8943 15.8337 17.8345 16.2726 17.0531 17.054C16.2717 17.8354 15.8327 18.8953 15.8327 20.0003C15.8327 21.1054 16.2717 22.1652 17.0531 22.9466C17.8345 23.728 18.8943 24.167 19.9993 24.167C21.1044 24.167 22.1642 23.728 22.9456 22.9466C23.727 22.1652 24.166 21.1054 24.166 20.0003C24.166 18.8953 23.727 17.8354 22.9456 17.054C22.1642 16.2726 21.1044 15.8337 19.9993 15.8337ZM25.416 15.6253C25.416 15.3491 25.3063 15.0841 25.1109 14.8888C24.9156 14.6934 24.6506 14.5837 24.3743 14.5837C24.0981 14.5837 23.8331 14.6934 23.6378 14.8888C23.4424 15.0841 23.3327 15.3491 23.3327 15.6253C23.3327 15.9016 23.4424 16.1665 23.6378 16.3619C23.8331 16.5572 24.0981 16.667 24.3743 16.667C24.6506 16.667 24.9156 16.5572 25.1109 16.3619C25.3063 16.1665 25.416 15.9016 25.416 15.6253ZM19.9993 17.5003C20.6624 17.5003 21.2983 17.7637 21.7671 18.2326C22.236 18.7014 22.4993 19.3373 22.4993 20.0003C22.4993 20.6634 22.236 21.2993 21.7671 21.7681C21.2983 22.2369 20.6624 22.5003 19.9993 22.5003C19.3363 22.5003 18.7004 22.2369 18.2316 21.7681C17.7627 21.2993 17.4993 20.6634 17.4993 20.0003C17.4993 19.3373 17.7627 18.7014 18.2316 18.2326C18.7004 17.7637 19.3363 17.5003 19.9993 17.5003Z" fill="#2C665C"/>
</svg>
