<svg width="101" height="100" viewBox="0 0 101 100" fill="none" xmlns="http://www.w3.org/2000/svg">
<path d="M54.4875 75.75C54.4852 75.7363 54.4863 75.7222 54.4905 75.709C54.4947 75.6958 54.5021 75.6838 54.5119 75.674C54.5217 75.6642 54.5337 75.6569 54.5469 75.6526C54.5601 75.6484 54.5742 75.6473 54.5879 75.6496H55.2314C55.2654 75.6461 55.2995 75.6541 55.3283 75.6723C55.3572 75.6905 55.3792 75.7179 55.3907 75.75L57.4064 80.2898H57.437L59.4004 75.75C59.4125 75.7183 59.4346 75.6914 59.4633 75.6733C59.492 75.6552 59.5258 75.6469 59.5597 75.6496H60.2141C60.2277 75.6478 60.2416 75.6492 60.2545 75.6536C60.2675 75.658 60.2793 75.6653 60.289 75.675C60.2987 75.6847 60.3061 75.6965 60.3105 75.7095C60.3149 75.7225 60.3163 75.7364 60.3145 75.75V82.2947C60.3163 82.3083 60.3149 82.3221 60.3105 82.3351C60.3061 82.3481 60.2987 82.3599 60.289 82.3696C60.2793 82.3793 60.2675 82.3866 60.2545 82.3911C60.2416 82.3955 60.2277 82.3968 60.2141 82.395H59.5815C59.5678 82.3973 59.5537 82.3963 59.5405 82.392C59.5273 82.3878 59.5153 82.3805 59.5055 82.3706C59.4957 82.3608 59.4884 82.3488 59.4841 82.3356C59.4799 82.3224 59.4789 82.3084 59.4811 82.2947V77.5934H59.4528L57.7817 81.3021C57.7694 81.3386 57.7454 81.3701 57.7135 81.3918C57.6816 81.4134 57.6435 81.4241 57.605 81.4221H57.2101C57.1697 81.4256 57.1293 81.4157 57.095 81.394C57.0607 81.3724 57.0345 81.3401 57.0203 81.3021L55.3492 77.5934H55.3209V82.2816C55.3227 82.2952 55.3213 82.309 55.3169 82.322C55.3125 82.335 55.3051 82.3468 55.2954 82.3565C55.2857 82.3662 55.2739 82.3736 55.2609 82.378C55.2479 82.3824 55.2341 82.3837 55.2205 82.3819H54.5879C54.5742 82.3842 54.5601 82.3832 54.5469 82.3789C54.5337 82.3747 54.5217 82.3674 54.5119 82.3576C54.5021 82.3477 54.4947 82.3357 54.4905 82.3225C54.4863 82.3093 54.4852 82.2953 54.4875 82.2816V75.75Z" fill="#939598"/>
<path d="M61.9666 75.7496C61.9648 75.736 61.9662 75.7222 61.9706 75.7092C61.975 75.6962 61.9823 75.6844 61.992 75.6747C62.0017 75.665 62.0135 75.6577 62.0265 75.6533C62.0395 75.6488 62.0533 75.6475 62.0669 75.6493H66.1312C66.1447 75.6474 66.1585 75.6487 66.1714 75.6531C66.1843 75.6575 66.1961 75.6649 66.2056 75.6747C66.2152 75.6845 66.2223 75.6963 66.2264 75.7093C66.2305 75.7223 66.2315 75.7361 66.2294 75.7496V76.3736C66.2312 76.3869 66.2299 76.4004 66.2256 76.4132C66.2213 76.4259 66.2141 76.4375 66.2046 76.447C66.1951 76.4565 66.1835 76.4636 66.1708 76.4679C66.1581 76.4722 66.1445 76.4735 66.1312 76.4717H62.9199C62.8785 76.4717 62.8589 76.4914 62.8589 76.5306V78.5137C62.8589 78.5529 62.8785 78.5726 62.9199 78.5726H65.6447C65.6582 78.5707 65.672 78.572 65.6849 78.5764C65.6979 78.5808 65.7096 78.5882 65.7191 78.598C65.7287 78.6077 65.7358 78.6196 65.7399 78.6326C65.7441 78.6456 65.7451 78.6595 65.7429 78.6729V79.2969C65.7451 79.3103 65.7441 79.3241 65.7399 79.3372C65.7358 79.3502 65.7287 79.362 65.7191 79.3718C65.7096 79.3816 65.6979 79.3889 65.6849 79.3934C65.672 79.3978 65.6582 79.3991 65.6447 79.3972H62.9199C62.8785 79.3972 62.8589 79.4168 62.8589 79.4561V81.5068C62.8573 81.5152 62.8578 81.5238 62.8603 81.5319C62.8628 81.54 62.8673 81.5474 62.8733 81.5534C62.8793 81.5594 62.8867 81.5639 62.8948 81.5664C62.903 81.5689 62.9116 81.5694 62.9199 81.5679H66.1312C66.1445 81.5661 66.1581 81.5674 66.1708 81.5717C66.1835 81.576 66.1951 81.5832 66.2046 81.5927C66.2141 81.6022 66.2213 81.6137 66.2256 81.6264C66.2299 81.6392 66.2312 81.6527 66.2294 81.666V82.29C66.2315 82.3035 66.2305 82.3173 66.2264 82.3303C66.2223 82.3433 66.2152 82.3552 66.2056 82.3649C66.1961 82.3747 66.1843 82.3821 66.1714 82.3865C66.1585 82.3909 66.1447 82.3922 66.1312 82.3903H62.0669C62.0533 82.3921 62.0395 82.3908 62.0265 82.3863C62.0135 82.3819 62.0017 82.3746 61.992 82.3649C61.9823 82.3552 61.975 82.3434 61.9706 82.3304C61.9662 82.3174 61.9648 82.3036 61.9666 82.29V75.7496Z" fill="#939598"/>
<path d="M69.5914 82.4879C69.3555 82.4877 69.1202 82.4643 68.8889 82.4181C68.6662 82.3747 68.4473 82.3134 68.2344 82.2349C68.0384 82.1626 67.8493 82.0728 67.6694 81.9665C67.5102 81.8737 67.3604 81.7656 67.2222 81.6437C67.2121 81.6341 67.2042 81.6226 67.1987 81.6098C67.1933 81.5971 67.1904 81.5834 67.1904 81.5695C67.1904 81.5556 67.1933 81.5419 67.1987 81.5291C67.2042 81.5164 67.2121 81.5049 67.2222 81.4953L67.6585 80.9805C67.6667 80.97 67.6771 80.9616 67.689 80.9558C67.7009 80.95 67.714 80.947 67.7272 80.947C67.7405 80.947 67.7535 80.95 67.7654 80.9558C67.7773 80.9616 67.7878 80.97 67.7959 80.9805C68.0476 81.1703 68.3207 81.3299 68.6096 81.456C68.9472 81.6037 69.3123 81.6781 69.6808 81.6742C70.0702 81.6965 70.4554 81.584 70.7716 81.3557C70.8971 81.2573 70.9978 81.1308 71.0656 80.9865C71.1334 80.8422 71.1664 80.6839 71.1621 80.5245C71.1648 80.3889 71.141 80.254 71.0923 80.1275C71.0434 80.0034 70.9638 79.8938 70.861 79.809C70.73 79.7057 70.5825 79.6253 70.4247 79.5712C70.2064 79.4964 69.9802 79.4466 69.7506 79.4228L69.4147 79.3748C68.0926 79.1959 67.4316 78.5742 67.4316 77.5096C67.4277 77.2316 67.4796 76.9556 67.5843 76.698C67.6815 76.4602 67.8306 76.247 68.0206 76.0741C68.2229 75.8953 68.4597 75.7602 68.7165 75.6771C69.0106 75.5799 69.3188 75.5327 69.6285 75.5374C70.0134 75.5361 70.3961 75.595 70.7629 75.712C71.0903 75.8119 71.3997 75.9636 71.6791 76.1614C71.6909 76.1682 71.701 76.1776 71.7086 76.1888C71.7162 76.2001 71.7211 76.2129 71.723 76.2264C71.7249 76.2399 71.7237 76.2536 71.7195 76.2665C71.7153 76.2794 71.7082 76.2912 71.6988 76.301L71.3628 76.8464C71.355 76.857 71.3453 76.866 71.334 76.8727C71.3227 76.8795 71.3102 76.8839 71.2971 76.8858C71.2841 76.8876 71.2709 76.8868 71.2582 76.8834C71.2455 76.88 71.2335 76.8741 71.2232 76.866C70.9721 76.7065 70.7025 76.5783 70.4204 76.4842C70.1544 76.4001 69.8769 76.3581 69.5979 76.3599C69.2537 76.3353 68.9132 76.4439 68.6467 76.6631C68.5388 76.7631 68.4536 76.8853 68.3972 77.0212C68.3407 77.1571 68.3142 77.3036 68.3195 77.4507C68.3156 77.5834 68.3421 77.7153 68.3969 77.8363C68.4517 77.9573 68.5334 78.0642 68.6358 78.1488C68.9581 78.3725 69.3352 78.5044 69.7266 78.5306L70.0538 78.5807C70.5984 78.6251 71.1169 78.8326 71.5417 79.1763C71.7114 79.343 71.8435 79.5441 71.9289 79.7662C72.0143 79.9882 72.0511 80.226 72.0369 80.4634C72.0408 80.7436 71.9889 81.0217 71.8842 81.2815C71.7823 81.5291 71.6221 81.7483 71.4173 81.9207C71.19 82.1103 70.9276 82.2534 70.6451 82.3418C70.3038 82.4459 69.9481 82.4953 69.5914 82.4879Z" fill="#939598"/>
<path d="M73.4128 75.75C73.4105 75.7363 73.4116 75.7222 73.4158 75.709C73.42 75.6958 73.4274 75.6838 73.4372 75.674C73.447 75.6642 73.459 75.6569 73.4722 75.6526C73.4854 75.6484 73.4994 75.6473 73.5131 75.6496H74.2047C74.2182 75.6477 74.232 75.649 74.2449 75.6535C74.2578 75.6579 74.2696 75.6653 74.2791 75.675C74.2887 75.6848 74.2958 75.6966 74.2999 75.7097C74.304 75.7227 74.305 75.7365 74.3029 75.75V78.514C74.3022 78.5221 74.3033 78.5303 74.3061 78.5379C74.309 78.5455 74.3135 78.5524 74.3193 78.5581C74.3252 78.5637 74.3322 78.568 74.34 78.5705C74.3477 78.5731 74.3559 78.5739 74.364 78.5729H77.2763C77.3178 78.5729 77.3374 78.5533 77.3374 78.514V75.75C77.3352 75.7363 77.3362 75.7222 77.3404 75.709C77.3447 75.6958 77.352 75.6838 77.3618 75.674C77.3716 75.6642 77.3836 75.6569 77.3968 75.6526C77.4101 75.6484 77.4241 75.6473 77.4378 75.6496H78.1293C78.143 75.6478 78.1568 75.6492 78.1698 75.6536C78.1828 75.658 78.1946 75.6653 78.2043 75.675C78.214 75.6847 78.2213 75.6965 78.2257 75.7095C78.2301 75.7225 78.2315 75.7364 78.2297 75.75V82.2947C78.2315 82.3083 78.2301 82.3221 78.2257 82.3351C78.2213 82.3481 78.214 82.3599 78.2043 82.3696C78.1946 82.3793 78.1828 82.3866 78.1698 82.3911C78.1568 82.3955 78.143 82.3968 78.1293 82.395H77.4378C77.4241 82.3973 77.4101 82.3963 77.3968 82.392C77.3836 82.3878 77.3716 82.3805 77.3618 82.3706C77.352 82.3608 77.3447 82.3488 77.3404 82.3356C77.3362 82.3224 77.3352 82.3084 77.3374 82.2947V79.4586C77.3374 79.4194 77.3178 79.3997 77.2763 79.3997H74.364C74.3559 79.3987 74.3477 79.3995 74.34 79.4021C74.3322 79.4047 74.3252 79.4089 74.3193 79.4146C74.3135 79.4202 74.309 79.4271 74.3061 79.4347C74.3033 79.4424 74.3022 79.4505 74.3029 79.4586V82.2947C74.305 82.3082 74.304 82.322 74.2999 82.335C74.2958 82.348 74.2887 82.3599 74.2791 82.3696C74.2696 82.3794 74.2578 82.3868 74.2449 82.3912C74.232 82.3956 74.2182 82.3969 74.2047 82.395H73.5131C73.4994 82.3973 73.4854 82.3963 73.4722 82.392C73.459 82.3878 73.447 82.3805 73.4372 82.3706C73.4274 82.3608 73.42 82.3488 73.4158 82.3356C73.4116 82.3224 73.4105 82.3084 73.4128 82.2947V75.75Z" fill="#939598"/>
<path d="M79.875 75.7462C79.8732 75.7326 79.8746 75.7188 79.879 75.7058C79.8834 75.6928 79.8908 75.681 79.9005 75.6713C79.9102 75.6616 79.922 75.6543 79.935 75.6499C79.9479 75.6455 79.9618 75.6441 79.9754 75.6459H80.6669C80.6806 75.6436 80.6947 75.6446 80.7079 75.6489C80.7211 75.6531 80.7331 75.6605 80.7429 75.6703C80.7527 75.6801 80.76 75.6921 80.7643 75.7053C80.7685 75.7185 80.7696 75.7325 80.7673 75.7462V79.2368L83.6317 75.7179C83.6484 75.6906 83.6718 75.6681 83.6997 75.6525C83.7276 75.6368 83.759 75.6285 83.7909 75.6284H84.6047C84.6176 75.6268 84.6307 75.6292 84.642 75.6355C84.6534 75.6418 84.6625 75.6515 84.6679 75.6633C84.6788 75.6873 84.6679 75.7157 84.6439 75.7484L82.5431 78.2747L84.8512 82.2604C84.897 82.3324 84.8774 82.3695 84.7923 82.3695H84.0004C83.971 82.3696 83.9422 82.3612 83.9174 82.3454C83.8926 82.3295 83.873 82.3068 83.8608 82.28L81.9672 78.9597L80.7673 80.4061V82.2691C80.7696 82.2828 80.7685 82.2969 80.7643 82.3101C80.76 82.3233 80.7527 82.3353 80.7429 82.3451C80.7331 82.3549 80.7211 82.3622 80.7079 82.3665C80.6947 82.3707 80.6806 82.3718 80.6669 82.3695H79.9754C79.9618 82.3713 79.9479 82.3699 79.935 82.3655C79.922 82.3611 79.9102 82.3538 79.9005 82.3441C79.8908 82.3344 79.8834 82.3226 79.879 82.3096C79.8746 82.2966 79.8732 82.2827 79.875 82.2691V75.7462Z" fill="#939598"/>
<path d="M87.7275 75.749C87.7317 75.7208 87.746 75.6952 87.7676 75.6767C87.7893 75.6583 87.8169 75.6483 87.8453 75.6486H88.4998C88.5297 75.647 88.5592 75.6563 88.5829 75.6747C88.6066 75.6932 88.6227 75.7195 88.6285 75.749L90.9366 82.2937C90.9584 82.3613 90.9366 82.394 90.869 82.394H90.1752C90.1452 82.3961 90.1154 82.387 90.0916 82.3685C90.0679 82.35 90.0518 82.3233 90.0465 82.2937L89.5295 80.8277H86.8047L86.2899 82.2937C86.2823 82.3221 86.2655 82.3474 86.2423 82.3655C86.2191 82.3836 86.1906 82.3936 86.1611 82.394H85.4652C85.3998 82.394 85.3779 82.3613 85.3976 82.2937L87.7275 75.749ZM89.235 80.0009L88.1725 76.9467H88.1529L87.0839 80.0009H89.235Z" fill="#939598"/>
<path d="M91.9956 75.75C91.9933 75.7363 91.9943 75.7222 91.9986 75.709C92.0028 75.6958 92.0101 75.6838 92.0199 75.674C92.0298 75.6642 92.0418 75.6569 92.055 75.6526C92.0682 75.6484 92.0822 75.6473 92.0959 75.6496H92.7875C92.8012 75.6473 92.8152 75.6484 92.8284 75.6526C92.8416 75.6569 92.8536 75.6642 92.8634 75.674C92.8733 75.6838 92.8806 75.6958 92.8848 75.709C92.8891 75.7222 92.8901 75.7363 92.8878 75.75V78.514C92.8868 78.522 92.8875 78.5301 92.8901 78.5378C92.8927 78.5454 92.897 78.5524 92.9027 78.5581C92.9084 78.5638 92.9153 78.5681 92.923 78.5706C92.9306 78.5732 92.9387 78.574 92.9467 78.5729H95.8613C95.8693 78.574 95.8774 78.5732 95.8851 78.5706C95.8927 78.5681 95.8996 78.5638 95.9053 78.5581C95.911 78.5524 95.9154 78.5454 95.9179 78.5378C95.9205 78.5301 95.9213 78.522 95.9202 78.514V75.75C95.9184 75.7364 95.9198 75.7225 95.9242 75.7095C95.9286 75.6965 95.9359 75.6847 95.9456 75.675C95.9553 75.6653 95.9672 75.658 95.9801 75.6536C95.9931 75.6492 96.007 75.6478 96.0206 75.6496H96.7121C96.7258 75.6473 96.7398 75.6484 96.753 75.6526C96.7663 75.6569 96.7783 75.6642 96.7881 75.674C96.7979 75.6838 96.8052 75.6958 96.8095 75.709C96.8137 75.7222 96.8148 75.7363 96.8125 75.75V82.2947C96.8148 82.3084 96.8137 82.3224 96.8095 82.3356C96.8052 82.3488 96.7979 82.3608 96.7881 82.3706C96.7783 82.3805 96.7663 82.3878 96.753 82.392C96.7398 82.3963 96.7258 82.3973 96.7121 82.395H96.0206C96.007 82.3968 95.9931 82.3955 95.9801 82.3911C95.9672 82.3866 95.9553 82.3793 95.9456 82.3696C95.9359 82.3599 95.9286 82.3481 95.9242 82.3351C95.9198 82.3221 95.9184 82.3083 95.9202 82.2947V79.4586C95.9213 79.4506 95.9205 79.4425 95.9179 79.4349C95.9154 79.4272 95.911 79.4203 95.9053 79.4146C95.8996 79.4089 95.8927 79.4046 95.8851 79.402C95.8774 79.3994 95.8693 79.3986 95.8613 79.3997H92.9467C92.9387 79.3986 92.9306 79.3994 92.923 79.402C92.9153 79.4046 92.9084 79.4089 92.9027 79.4146C92.897 79.4203 92.8927 79.4272 92.8901 79.4349C92.8875 79.4425 92.8868 79.4506 92.8878 79.4586V82.2947C92.8901 82.3084 92.8891 82.3224 92.8848 82.3356C92.8806 82.3488 92.8733 82.3608 92.8634 82.3706C92.8536 82.3805 92.8416 82.3878 92.8284 82.392C92.8152 82.3963 92.8012 82.3973 92.7875 82.395H92.0959C92.0822 82.3973 92.0682 82.3963 92.055 82.392C92.0418 82.3878 92.0298 82.3805 92.0199 82.3706C92.0101 82.3608 92.0028 82.3488 91.9986 82.3356C91.9943 82.3224 91.9933 82.3084 91.9956 82.2947V75.75Z" fill="#939598"/>
<path d="M54.4875 84.1152C54.4852 84.1015 54.4863 84.0875 54.4905 84.0743C54.4947 84.061 54.5021 84.049 54.5119 84.0392C54.5217 84.0294 54.5337 84.0221 54.5469 84.0178C54.5601 84.0136 54.5742 84.0126 54.5879 84.0148H55.2794C55.2931 84.0126 55.3071 84.0136 55.3203 84.0178C55.3336 84.0221 55.3456 84.0294 55.3554 84.0392C55.3652 84.049 55.3725 84.061 55.3768 84.0743C55.381 84.0875 55.382 84.1015 55.3798 84.1152V89.8724C55.3798 89.9138 55.3994 89.9335 55.4387 89.9335H58.6499C58.6634 89.9313 58.6772 89.9323 58.6902 89.9364C58.7033 89.9405 58.7151 89.9477 58.7249 89.9572C58.7346 89.9668 58.742 89.9785 58.7464 89.9914C58.7508 90.0043 58.7522 90.0181 58.7503 90.0316V90.6556C58.7526 90.6692 58.7515 90.6833 58.7473 90.6965C58.743 90.7097 58.7357 90.7217 58.7259 90.7315C58.7161 90.7413 58.7041 90.7487 58.6909 90.7529C58.6777 90.7571 58.6636 90.7582 58.6499 90.7559H54.5879C54.5742 90.7582 54.5601 90.7571 54.5469 90.7529C54.5337 90.7487 54.5217 90.7413 54.5119 90.7315C54.5021 90.7217 54.4947 90.7097 54.4905 90.6965C54.4863 90.6833 54.4852 90.6692 54.4875 90.6556V84.1152Z" fill="#939598"/>
<path d="M59.8828 84.9376C59.8691 84.9399 59.8551 84.9389 59.8418 84.9346C59.8286 84.9304 59.8166 84.9231 59.8068 84.9133C59.797 84.9035 59.7897 84.8914 59.7854 84.8782C59.7812 84.865 59.7802 84.851 59.7824 84.8373V84.1152C59.7802 84.1015 59.7812 84.0875 59.7854 84.0743C59.7897 84.061 59.797 84.049 59.8068 84.0392C59.8166 84.0294 59.8286 84.0221 59.8418 84.0178C59.8551 84.0136 59.8691 84.0126 59.8828 84.0148H60.5569C60.5704 84.013 60.5842 84.0143 60.5971 84.0187C60.61 84.0231 60.6217 84.0305 60.6313 84.0403C60.6408 84.05 60.648 84.0619 60.6521 84.0749C60.6562 84.0879 60.6572 84.1017 60.655 84.1152V84.8373C60.6572 84.8508 60.6562 84.8646 60.6521 84.8776C60.648 84.8906 60.6408 84.9025 60.6313 84.9122C60.6217 84.922 60.61 84.9294 60.5971 84.9338C60.5842 84.9382 60.5704 84.9395 60.5569 84.9376H59.8828ZM59.9024 90.7559C59.8887 90.7582 59.8747 90.7571 59.8615 90.7529C59.8483 90.7487 59.8363 90.7413 59.8264 90.7315C59.8166 90.7217 59.8093 90.7097 59.8051 90.6965C59.8008 90.6833 59.7998 90.6692 59.8021 90.6556V86.107C59.8002 86.0934 59.8015 86.0797 59.8059 86.0667C59.8103 86.0538 59.8177 86.0421 59.8275 86.0326C59.8372 86.023 59.8491 86.0159 59.8621 86.0118C59.8751 86.0076 59.8889 86.0066 59.9024 86.0088H60.5372C60.5506 86.007 60.5641 86.0083 60.5768 86.0126C60.5896 86.0169 60.6011 86.0241 60.6106 86.0336C60.6201 86.0431 60.6273 86.0546 60.6316 86.0674C60.6359 86.0801 60.6372 86.0937 60.6354 86.107V90.6556C60.6376 90.669 60.6366 90.6828 60.6325 90.6958C60.6283 90.7089 60.6212 90.7207 60.6117 90.7305C60.6021 90.7403 60.5904 90.7476 60.5775 90.752C60.5646 90.7565 60.5508 90.7578 60.5372 90.7559H59.9024Z" fill="#939598"/>
<path d="M62.3593 90.7603C62.3457 90.7625 62.3316 90.7615 62.3184 90.7573C62.3052 90.753 62.2932 90.7457 62.2834 90.7359C62.2736 90.7261 62.2662 90.7141 62.262 90.7008C62.2578 90.6876 62.2567 90.6736 62.259 90.6599V84.1152C62.2567 84.1015 62.2578 84.0875 62.262 84.0743C62.2662 84.061 62.2736 84.049 62.2834 84.0392C62.2932 84.0294 62.3052 84.0221 62.3184 84.0178C62.3316 84.0136 62.3457 84.0126 62.3593 84.0148H62.992C63.0057 84.0126 63.0197 84.0136 63.0329 84.0178C63.0461 84.0221 63.0582 84.0294 63.068 84.0392C63.0778 84.049 63.0851 84.061 63.0893 84.0743C63.0936 84.0875 63.0946 84.1015 63.0923 84.1152V86.552C63.2123 86.3555 63.3815 86.1938 63.5832 86.083C63.848 85.9478 64.1435 85.8839 64.4406 85.8975C64.8088 85.8838 65.1724 85.9844 65.4812 86.1855C65.7711 86.3937 65.9812 86.6946 66.0767 87.0385C66.1427 87.2293 66.1873 87.4269 66.2098 87.6275C66.2357 87.8761 66.2474 88.1259 66.2447 88.3758C66.2473 88.6279 66.2357 88.8799 66.2098 89.1306C66.1878 89.3328 66.1431 89.5318 66.0767 89.724C65.9812 90.0679 65.7711 90.3688 65.4812 90.577C65.1724 90.7782 64.8088 90.8788 64.4406 90.865C64.143 90.8785 63.8472 90.813 63.5832 90.6752C63.3812 90.5618 63.212 90.398 63.0923 90.1996V90.6556C63.0946 90.6692 63.0936 90.6833 63.0893 90.6965C63.0851 90.7097 63.0778 90.7217 63.068 90.7315C63.0582 90.7413 63.0461 90.7487 63.0329 90.7529C63.0197 90.7571 63.0057 90.7582 62.992 90.7559L62.3593 90.7603ZM64.2508 90.1058C64.481 90.1246 64.7107 90.0629 64.9005 89.9312C65.0903 89.7995 65.2284 89.606 65.2914 89.3837C65.336 89.2419 65.3646 89.0955 65.3765 88.9474C65.3945 88.7596 65.4025 88.571 65.4005 88.3824C65.4023 88.1974 65.3943 88.0124 65.3765 87.8282C65.3633 87.6802 65.3347 87.534 65.2914 87.3919C65.2094 87.1814 65.0658 87.0005 64.8794 86.873C64.6929 86.7455 64.4723 86.6773 64.2464 86.6773C64.0205 86.6773 63.7999 86.7455 63.6134 86.873C63.427 87.0005 63.2834 87.1814 63.2014 87.3919C63.1594 87.5239 63.1309 87.6599 63.1163 87.7977C63.1011 87.9504 63.0923 88.1446 63.0923 88.3824C63.0923 88.6201 63.0923 88.8187 63.1163 88.9736C63.1299 89.1101 63.1584 89.2447 63.2014 89.375C63.2651 89.5988 63.4051 89.7934 63.5971 89.9249C63.7892 90.0563 64.0212 90.1165 64.2529 90.0949L64.2508 90.1058Z" fill="#939598"/>
<path d="M67.6823 90.7598C67.6688 90.7616 67.655 90.7603 67.642 90.7559C67.6291 90.7515 67.6174 90.7441 67.6079 90.7343C67.5983 90.7246 67.5912 90.7127 67.5871 90.6997C67.583 90.6867 67.5819 90.6729 67.5841 90.6594V86.1108C67.5823 86.0975 67.5836 86.084 67.5879 86.0712C67.5922 86.0585 67.5994 86.0469 67.6089 86.0374C67.6184 86.0279 67.63 86.0207 67.6427 86.0164C67.6554 86.0122 67.669 86.0109 67.6823 86.0127H68.3171C68.3304 86.0109 68.344 86.0122 68.3567 86.0164C68.3695 86.0207 68.381 86.0279 68.3905 86.0374C68.4 86.0469 68.4072 86.0585 68.4115 86.0712C68.4158 86.084 68.4171 86.0975 68.4153 86.1108V86.5951H68.4262C68.5338 86.3888 68.696 86.2159 68.8952 86.0956C69.1352 85.9584 69.4088 85.8912 69.685 85.9014C69.8689 85.9004 70.0515 85.9329 70.2238 85.9974C70.386 86.0532 70.5346 86.1424 70.6601 86.2592C70.6811 86.2752 70.6949 86.2988 70.6986 86.325C70.7023 86.3511 70.6955 86.3776 70.6798 86.3988L70.3089 86.8766C70.3024 86.8887 70.2932 86.8991 70.2819 86.907C70.2706 86.9148 70.2577 86.9199 70.2441 86.9219C70.2305 86.9238 70.2166 86.9224 70.2036 86.918C70.1906 86.9135 70.1789 86.9061 70.1693 86.8962C70.0614 86.8255 69.9448 86.769 69.8224 86.7282C69.6977 86.6879 69.5673 86.668 69.4363 86.6693C69.2835 86.6567 69.1301 86.6855 68.9923 86.7527C68.8544 86.8198 68.7373 86.9229 68.6531 87.0511C68.4819 87.3577 68.3995 87.706 68.4153 88.0568V90.6529C68.4175 90.6663 68.4165 90.6801 68.4123 90.6932C68.4082 90.7062 68.4011 90.7181 68.3915 90.7278C68.382 90.7376 68.3703 90.745 68.3573 90.7494C68.3444 90.7538 68.3307 90.7551 68.3171 90.7532L67.6823 90.7598Z" fill="#939598"/>
<path d="M74.2807 90.7574C74.2152 90.7574 74.1847 90.7246 74.1847 90.657V90.2403C74.0568 90.4333 73.8789 90.5879 73.6698 90.6876C73.3905 90.8162 73.0849 90.8775 72.7776 90.8664C72.5642 90.8676 72.3518 90.8375 72.1471 90.777C71.9632 90.7214 71.792 90.6302 71.6432 90.5087C71.4996 90.39 71.3841 90.241 71.305 90.0723C71.2185 89.8744 71.176 89.66 71.1807 89.4441C71.1641 89.2325 71.2002 89.0201 71.2859 88.8259C71.3716 88.6317 71.5041 88.4618 71.6715 88.3315C72.0765 88.0703 72.5541 87.945 73.035 87.9737H74.1258C74.1651 87.9737 74.1847 87.954 74.1847 87.9126V87.5701C74.1973 87.4418 74.1826 87.3123 74.1416 87.1902C74.1007 87.068 74.0343 86.9558 73.9469 86.8611C73.7898 86.7171 73.4888 86.6429 73.0459 86.6429C72.8176 86.6364 72.5897 86.6681 72.3718 86.7367C72.2029 86.7952 72.0429 86.8767 71.8962 86.9789C71.8373 87.0247 71.7894 87.0225 71.7566 86.9789L71.4905 86.5229C71.4771 86.501 71.4718 86.4751 71.4753 86.4496C71.4789 86.4242 71.4912 86.4007 71.5101 86.3833C71.7127 86.2316 71.9411 86.1177 72.1842 86.0474C72.4889 85.9552 72.8061 85.9111 73.1245 85.9165C73.7993 85.9165 74.2771 86.0408 74.5578 86.2895C74.8392 86.536 74.9788 86.944 74.9788 87.533V90.6745C74.981 90.6879 74.98 90.7018 74.9758 90.7148C74.9717 90.7278 74.9646 90.7397 74.955 90.7494C74.9455 90.7592 74.9338 90.7666 74.9209 90.771C74.9079 90.7754 74.8942 90.7767 74.8806 90.7748L74.2807 90.7574ZM72.9718 90.1465C73.2859 90.1658 73.5976 90.0798 73.8575 89.9022C73.9626 89.8223 74.0466 89.7179 74.1021 89.5981C74.1576 89.4784 74.183 89.3468 74.176 89.215V88.6892C74.177 88.6812 74.1762 88.673 74.1736 88.6652C74.171 88.6575 74.1668 88.6505 74.1611 88.6446C74.1555 88.6388 74.1486 88.6342 74.141 88.6314C74.1333 88.6285 74.1252 88.6274 74.1171 88.6281H73.1616C72.8483 88.6039 72.5346 88.6681 72.2562 88.8136C72.1622 88.8788 72.087 88.9675 72.038 89.0709C71.989 89.1742 71.968 89.2886 71.9769 89.4026C71.9702 89.5091 71.9902 89.6156 72.0352 89.7124C72.0802 89.8092 72.1486 89.8932 72.2344 89.9567C72.4541 90.096 72.7121 90.1624 72.9718 90.1465Z" fill="#939598"/>
<path d="M76.6534 90.7598C76.6398 90.7615 76.626 90.7602 76.613 90.7558C76.6 90.7514 76.5882 90.744 76.5785 90.7343C76.5688 90.7246 76.5615 90.7128 76.557 90.6998C76.5526 90.6868 76.5513 90.673 76.5531 90.6594V86.1108C76.5512 86.0973 76.5525 86.0835 76.5569 86.0706C76.5613 86.0577 76.5687 86.046 76.5785 86.0364C76.5882 86.0269 76.6001 86.0198 76.6131 86.0156C76.6262 86.0115 76.6399 86.0105 76.6534 86.0127H77.2883C77.3016 86.0109 77.3151 86.0122 77.3279 86.0164C77.3406 86.0207 77.3522 86.0279 77.3617 86.0374C77.3712 86.0469 77.3784 86.0585 77.3826 86.0712C77.3869 86.084 77.3882 86.0975 77.3864 86.1108V86.5951C77.494 86.3888 77.6563 86.2159 77.8555 86.0956C78.0954 85.9584 78.369 85.8912 78.6452 85.9014C78.8291 85.9007 79.0117 85.9332 79.184 85.9974C79.3457 86.0543 79.4941 86.1433 79.6204 86.2592C79.6413 86.2752 79.6552 86.2988 79.6588 86.325C79.6625 86.3511 79.6557 86.3776 79.64 86.3988L79.2735 86.8831C79.267 86.8952 79.2578 86.9057 79.2465 86.9135C79.2353 86.9214 79.2223 86.9265 79.2087 86.9284C79.1951 86.9303 79.1812 86.929 79.1682 86.9245C79.1552 86.9201 79.1434 86.9126 79.1339 86.9027C79.026 86.832 78.9094 86.7755 78.787 86.7348C78.6623 86.6944 78.5319 86.6745 78.4009 86.6759C78.248 86.663 78.0946 86.6917 77.9567 86.7589C77.8188 86.8261 77.7017 86.9293 77.6177 87.0576C77.4455 87.3639 77.3631 87.7124 77.3799 88.0633V90.6594C77.3821 90.6729 77.3811 90.6867 77.3769 90.6997C77.3728 90.7127 77.3657 90.7246 77.3561 90.7343C77.3466 90.7441 77.3349 90.7515 77.3219 90.7559C77.309 90.7603 77.2952 90.7616 77.2817 90.7598H76.6534Z" fill="#939598"/>
<path d="M80.6568 92.5482C80.6432 92.5501 80.6295 92.5488 80.6166 92.5444C80.6036 92.54 80.5919 92.5326 80.5824 92.5228C80.5728 92.5131 80.5657 92.5012 80.5616 92.4882C80.5574 92.4752 80.5564 92.4614 80.5586 92.4479V91.8741C80.5564 91.8606 80.5574 91.8469 80.5616 91.8338C80.5657 91.8208 80.5728 91.8089 80.5824 91.7992C80.5919 91.7894 80.6036 91.782 80.6166 91.7776C80.6295 91.7732 80.6432 91.7719 80.6568 91.7738H80.8357C81.0047 91.7817 81.1708 91.7274 81.3025 91.6211C81.4559 91.4624 81.5709 91.2705 81.6385 91.0604L81.7977 90.6241L80.0525 86.1148C80.0328 86.0493 80.0525 86.0166 80.1332 86.0166H80.8247C80.8529 86.0162 80.8802 86.0259 80.9018 86.0439C80.9234 86.0619 80.9379 86.0871 80.9426 86.1148L82.1926 89.5442H82.2122L83.4099 86.1148C83.4155 86.0871 83.4304 86.0621 83.4523 86.0442C83.4742 86.0263 83.5016 86.0166 83.5299 86.0166H84.204C84.2753 86.0166 84.3014 86.0493 84.2825 86.1148L82.4108 91.1324C82.3217 91.3704 82.2167 91.6022 82.0966 91.8261C82.0121 91.9879 81.9024 92.1352 81.7715 92.2625C81.6611 92.3613 81.531 92.4357 81.3898 92.4806C81.2347 92.5264 81.0737 92.5485 80.912 92.5461L80.6568 92.5482Z" fill="#939598"/>
<path d="M95.7129 47.4783C94.9232 45.6952 93.7939 44.8037 92.3249 44.8037C90.5186 44.8037 88.8461 46.2581 87.3073 49.1669C87.2201 49.0098 87.1197 48.9312 87.0063 48.9312C86.7576 48.9312 86.0311 49.8039 84.8378 51.536C83.5725 53.3875 82.5101 54.4935 81.6505 54.8542C80.266 55.4205 78.7832 55.7075 77.2874 55.6985C76.742 55.6985 75.9784 55.3538 74.9531 54.6513C74.0499 54.0187 73.4733 53.5096 73.2231 53.1242C73.2035 53.0806 73.1773 53.0391 73.1598 52.9999C73.0848 52.4789 72.9777 51.9631 72.8392 51.4553C72.5672 50.4373 72.2967 49.9282 72.0276 49.9282C71.9777 49.9332 71.9299 49.9514 71.8893 49.981C71.8486 50.0105 71.8166 50.0502 71.7964 50.0962C71.0895 51.7956 70.6794 53.0021 70.5703 53.7067C70.6177 54.1176 70.7532 54.5135 70.9674 54.8673C71.2357 55.3756 71.3666 55.7399 71.3666 55.9581C71.3666 56.5558 70.571 56.8547 68.9799 56.8547C68.055 56.8547 67.3569 56.6758 66.8944 56.3246C66.6762 56.1675 66.2181 55.6701 65.5353 54.8324C66.0152 52.16 66.2683 50.9056 66.2923 51.0801C66.2923 50.8619 66.2224 50.755 66.0981 50.755C66.042 50.759 65.9868 50.7715 65.9345 50.7921C65.4036 50.9448 64.6844 52.0713 63.7769 54.1714C62.3225 57.5732 60.2682 59.2741 57.614 59.2741C56.342 59.2403 55.0904 58.9471 53.9358 58.4124C53.0632 56.8853 52.4087 55.7727 52.0139 55.0636C51.9523 55.008 51.8771 54.9696 51.7958 54.9524C51.7146 54.9351 51.6303 54.9396 51.5514 54.9655C51.3529 55.0113 51.2525 55.1073 51.2525 55.2643C51.2143 56.1391 51.0938 57.0083 50.8926 57.8604C50.8088 58.2072 50.775 58.5643 50.7922 58.9207L52.448 62.8977C53.4661 65.3497 54.0187 67.3815 54.106 68.993C49.708 73.5001 33.3549 82.955 28.0057 85.2719C23.7647 87.1277 20.0873 88.0214 16.9735 87.953C14.4327 87.8905 12.0584 86.9524 9.85066 85.1388C7.33167 83.0401 6.07291 80.4222 6.07436 77.2851C6.07436 74.2135 6.83572 70.8335 8.35846 67.1452C8.53238 66.7698 8.63378 66.3649 8.65733 65.9519C8.65733 65.5526 8.52644 65.4108 8.26029 65.5155C7.99413 65.6203 7.69744 65.9126 7.43129 66.4427C6.45831 68.3429 5.86492 69.6344 5.64022 70.3194C4.86794 72.5489 4.37128 75.3988 4.15021 78.8689C4.02045 80.5545 4.23345 82.2489 4.77636 83.8499C5.31928 85.4509 6.18085 86.9253 7.30912 88.1843C9.86593 91.1221 13.2837 92.591 17.5625 92.591C21.9344 92.591 26.7055 91.0639 31.8758 88.0097C36.3371 85.3591 51.2678 76.4474 53.6915 73.3234C54.8623 71.8225 55.4484 69.4809 55.4499 66.2987C55.4499 65.9206 55.3604 65.0269 55.1815 63.6176C55.8964 63.9759 56.6857 64.1605 57.4853 64.1564C59.5839 64.1564 61.2514 63.2169 62.4876 61.3378C63.1966 60.1445 63.7006 59.2283 64.0147 58.5869C64.9906 59.8042 65.5207 60.4449 65.6051 60.5088C66.3301 61.1928 67.2963 61.5622 68.2928 61.5364C70.5761 61.5364 72.0727 60.4085 72.7824 58.1527C73.3687 58.7637 74.0586 59.2659 74.82 59.6362C75.817 60.1772 76.6395 60.4478 77.2939 60.4478C79.5279 60.4478 81.4695 59.5024 83.1187 57.6117C83.5703 57.1165 84.4517 55.7574 85.7584 53.5475C86.6616 54.743 88.0956 55.8381 90.0605 56.8329C91.7723 57.6633 93.058 58.0786 93.9175 58.0786C94.6869 58.0786 95.3646 57.5259 95.9507 56.4206C96.4652 55.4012 96.7321 54.2748 96.7295 53.1329C96.7274 50.8794 96.3936 48.9945 95.7129 47.4783ZM90.6648 51.752C90.5317 51.6669 89.9558 51.1543 88.9392 50.2249C89.4802 49.7253 90.2263 49.481 91.1774 49.481C91.6705 49.481 92.1417 49.8104 92.578 50.4758C93.0155 51.1351 93.2562 51.9055 93.2718 52.6966C92.3373 52.6056 91.4407 52.2807 90.6648 51.752Z" fill="#2C665C"/>
<path d="M55.3084 36.5505C56.6174 37.2122 57.9103 37.8856 59.1873 38.5706C60.1201 37.4725 60.6149 36.0688 60.5769 34.6285C60.5769 34.1922 60.001 33.6883 58.8557 33.1363C57.218 32.3859 56.1083 31.7685 55.5266 31.2842C54.7325 34.3529 54.3354 35.7215 54.3354 35.3899C54.342 35.7869 54.654 36.1753 55.3084 36.5505Z" fill="#2C665C"/>
<path d="M61.8285 42.1222C62.688 42.6065 63.5607 43.0916 64.4464 43.5773C64.8413 43.1148 65.2187 42.3644 65.5721 41.326C65.8601 40.4642 66.0084 39.8665 66.0084 39.5349C66.0084 39.0055 64.554 38.1329 61.6452 36.917C61.4685 36.917 61.1588 37.5104 60.7181 38.7059C60.2818 39.8076 60.0636 40.4271 60.0636 40.5602C60.0462 40.8962 60.6345 41.4168 61.8285 42.1222Z" fill="#2C665C"/>
<path d="M55.4275 43.5409C56.8382 44.3815 57.6432 44.8018 57.8425 44.8018C58.2417 44.8018 58.6082 44.3393 58.9332 43.41C59.1873 42.7753 59.3347 42.1031 59.3696 41.4204C59.3696 40.891 58.8831 40.3398 57.9101 39.7667C56.4557 38.9276 55.4064 38.1873 54.7621 37.5459C53.6655 39.8002 53.1172 41.1477 53.1172 41.5883C53.1172 41.9614 53.8786 42.6137 55.4275 43.5409Z" fill="#2C665C"/>
<path d="M17.6795 51.3878C16.5756 50.9515 15.9561 50.7333 15.8252 50.7333C15.4703 50.7333 14.9511 51.3303 14.2675 52.5244C13.7789 53.4057 13.2924 54.2893 12.8081 55.175C13.2945 55.572 14.0472 55.9473 15.0594 56.3029C15.9473 56.5865 16.5647 56.7392 16.9181 56.7392C17.3544 56.7392 18.2045 55.303 19.4684 52.4306C19.4684 52.2211 18.8721 51.8736 17.6795 51.3878ZM22.8302 54.6274C22.8302 54.1191 22.7429 53.8661 22.5684 53.8661C22.2993 53.8661 21.8899 54.4071 21.3402 55.4891C19.259 58.523 17.4257 61.0863 15.8404 63.1792C13.2778 60.97 11.8962 59.6996 11.6954 59.368C12.5572 59.2567 13.1484 59.1891 13.4712 59.1695C13.7941 59.1498 13.9512 59.0691 13.9512 58.9382C13.9512 58.7375 13.4211 58.3397 12.3608 57.7449C11.4969 57.2359 10.6345 56.7377 9.77348 56.2505C8.71324 55.5677 8.22022 55.2252 8.28348 55.2252C8.15259 55.2252 8.08495 55.3255 8.08495 55.524C8.08495 56.449 8.05151 57.7303 7.98461 59.368C7.94097 59.6101 8.14168 59.7301 8.58235 59.7301C9.73132 61.9117 11.4882 64.0205 13.853 66.0567C12.7666 67.6681 12.0263 69.0818 11.6322 70.2977C10.7247 72.9941 10.2716 75.1371 10.2731 76.7267C10.2731 78.869 11.0461 80.0398 12.5921 80.2391C13.408 80.3482 14.6893 79.7955 16.436 78.5811C18.0678 77.4314 19.0539 76.5173 19.416 75.8301C20.1748 74.3656 20.5727 72.7411 20.5766 71.0917C20.5781 70.0806 20.4228 69.0753 20.1163 68.1117C19.8705 67.3613 18.9535 66.1694 17.3654 64.5361C20.1287 60.7358 21.7285 58.4052 22.1648 57.5442C22.6166 56.6391 22.8448 55.6389 22.8302 54.6274ZM19.2546 71.792C19.2545 71.8995 19.2201 72.0042 19.1564 72.0909C18.357 72.9196 17.4553 73.6431 16.4731 74.2441C15.0391 75.1516 13.8916 75.6047 13.0306 75.6032C12.2321 75.6032 11.8373 75.2716 11.8373 74.6106C11.8373 73.834 12.2183 72.6625 12.9804 71.0961C13.6034 69.7549 14.3754 68.4882 15.282 67.3198C17.9289 69.6192 19.2531 71.1099 19.2546 71.792ZM14.7649 43.833C14.3882 43.833 13.7585 44.606 12.8757 46.152C12.0351 47.5657 11.6155 48.3729 11.6169 48.5736C11.6169 48.9677 12.0801 49.3422 13.0066 49.6971C13.6352 49.9353 14.2983 50.0701 14.97 50.0963C15.5219 50.0963 16.0739 49.6076 16.6258 48.6368C17.465 47.1548 18.2053 46.0946 18.8466 45.4561C16.412 44.374 15.0514 43.833 14.7649 43.833Z" fill="#2C665C"/>
<path d="M81.0024 25.7428C80.7771 26.1494 80.5746 26.5681 80.3959 26.9972C80.026 27.8764 79.7517 28.7929 79.5778 29.7307C79.4531 30.4008 79.3845 31.0802 79.3727 31.7618C79.3553 31.6309 79.3335 31.5 79.3116 31.3669C79.268 31.1051 79.2156 30.8433 79.1545 30.5837C78.9649 29.741 78.6871 28.9205 78.3256 28.136C78.1343 27.71 77.9157 27.2968 77.6711 26.899C76.8401 25.5282 75.6635 24.3997 74.2591 23.6267C73.9124 23.4369 73.5547 23.2679 73.188 23.1206C69.776 21.7331 65.8295 22.1388 62.3325 22.994L62.2081 23.0224C55.9186 24.9618 55.7507 25.1865 51.9111 26.5522C47.0884 28.2582 41.9297 30.5561 36.435 33.4459C31.7606 35.882 28.6824 37.7131 27.2004 38.9391C26.7435 40.0844 26.4192 41.2782 26.234 42.4973C26.0304 42.3344 25.8675 42.5373 25.7453 43.1059C25.6101 42.17 25.4748 41.2363 25.3286 40.3113C24.859 37.453 24.2031 34.6284 23.3652 31.8556C22.433 28.7156 21.7058 27.1448 21.1837 27.1434C21.1324 27.1444 21.0824 27.1596 21.0393 27.1873C20.9961 27.2151 20.9615 27.2542 20.9393 27.3004C20.5641 28.8406 20.226 30.0994 19.938 31.0746C19.938 31.1996 20.3132 32.489 21.0637 34.9425C21.8956 37.6084 22.4257 39.7318 22.654 41.3127C23.4641 46.6939 24.1811 52.486 24.8051 58.6889C25.3679 64.2432 25.9497 68.0078 26.5503 69.9829C27.0615 71.5975 27.9243 73.0787 29.0766 74.3199C30.704 76.1306 32.4617 77.0345 34.3494 77.0315C36.5528 77.0315 39.2776 75.9815 42.5238 73.8814C45.1664 72.1754 46.7793 70.8664 47.3625 69.9545C48.2482 68.551 48.6955 66.8916 48.7042 64.9762C48.6889 65.118 48.5973 64.1254 48.4228 61.9983C47.6752 60.3563 44.6065 57.593 39.2165 53.7084C33.7495 49.799 30.8073 47.4378 30.3899 46.6248C31.0771 46.7099 31.5527 46.771 31.8232 46.8124C32.3817 46.8342 32.6675 46.7513 32.6675 46.5637C32.6675 46.3761 32.2508 46.0118 31.4174 45.5362C30.7629 45.2221 30.1368 44.921 29.5151 44.6287C28.6131 44.204 27.7546 43.6926 26.9517 43.1016C27.0194 42.9576 27.0739 42.8529 27.1088 42.7896C27.6324 41.7541 30.7426 39.8198 36.4394 36.9866C42.2445 34.1179 56.9789 28.1949 62.3063 26.4082L63.2051 26.1049V26.1377C63.384 26.0635 63.565 25.9959 63.7461 25.9195C64.7322 25.5988 65.679 25.2934 66.5821 25.0098C68.0217 24.6317 69.5114 24.4801 70.9976 24.5604C75.1644 24.7567 77.9525 27.9375 79.0564 31.7116L79.4447 33.4568C79.4622 33.5572 79.4774 33.6554 79.4861 33.7557C79.4861 33.6357 79.4861 33.5179 79.4861 33.4001C79.4861 33.2823 79.4862 33.182 79.4753 33.0794C79.5123 30.6038 80.2862 28.1954 81.6983 26.1617C84.7874 21.6044 91.0136 18.0244 96.8842 16.2312V13.3057C90.6427 15.8908 84.386 19.7457 81.0024 25.7428ZM37.8989 57.2338C44.2021 62.0987 47.5196 64.9587 47.8512 65.8139C48.0388 66.2939 46.5204 67.5104 43.2961 69.4637C39.7823 71.6074 36.7972 72.6793 34.3407 72.6793C33.1387 72.6793 31.9192 71.9834 30.6953 70.585C29.1289 68.8194 28.1501 66.3557 27.7589 63.1938C27.5277 60.4683 27.3095 57.7421 27.1044 55.0151C26.8601 52.1529 26.5612 49.3278 26.2078 46.5397C26.3086 46.5579 26.4109 46.566 26.5132 46.5637C27.6317 48.6842 31.4269 52.2409 37.8989 57.2338Z" fill="#2C665C"/>
<path d="M79.2138 31.4632C78.6728 27.6193 76.6243 24.1876 73.2385 22.2155C70.0468 20.3241 66.2116 19.5824 62.5357 19.674L62.5095 17.3877C63.5357 17.4476 64.5564 17.5802 65.5637 17.7847C72.7956 19.1679 78.8909 23.6095 79.2094 31.4632H79.2138Z" fill="#C99D66"/>
<path d="M96.888 7.42188V9.60345C96.8182 9.62526 96.7462 9.65362 96.6699 9.67762C89.006 12.5966 82.7384 19.1456 80.3954 26.9949C79.8699 28.7466 79.55 30.5535 79.442 32.379C79.4355 31.4936 79.4807 30.6086 79.5773 29.7284C80.5873 20.2364 87.2455 11.7916 95.9063 7.82765C96.2336 7.68366 96.5586 7.55059 96.888 7.42188Z" fill="#C99D66"/>
</svg>
