<svg width="44" height="44" viewBox="0 0 44 44" fill="none" xmlns="http://www.w3.org/2000/svg">
<rect x="0.5" y="0.5" width="43" height="43" rx="21.5" stroke="#E9F4F2"/>
<path d="M22 31.6496C21.69 31.6496 21.39 31.6096 21.14 31.5196C17.32 30.2096 11.25 25.5596 11.25 18.6896C11.25 15.1896 14.08 12.3496 17.56 12.3496C19.25 12.3496 20.83 13.0096 22 14.1896C23.17 13.0096 24.75 12.3496 26.44 12.3496C29.92 12.3496 32.75 15.1996 32.75 18.6896C32.75 25.5696 26.68 30.2096 22.86 31.5196C22.61 31.6096 22.31 31.6496 22 31.6496ZM17.56 13.8496C14.91 13.8496 12.75 16.0196 12.75 18.6896C12.75 25.5196 19.32 29.3196 21.63 30.1096C21.81 30.1696 22.2 30.1696 22.38 30.1096C24.68 29.3196 31.26 25.5296 31.26 18.6896C31.26 16.0196 29.1 13.8496 26.45 13.8496C24.93 13.8496 23.52 14.5596 22.61 15.7896C22.33 16.1696 21.69 16.1696 21.41 15.7896C20.48 14.5496 19.08 13.8496 17.56 13.8496Z" fill="#2C665C"/>
</svg>
