<svg width="200" height="200" viewBox="0 0 200 200" fill="none" xmlns="http://www.w3.org/2000/svg">
<path d="M107.987 151.453C107.982 151.427 107.984 151.399 107.992 151.373C108 151.347 108.014 151.323 108.034 151.304C108.053 151.284 108.077 151.27 108.103 151.262C108.129 151.254 108.157 151.252 108.184 151.257H109.474C109.541 151.251 109.608 151.268 109.665 151.303C109.723 151.339 109.767 151.391 109.793 151.453L113.82 160.533H113.881L117.834 151.453C117.858 151.391 117.903 151.337 117.961 151.302C118.018 151.266 118.086 151.25 118.153 151.257H119.443C119.47 151.253 119.497 151.256 119.522 151.265C119.548 151.274 119.571 151.288 119.59 151.307C119.609 151.326 119.623 151.349 119.632 151.374C119.641 151.4 119.644 151.427 119.64 151.453V164.513C119.643 164.54 119.64 164.568 119.631 164.594C119.622 164.621 119.607 164.644 119.588 164.664C119.568 164.684 119.544 164.699 119.518 164.708C119.492 164.717 119.464 164.72 119.436 164.717H118.173C118.146 164.72 118.118 164.717 118.092 164.708C118.066 164.699 118.043 164.684 118.024 164.664C118.005 164.644 117.99 164.62 117.982 164.594C117.974 164.568 117.972 164.54 117.976 164.513V155.141H117.915L114.574 162.55C114.549 162.624 114.5 162.687 114.435 162.73C114.369 162.773 114.292 162.794 114.214 162.788H113.426C113.347 162.795 113.266 162.776 113.199 162.733C113.131 162.69 113.08 162.626 113.053 162.55L109.712 155.141H109.651V164.513C109.654 164.54 109.651 164.568 109.642 164.594C109.633 164.621 109.618 164.644 109.598 164.664C109.578 164.684 109.555 164.699 109.528 164.708C109.502 164.717 109.474 164.72 109.447 164.717H108.177C108.15 164.72 108.122 164.717 108.096 164.708C108.07 164.699 108.046 164.684 108.027 164.664C108.008 164.644 107.994 164.62 107.986 164.594C107.977 164.568 107.975 164.54 107.98 164.513L107.987 151.453Z" fill="#F5F5F5"/>
<path d="M122.947 151.453C122.944 151.426 122.947 151.398 122.956 151.372C122.965 151.346 122.98 151.323 123 151.304C123.02 151.284 123.044 151.27 123.07 151.262C123.096 151.254 123.124 151.252 123.151 151.256H131.3C131.327 151.253 131.354 151.256 131.38 151.265C131.405 151.273 131.428 151.288 131.447 151.307C131.466 151.326 131.48 151.349 131.489 151.374C131.498 151.4 131.501 151.427 131.497 151.453V152.703C131.501 152.729 131.498 152.756 131.489 152.782C131.48 152.807 131.466 152.83 131.447 152.849C131.428 152.868 131.405 152.883 131.38 152.891C131.354 152.9 131.327 152.903 131.3 152.9H124.876C124.801 152.9 124.761 152.94 124.761 153.022V156.981C124.761 157.063 124.801 157.103 124.876 157.103H130.309C130.336 157.1 130.363 157.103 130.388 157.112C130.413 157.12 130.436 157.135 130.455 157.154C130.474 157.173 130.489 157.196 130.498 157.221C130.506 157.247 130.509 157.274 130.506 157.3V158.55C130.509 158.577 130.506 158.604 130.498 158.629C130.489 158.654 130.474 158.677 130.455 158.696C130.436 158.715 130.413 158.73 130.388 158.739C130.363 158.747 130.336 158.75 130.309 158.747H124.876C124.801 158.747 124.761 158.788 124.761 158.869V162.944C124.758 162.959 124.76 162.975 124.765 162.99C124.77 163.005 124.778 163.019 124.789 163.03C124.801 163.042 124.814 163.05 124.829 163.055C124.844 163.06 124.86 163.061 124.876 163.059H131.266C131.293 163.056 131.32 163.059 131.346 163.067C131.371 163.076 131.394 163.091 131.413 163.11C131.432 163.129 131.446 163.152 131.455 163.177C131.464 163.202 131.467 163.229 131.463 163.256V164.512C131.468 164.54 131.466 164.567 131.458 164.594C131.449 164.62 131.435 164.644 131.416 164.664C131.397 164.684 131.373 164.699 131.347 164.708C131.321 164.717 131.294 164.72 131.266 164.716H123.117C123.09 164.72 123.062 164.716 123.035 164.707C123.009 164.698 122.985 164.683 122.966 164.664C122.946 164.644 122.931 164.62 122.922 164.594C122.913 164.568 122.91 164.54 122.913 164.512L122.947 151.453Z" fill="#F5F5F5"/>
<path d="M138.193 164.954C137.719 164.954 137.246 164.906 136.781 164.811C136.336 164.728 135.9 164.605 135.477 164.445C135.082 164.304 134.702 164.125 134.343 163.908C134.025 163.724 133.727 163.508 133.453 163.263C133.433 163.245 133.416 163.222 133.405 163.197C133.394 163.172 133.388 163.145 133.388 163.117C133.388 163.089 133.394 163.062 133.405 163.037C133.416 163.012 133.433 162.989 133.453 162.971L134.329 161.939C134.345 161.918 134.366 161.901 134.389 161.889C134.413 161.877 134.439 161.871 134.465 161.871C134.491 161.871 134.517 161.877 134.541 161.889C134.565 161.901 134.585 161.918 134.601 161.939C135.103 162.321 135.651 162.64 136.231 162.89C136.904 163.186 137.634 163.335 138.37 163.324C139.15 163.371 139.922 163.148 140.557 162.693C140.809 162.497 141.012 162.244 141.149 161.955C141.286 161.666 141.353 161.348 141.344 161.029C141.348 160.757 141.3 160.487 141.202 160.234C141.106 159.987 140.946 159.769 140.74 159.603C140.484 159.393 140.192 159.232 139.878 159.127C139.438 158.975 138.982 158.875 138.519 158.828L137.84 158.727C135.201 158.373 133.879 157.133 133.874 155.005C133.865 154.446 133.972 153.891 134.187 153.375C134.382 152.899 134.682 152.472 135.063 152.126C135.46 151.777 135.921 151.51 136.421 151.338C137.008 151.143 137.623 151.049 138.241 151.059C139.01 151.056 139.776 151.173 140.509 151.406C141.166 151.603 141.786 151.908 142.343 152.309C142.368 152.321 142.389 152.339 142.406 152.361C142.422 152.384 142.433 152.41 142.437 152.437C142.441 152.465 142.438 152.493 142.429 152.519C142.42 152.545 142.404 152.569 142.383 152.587L141.704 153.674C141.69 153.696 141.67 153.715 141.648 153.729C141.625 153.743 141.6 153.752 141.574 153.756C141.548 153.76 141.521 153.758 141.496 153.751C141.47 153.744 141.446 153.732 141.426 153.715C140.926 153.395 140.387 153.14 139.823 152.954C139.292 152.783 138.737 152.699 138.18 152.703C137.49 152.654 136.807 152.87 136.271 153.307C136.051 153.505 135.875 153.748 135.758 154.02C135.641 154.292 135.584 154.587 135.592 154.883C135.586 155.148 135.639 155.412 135.748 155.655C135.858 155.897 136.02 156.111 136.224 156.282C136.876 156.727 137.636 156.99 138.424 157.042L139.103 157.144C140.19 157.23 141.225 157.645 142.071 158.333C142.412 158.665 142.677 159.067 142.849 159.511C143.02 159.955 143.093 160.431 143.063 160.906C143.069 161.467 142.966 162.023 142.757 162.543C142.554 163.037 142.235 163.475 141.827 163.82C141.372 164.201 140.845 164.487 140.278 164.662C139.604 164.871 138.9 164.97 138.193 164.954Z" fill="#F5F5F5"/>
<path d="M145.82 151.453C145.816 151.426 145.819 151.398 145.828 151.372C145.837 151.346 145.852 151.323 145.872 151.304C145.892 151.284 145.916 151.27 145.942 151.262C145.968 151.254 145.996 151.252 146.023 151.256H147.382C147.409 151.252 147.437 151.254 147.463 151.262C147.489 151.27 147.513 151.284 147.533 151.304C147.553 151.323 147.568 151.346 147.577 151.372C147.586 151.398 147.589 151.426 147.585 151.453V156.981C147.585 157.063 147.626 157.103 147.701 157.103H153.528C153.544 157.106 153.561 157.104 153.577 157.099C153.593 157.093 153.607 157.084 153.619 157.073C153.631 157.061 153.64 157.046 153.645 157.03C153.65 157.015 153.652 156.998 153.65 156.981V151.453C153.646 151.426 153.649 151.398 153.658 151.372C153.667 151.346 153.682 151.323 153.702 151.304C153.722 151.284 153.746 151.27 153.772 151.262C153.798 151.254 153.826 151.252 153.853 151.256H155.212C155.239 151.252 155.267 151.254 155.293 151.262C155.319 151.27 155.343 151.284 155.363 151.304C155.383 151.323 155.398 151.346 155.407 151.372C155.416 151.398 155.419 151.426 155.415 151.453V164.512C155.419 164.54 155.416 164.568 155.407 164.594C155.398 164.62 155.383 164.644 155.363 164.664C155.343 164.683 155.32 164.698 155.293 164.707C155.267 164.716 155.239 164.72 155.212 164.716H153.853C153.826 164.72 153.798 164.716 153.772 164.707C153.746 164.698 153.722 164.683 153.702 164.664C153.683 164.644 153.668 164.62 153.659 164.594C153.649 164.568 153.646 164.54 153.65 164.512V158.849C153.652 158.832 153.65 158.815 153.645 158.799C153.64 158.784 153.631 158.769 153.619 158.757C153.607 158.745 153.593 158.737 153.577 158.731C153.561 158.726 153.544 158.724 153.528 158.726H147.701C147.626 158.726 147.585 158.767 147.585 158.849V164.512C147.589 164.54 147.586 164.568 147.576 164.594C147.567 164.62 147.552 164.644 147.533 164.664C147.513 164.683 147.489 164.698 147.463 164.707C147.437 164.716 147.409 164.72 147.382 164.716H146.023C145.996 164.72 145.968 164.716 145.942 164.707C145.915 164.698 145.892 164.683 145.872 164.664C145.852 164.644 145.837 164.62 145.828 164.594C145.819 164.568 145.816 164.54 145.82 164.512V151.453Z" fill="#F5F5F5"/>
<path d="M158.764 151.453C158.76 151.426 158.763 151.398 158.772 151.372C158.781 151.346 158.796 151.323 158.816 151.304C158.836 151.284 158.86 151.27 158.886 151.262C158.912 151.254 158.94 151.252 158.967 151.256H160.326C160.353 151.252 160.381 151.254 160.407 151.262C160.433 151.27 160.457 151.284 160.477 151.304C160.497 151.323 160.512 151.346 160.521 151.372C160.53 151.398 160.533 151.426 160.529 151.453V158.468L166.254 151.433C166.288 151.379 166.335 151.334 166.391 151.303C166.447 151.272 166.51 151.256 166.573 151.256H168.197C168.264 151.256 168.305 151.256 168.326 151.324C168.346 151.392 168.326 151.426 168.278 151.494L164.074 156.547L168.692 164.512C168.787 164.662 168.747 164.737 168.577 164.737H166.988C166.929 164.735 166.871 164.718 166.822 164.685C166.773 164.653 166.734 164.607 166.709 164.553L162.927 157.918L160.529 160.811V164.512C160.533 164.54 160.53 164.568 160.521 164.594C160.511 164.62 160.497 164.644 160.477 164.664C160.457 164.683 160.434 164.698 160.407 164.707C160.381 164.716 160.353 164.72 160.326 164.716H158.967C158.94 164.72 158.912 164.716 158.886 164.707C158.86 164.698 158.836 164.683 158.816 164.664C158.796 164.644 158.782 164.62 158.773 164.594C158.763 164.568 158.76 164.54 158.764 164.512V151.453Z" fill="#F5F5F5"/>
<path d="M174.464 151.454C174.473 151.398 174.502 151.346 174.546 151.31C174.589 151.274 174.645 151.255 174.702 151.257H175.986C176.045 151.254 176.104 151.272 176.151 151.308C176.198 151.344 176.231 151.396 176.244 151.454L180.841 164.513C180.882 164.649 180.841 164.717 180.705 164.717H179.347C179.287 164.721 179.227 164.703 179.179 164.665C179.131 164.627 179.099 164.573 179.089 164.513L178.057 161.58H172.624L171.592 164.513C171.578 164.57 171.546 164.621 171.501 164.658C171.455 164.695 171.399 164.716 171.341 164.717H169.948C169.819 164.717 169.772 164.649 169.813 164.513L174.464 151.454ZM177.473 159.957L175.354 153.845H175.313L173.174 159.957H177.473Z" fill="#F5F5F5"/>
<path d="M183.008 151.453C183.003 151.427 183.005 151.399 183.013 151.373C183.021 151.347 183.036 151.323 183.055 151.304C183.074 151.284 183.098 151.27 183.124 151.262C183.15 151.254 183.178 151.252 183.205 151.257H184.563C184.59 151.253 184.617 151.256 184.642 151.265C184.668 151.274 184.691 151.288 184.71 151.307C184.729 151.326 184.743 151.349 184.752 151.374C184.761 151.4 184.763 151.427 184.76 151.453V156.981C184.758 156.998 184.759 157.015 184.765 157.031C184.77 157.047 184.779 157.061 184.791 157.073C184.803 157.085 184.817 157.094 184.833 157.099C184.849 157.104 184.866 157.106 184.882 157.104H190.709C190.784 157.104 190.825 157.063 190.825 156.981V151.453C190.821 151.426 190.824 151.398 190.833 151.372C190.842 151.346 190.857 151.323 190.877 151.304C190.897 151.285 190.921 151.27 190.947 151.262C190.973 151.254 191.001 151.252 191.028 151.257H192.387C192.414 151.252 192.442 151.254 192.468 151.262C192.494 151.27 192.518 151.285 192.538 151.304C192.558 151.323 192.573 151.346 192.582 151.372C192.591 151.398 192.594 151.426 192.59 151.453V164.513C192.594 164.54 192.59 164.568 192.581 164.594C192.572 164.621 192.557 164.644 192.538 164.664C192.518 164.684 192.494 164.699 192.468 164.708C192.442 164.717 192.414 164.72 192.387 164.717H191.028C191.001 164.72 190.973 164.717 190.947 164.708C190.92 164.699 190.897 164.684 190.877 164.664C190.857 164.644 190.842 164.621 190.833 164.594C190.824 164.568 190.821 164.54 190.825 164.513V158.849C190.825 158.768 190.784 158.727 190.709 158.727H184.916C184.9 158.724 184.883 158.726 184.867 158.731C184.851 158.737 184.837 158.746 184.825 158.758C184.813 158.769 184.804 158.784 184.799 158.8C184.793 158.816 184.792 158.832 184.794 158.849V164.513C184.799 164.54 184.797 164.568 184.788 164.594C184.78 164.62 184.766 164.644 184.747 164.664C184.728 164.684 184.704 164.699 184.678 164.708C184.652 164.717 184.624 164.72 184.597 164.717H183.239C183.103 164.717 183.042 164.649 183.042 164.513L183.008 151.453Z" fill="#F5F5F5"/>
<path d="M107.986 168.207C107.981 168.18 107.983 168.153 107.991 168.127C108 168.101 108.014 168.077 108.033 168.058C108.053 168.038 108.076 168.024 108.102 168.016C108.129 168.007 108.156 168.006 108.183 168.01H109.541C109.677 168.01 109.738 168.072 109.738 168.207V179.752C109.738 179.827 109.779 179.868 109.861 179.868H116.326C116.352 179.864 116.379 179.867 116.405 179.876C116.43 179.885 116.453 179.899 116.472 179.918C116.491 179.937 116.506 179.96 116.514 179.986C116.523 180.011 116.526 180.038 116.523 180.065V181.314C116.527 181.341 116.526 181.369 116.517 181.395C116.509 181.421 116.495 181.445 116.476 181.464C116.456 181.483 116.433 181.498 116.406 181.506C116.38 181.514 116.353 181.516 116.326 181.511H108.176C108.149 181.516 108.122 181.514 108.096 181.506C108.07 181.498 108.046 181.483 108.027 181.464C108.007 181.445 107.993 181.421 107.985 181.395C107.976 181.369 107.975 181.341 107.979 181.314L107.986 168.207Z" fill="#F5F5F5"/>
<path d="M118.764 169.851C118.737 169.854 118.71 169.851 118.685 169.843C118.659 169.834 118.636 169.819 118.617 169.8C118.598 169.781 118.584 169.758 118.575 169.733C118.566 169.708 118.564 169.681 118.567 169.654V168.207C118.562 168.18 118.564 168.153 118.572 168.127C118.58 168.101 118.595 168.077 118.614 168.058C118.633 168.038 118.657 168.024 118.683 168.016C118.709 168.007 118.737 168.006 118.764 168.01H120.122C120.149 168.006 120.177 168.007 120.203 168.016C120.229 168.024 120.253 168.038 120.272 168.058C120.291 168.077 120.306 168.101 120.314 168.127C120.322 168.153 120.324 168.18 120.319 168.207V169.654C120.322 169.681 120.319 169.708 120.311 169.733C120.302 169.758 120.288 169.781 120.269 169.8C120.25 169.819 120.227 169.834 120.201 169.843C120.176 169.851 120.149 169.854 120.122 169.851H118.764ZM118.805 181.484C118.778 181.489 118.75 181.487 118.724 181.479C118.698 181.471 118.674 181.456 118.655 181.437C118.635 181.418 118.621 181.394 118.613 181.368C118.605 181.342 118.603 181.314 118.608 181.287V172.187C118.604 172.16 118.607 172.133 118.616 172.108C118.625 172.082 118.639 172.059 118.658 172.04C118.677 172.021 118.7 172.007 118.725 171.998C118.751 171.99 118.778 171.987 118.805 171.99H120.074C120.101 171.987 120.128 171.99 120.154 171.998C120.179 172.007 120.202 172.021 120.221 172.04C120.24 172.059 120.254 172.082 120.263 172.108C120.272 172.133 120.275 172.16 120.271 172.187V181.287C120.276 181.314 120.274 181.342 120.266 181.368C120.258 181.394 120.244 181.418 120.224 181.437C120.205 181.456 120.181 181.471 120.155 181.479C120.129 181.487 120.101 181.489 120.074 181.484H118.805Z" fill="#F5F5F5"/>
<path d="M123.721 181.491C123.694 181.496 123.666 181.494 123.64 181.486C123.614 181.477 123.591 181.463 123.571 181.444C123.552 181.424 123.537 181.401 123.529 181.375C123.521 181.349 123.519 181.321 123.524 181.294V168.214C123.519 168.187 123.521 168.16 123.529 168.134C123.537 168.107 123.552 168.084 123.571 168.064C123.591 168.045 123.614 168.031 123.64 168.022C123.666 168.014 123.694 168.012 123.721 168.017H124.991C125.018 168.012 125.046 168.014 125.072 168.022C125.098 168.031 125.122 168.045 125.141 168.064C125.16 168.084 125.175 168.107 125.183 168.134C125.191 168.16 125.193 168.187 125.188 168.214V173.09C125.423 172.693 125.761 172.367 126.166 172.146C126.698 171.88 127.289 171.753 127.884 171.78C128.62 171.751 129.346 171.953 129.962 172.357C130.542 172.772 130.962 173.374 131.151 174.061C131.285 174.442 131.376 174.836 131.422 175.236C131.473 175.735 131.496 176.236 131.49 176.737C131.495 177.24 131.473 177.744 131.422 178.245C131.376 178.65 131.285 179.048 131.151 179.433C130.96 180.12 130.54 180.721 129.962 181.138C129.344 181.536 128.619 181.736 127.884 181.708C127.288 181.737 126.696 181.608 126.166 181.335C125.764 181.106 125.428 180.779 125.188 180.384V181.294C125.193 181.321 125.191 181.349 125.183 181.375C125.175 181.401 125.16 181.424 125.141 181.444C125.122 181.463 125.098 181.477 125.072 181.486C125.046 181.494 125.018 181.496 124.991 181.491H123.721ZM127.504 180.133C127.964 180.163 128.42 180.036 128.799 179.774C129.178 179.511 129.456 179.127 129.589 178.686C129.674 178.407 129.731 178.121 129.758 177.83C129.794 177.456 129.81 177.079 129.806 176.703C129.809 176.331 129.794 175.96 129.758 175.589C129.729 175.295 129.672 175.004 129.589 174.72C129.423 174.3 129.135 173.94 128.762 173.686C128.389 173.431 127.948 173.295 127.497 173.295C127.046 173.295 126.605 173.431 126.232 173.686C125.859 173.94 125.571 174.3 125.405 174.72C125.319 174.985 125.262 175.258 125.235 175.535C125.199 175.923 125.183 176.313 125.188 176.703C125.183 177.095 125.199 177.487 125.235 177.878C125.26 178.153 125.317 178.424 125.405 178.686C125.532 179.134 125.811 179.524 126.194 179.788C126.577 180.052 127.04 180.174 127.504 180.133Z" fill="#F5F5F5"/>
<path d="M134.383 181.491C134.356 181.496 134.329 181.494 134.302 181.486C134.276 181.478 134.253 181.463 134.233 181.444C134.214 181.425 134.2 181.401 134.191 181.375C134.183 181.349 134.181 181.321 134.186 181.294V172.194C134.183 172.167 134.186 172.14 134.194 172.115C134.203 172.089 134.218 172.066 134.237 172.047C134.256 172.028 134.279 172.014 134.304 172.005C134.329 171.997 134.357 171.994 134.383 171.997H135.653C135.68 171.994 135.707 171.997 135.732 172.005C135.758 172.014 135.781 172.028 135.8 172.047C135.819 172.066 135.833 172.089 135.842 172.115C135.851 172.14 135.853 172.167 135.85 172.194V173.165C136.066 172.751 136.393 172.405 136.794 172.167C137.272 171.892 137.818 171.758 138.37 171.78C138.738 171.776 139.104 171.841 139.449 171.97C139.769 172.084 140.063 172.262 140.312 172.493C140.353 172.525 140.38 172.572 140.388 172.624C140.396 172.676 140.383 172.728 140.353 172.771L139.619 173.742C139.606 173.766 139.587 173.787 139.565 173.802C139.543 173.818 139.517 173.828 139.49 173.832C139.463 173.836 139.436 173.833 139.41 173.825C139.384 173.816 139.36 173.802 139.341 173.783C139.13 173.641 138.902 173.527 138.662 173.444C138.411 173.366 138.15 173.327 137.887 173.328C137.582 173.302 137.275 173.359 136.998 173.493C136.722 173.626 136.487 173.832 136.319 174.089C135.973 174.71 135.809 175.416 135.843 176.126V181.321C135.848 181.348 135.846 181.376 135.838 181.402C135.83 181.428 135.816 181.452 135.796 181.471C135.777 181.49 135.753 181.505 135.727 181.513C135.701 181.521 135.673 181.523 135.646 181.518L134.383 181.491Z" fill="#F5F5F5"/>
<path d="M147.565 181.49C147.429 181.49 147.368 181.429 147.368 181.294V180.458C147.112 180.845 146.755 181.155 146.336 181.355C145.779 181.611 145.169 181.732 144.556 181.708C144.129 181.71 143.704 181.651 143.293 181.531C142.924 181.42 142.58 181.238 142.281 180.995C141.989 180.752 141.757 180.445 141.602 180.098C141.432 179.704 141.349 179.278 141.358 178.849C141.324 178.426 141.396 178.001 141.566 177.612C141.737 177.223 142.001 176.883 142.336 176.621C143.141 176.098 144.093 175.846 145.052 175.901H147.219C147.234 175.904 147.25 175.902 147.265 175.897C147.28 175.892 147.294 175.884 147.305 175.873C147.316 175.861 147.325 175.848 147.33 175.833C147.335 175.818 147.336 175.802 147.334 175.786V175.107C147.359 174.851 147.329 174.593 147.248 174.35C147.166 174.106 147.033 173.883 146.859 173.694C146.326 173.342 145.687 173.188 145.052 173.26C144.592 173.244 144.132 173.309 143.694 173.45C143.355 173.563 143.035 173.726 142.743 173.932C142.621 174.027 142.533 174.02 142.465 173.932L141.928 173.022C141.901 172.978 141.89 172.926 141.897 172.875C141.905 172.824 141.93 172.778 141.969 172.744C142.378 172.438 142.838 172.208 143.327 172.064C143.94 171.884 144.576 171.797 145.215 171.806C146.573 171.806 147.517 172.058 148.074 172.553C148.385 172.883 148.622 173.275 148.769 173.704C148.915 174.133 148.968 174.588 148.923 175.039V181.321C148.928 181.348 148.926 181.375 148.918 181.401C148.91 181.427 148.895 181.451 148.876 181.471C148.857 181.49 148.833 181.504 148.807 181.512C148.781 181.521 148.753 181.522 148.726 181.518L147.565 181.49ZM144.916 180.282C145.544 180.319 146.167 180.149 146.689 179.8C146.896 179.641 147.063 179.435 147.174 179.198C147.285 178.962 147.337 178.702 147.327 178.441V177.389C147.329 177.373 147.328 177.357 147.323 177.342C147.318 177.327 147.31 177.313 147.298 177.302C147.287 177.291 147.274 177.282 147.258 177.277C147.243 177.272 147.227 177.271 147.212 177.273H145.297C144.67 177.225 144.042 177.352 143.483 177.64C143.313 177.776 143.174 177.949 143.078 178.145C142.982 178.341 142.93 178.556 142.926 178.775C142.922 178.993 142.966 179.21 143.055 179.409C143.145 179.609 143.277 179.786 143.443 179.929C143.891 180.199 144.415 180.321 144.937 180.275L144.916 180.282Z" fill="#F5F5F5"/>
<path d="M152.319 181.491C152.183 181.491 152.115 181.429 152.115 181.294V172.194C152.112 172.166 152.115 172.139 152.124 172.113C152.133 172.087 152.148 172.063 152.168 172.044C152.187 172.025 152.211 172.011 152.238 172.002C152.264 171.994 152.292 171.992 152.319 171.997H153.582C153.609 171.992 153.637 171.994 153.663 172.002C153.69 172.011 153.714 172.025 153.733 172.044C153.753 172.063 153.768 172.087 153.777 172.113C153.786 172.139 153.789 172.166 153.786 172.194V173.165C154.006 172.754 154.332 172.409 154.73 172.166C155.134 171.951 155.58 171.822 156.037 171.788C156.494 171.754 156.953 171.816 157.385 171.969C157.706 172.082 157.999 172.26 158.248 172.492C158.269 172.508 158.287 172.527 158.3 172.55C158.314 172.572 158.323 172.597 158.326 172.623C158.33 172.649 158.329 172.675 158.322 172.701C158.316 172.726 158.304 172.75 158.288 172.771L157.555 173.742C157.542 173.766 157.523 173.786 157.501 173.802C157.478 173.817 157.453 173.828 157.426 173.831C157.399 173.835 157.371 173.833 157.345 173.825C157.32 173.816 157.296 173.802 157.276 173.783C157.066 173.641 156.837 173.527 156.597 173.443C156.347 173.365 156.086 173.326 155.823 173.328C155.518 173.301 155.212 173.358 154.937 173.492C154.662 173.626 154.428 173.832 154.261 174.088C153.913 174.709 153.748 175.415 153.786 176.126V181.321C153.786 181.457 153.718 181.518 153.582 181.518L152.319 181.491Z" fill="#F5F5F5"/>
<path d="M160.332 185.056C160.305 185.06 160.277 185.057 160.251 185.048C160.225 185.038 160.201 185.024 160.181 185.004C160.161 184.984 160.147 184.961 160.137 184.934C160.128 184.908 160.125 184.88 160.129 184.853V183.705C160.125 183.678 160.128 183.65 160.137 183.624C160.146 183.598 160.161 183.574 160.181 183.555C160.201 183.536 160.225 183.522 160.251 183.514C160.277 183.505 160.305 183.503 160.332 183.508H160.686C161.023 183.525 161.355 183.416 161.616 183.202C161.924 182.885 162.156 182.502 162.295 182.082L162.607 181.206L159.11 172.187C159.069 172.058 159.11 171.99 159.266 171.99H160.624C160.681 171.989 160.736 172.009 160.78 172.045C160.823 172.081 160.852 172.131 160.862 172.187L163.361 179.046H163.402L165.799 172.187C165.81 172.132 165.84 172.082 165.883 172.046C165.926 172.011 165.981 171.991 166.037 171.99H167.395C167.538 171.99 167.592 172.058 167.551 172.187L163.864 182.218C163.686 182.684 163.477 183.138 163.239 183.576C163.062 183.901 162.832 184.194 162.56 184.445C162.341 184.647 162.082 184.8 161.799 184.893C161.49 184.981 161.17 185.025 160.849 185.022L160.332 185.056Z" fill="#F5F5F5"/>
<path d="M190.431 94.9451C188.846 91.3821 186.582 89.5983 183.64 89.5938C180.018 89.5938 176.676 92.5049 173.616 98.3271C173.439 98.0147 173.242 97.8585 173.011 97.8585C172.516 97.8585 171.062 99.597 168.679 103.067C166.143 106.775 164.018 108.989 162.302 109.709C159.532 110.837 156.567 111.41 153.575 111.393C152.489 111.393 150.934 110.714 148.91 109.301C147.103 108.032 145.949 107.02 145.446 106.245C145.406 106.164 145.358 106.076 145.324 106.001C145.163 104.958 144.936 103.926 144.645 102.911C144.102 100.874 143.559 99.8619 143.022 99.8619C142.922 99.8707 142.827 99.9062 142.745 99.9648C142.664 100.023 142.6 100.103 142.56 100.195C141.148 103.595 140.33 106.001 140.109 107.414C140.204 108.236 140.475 109.028 140.903 109.736C141.319 110.399 141.591 111.142 141.705 111.916C141.705 113.111 140.109 113.709 136.951 113.709C135.095 113.709 133.705 113.356 132.781 112.65C131.781 111.746 130.871 110.748 130.065 109.668C131.029 104.33 131.536 101.84 131.586 102.198C131.586 101.77 131.443 101.519 131.192 101.519C131.081 101.526 130.971 101.549 130.866 101.587C129.807 101.89 128.369 104.154 126.554 108.378C123.638 115.169 119.529 118.565 114.228 118.565C111.684 118.496 109.182 117.909 106.873 116.84C105.107 113.793 103.826 111.561 103.029 110.144C102.905 110.034 102.755 109.958 102.593 109.923C102.432 109.889 102.263 109.897 102.106 109.947C101.705 110.042 101.508 110.232 101.508 110.544C101.43 112.286 101.186 114.016 100.781 115.712C100.616 116.406 100.55 117.119 100.584 117.831C101.685 120.486 102.792 123.128 103.892 125.783C105.929 130.687 107.034 134.761 107.206 138.007C98.3773 147.019 65.7121 165.919 55.0229 170.557C46.5386 174.27 39.1838 176.058 32.9586 175.922C27.8789 175.791 23.1251 173.914 18.6973 170.292C13.6629 166.095 11.1479 160.862 11.1524 154.591C11.1524 148.452 12.6736 141.693 15.716 134.313C16.0638 133.563 16.2665 132.755 16.3137 131.929C16.3137 131.135 16.0556 130.85 15.5191 131.067C14.9826 131.284 14.3918 131.868 13.8621 132.928C12.5073 135.433 11.3119 138.021 10.2832 140.676C8.74385 145.14 7.75007 150.838 7.30186 157.77C7.04 161.138 7.46279 164.524 8.54472 167.724C9.62666 170.924 11.3454 173.873 13.5972 176.391C18.7177 182.276 25.5654 185.219 34.1403 185.219C42.8827 185.219 52.4242 182.172 62.7648 176.078C71.6815 170.775 101.535 152.941 106.398 146.707C108.743 143.705 109.913 139.024 109.909 132.663C109.909 131.911 109.732 130.123 109.379 127.298C110.8 128.006 112.368 128.369 113.956 128.357C118.153 128.357 121.487 126.478 123.959 122.721C125.372 120.335 126.386 118.501 127.002 117.22C128.951 119.658 130.01 120.935 130.18 121.064C131.633 122.423 133.563 123.155 135.552 123.101C140.124 123.101 143.117 120.837 144.53 116.31C145.704 117.53 147.083 118.534 148.604 119.278C150.594 120.357 152.238 120.894 153.548 120.894C158.017 120.894 161.899 118.999 165.195 115.21C166.098 114.225 167.864 111.502 170.472 107.06C172.283 109.451 175.151 111.64 179.076 113.627C182.503 115.298 185.077 116.133 186.797 116.133C188.332 116.133 189.69 115.026 190.872 112.812C191.902 110.775 192.435 108.522 192.427 106.239C192.454 101.736 191.789 97.9604 190.431 94.9451ZM180.332 103.475C180.067 103.305 178.92 102.279 176.882 100.426C178.129 99.3755 179.731 98.8432 181.358 98.9382C182.349 98.9382 183.284 99.6038 184.163 100.935C185.029 102.256 185.501 103.797 185.521 105.376C183.66 105.184 181.877 104.53 180.332 103.475Z" fill="#F5F5F5"/>
<path d="M109.61 73.0907C112.217 74.4127 114.803 75.7595 117.365 77.1313C119.236 74.9378 120.228 72.1289 120.149 69.2469C120.149 68.3708 118.995 67.3725 116.706 66.2724C113.433 64.7647 111.221 63.5288 110.071 62.5645C108.487 68.7036 107.692 71.4404 107.688 70.7749C107.688 71.5694 108.333 72.3436 109.61 73.0907Z" fill="#F5F5F5"/>
<path d="M122.669 84.2282C124.387 85.1926 126.132 86.1705 127.905 87.1348C128.917 85.7805 129.679 84.2555 130.153 82.6323C130.601 81.4839 130.891 80.2799 131.015 79.0534C131.015 77.994 128.1 76.2509 122.268 73.8242C121.915 73.8242 121.297 75.0127 120.414 77.4031C119.873 78.6013 119.43 79.8413 119.09 81.1111C119.09 81.7721 120.283 82.8112 122.669 84.2282Z" fill="#F5F5F5"/>
<path d="M109.881 87.0947C112.706 88.7744 114.315 89.6142 114.709 89.6142C115.511 89.6142 116.244 88.6906 116.903 86.8298C117.409 85.5603 117.7 84.2154 117.765 82.8503C117.765 81.7909 116.787 80.6907 114.845 79.543C112.574 78.326 110.46 76.8368 108.55 75.1084C106.345 79.6132 105.242 82.307 105.242 83.1898C105.242 83.9233 106.789 85.2249 109.881 87.0947Z" fill="#F5F5F5"/>
<path d="M34.3842 102.762C33.1871 102.209 31.9471 101.755 30.6763 101.403C29.97 101.403 28.931 102.596 27.5592 104.982L24.6458 110.32C26.0123 111.314 27.5336 112.076 29.1483 112.575C30.3437 113.023 31.5925 113.313 32.863 113.437C33.7459 113.437 35.4459 110.565 37.9631 104.819C37.9631 104.419 36.7679 103.74 34.3842 102.762ZM44.6863 109.24C44.6863 108.228 44.5097 107.719 44.1634 107.719C43.6269 107.719 42.8052 108.799 41.705 110.965C37.5534 117.023 33.8885 122.148 30.7102 126.34C25.5852 121.922 22.8235 119.382 22.4251 118.721C24.15 118.497 25.3317 118.368 25.9768 118.32C26.622 118.273 26.9344 118.123 26.9344 117.858C26.9344 117.464 25.875 116.663 23.7562 115.475C22.0244 114.456 20.3063 113.437 18.5813 112.487C16.4625 111.128 15.4778 110.449 15.6 110.449C15.342 110.449 15.2062 110.653 15.2062 111.047C15.2062 112.903 15.1382 115.466 15.0024 118.734C14.9209 119.216 15.3148 119.461 16.1977 119.461C18.4976 123.834 22.0108 128.054 26.7374 132.12C24.882 134.732 23.3881 137.583 22.2961 140.595C20.4828 146.028 19.5796 150.272 19.5796 153.457C19.5796 157.736 21.1257 160.076 24.2179 160.479C25.8478 160.697 28.4148 159.596 31.9055 157.158C35.1652 154.863 37.1618 153.036 37.8681 151.664C39.3865 148.725 40.1805 145.465 40.1838 142.157C40.1857 140.133 39.8741 138.122 39.2602 136.194C38.7713 134.691 36.9377 132.307 33.7594 129.043C39.2784 121.442 42.4792 116.783 43.3621 115.067C44.2629 113.259 44.717 111.261 44.6863 109.24ZM37.5489 143.563C37.5504 143.778 37.4812 143.988 37.3519 144.16C35.7518 145.818 33.9467 147.265 31.9802 148.466C29.1143 150.279 26.8121 151.182 25.094 151.182C23.4981 151.182 22.7103 150.503 22.7103 149.199C22.7103 147.651 23.4709 145.308 24.9921 142.17C26.2393 139.489 27.7838 136.956 29.5965 134.619C34.8981 139.219 37.5489 142.2 37.5489 143.563ZM28.571 87.6582C27.815 87.6582 26.5563 89.2044 24.7952 92.2966C23.1178 95.1217 22.2757 96.738 22.2757 97.1318C22.2757 97.9264 23.1993 98.6802 25.06 99.3797C26.3117 99.8576 27.6329 100.128 28.9717 100.181C30.0719 100.181 31.1788 99.2031 32.279 97.2608C33.484 94.9623 34.9764 92.8263 36.7204 90.9044C31.8398 88.7403 29.1189 87.6582 28.5575 87.6582H28.571Z" fill="#F5F5F5"/>
<path d="M161.018 51.4748C160.568 52.2886 160.164 53.1275 159.809 53.9874C159.068 55.7336 158.519 57.5553 158.173 59.4203C157.919 60.7643 157.781 62.1274 157.759 63.495C157.759 63.2301 157.677 62.972 157.636 62.7072C157.548 62.1775 157.446 61.6614 157.324 61.1385C156.942 59.4536 156.387 57.8127 155.667 56.242C155.281 55.4074 154.843 54.5977 154.356 53.8176C152.695 51.0761 150.341 48.8204 147.531 47.2778C146.839 46.8982 146.125 46.5603 145.392 46.2659C138.601 43.4952 130.676 44.3033 123.66 46.0147L123.416 46.069C110.839 49.9467 110.513 50.3949 102.825 53.1249C92.1902 56.9723 81.8456 61.5795 71.8715 66.9109C62.5269 71.7824 56.3742 75.4427 53.4133 77.8921C52.4982 80.1827 51.8489 82.5707 51.4778 85.0092C51.0704 84.6832 50.7444 85.0906 50.4999 86.2248C50.2283 84.3572 49.9634 82.4897 49.6714 80.6425C48.7246 74.9246 47.4089 69.2739 45.7325 63.7258C43.8718 57.4509 42.4162 54.3111 41.3659 54.3066C41.2635 54.3087 41.1637 54.339 41.0775 54.3941C40.9912 54.4492 40.9218 54.5271 40.8769 54.619C40.1299 57.7022 39.4508 60.2217 38.8735 62.1707C38.8735 62.4243 39.6228 65.0026 41.1214 69.9057C42.5014 74.0641 43.5661 78.3206 44.3064 82.639C45.9272 93.4097 47.3624 104.993 48.612 117.389C49.7302 128.495 50.8938 136.022 52.1026 139.97C53.1218 143.2 54.8478 146.162 57.1552 148.642C60.4081 152.268 63.9123 154.075 67.7017 154.075C72.1024 154.075 77.5624 151.983 84.0411 147.779C89.3246 144.366 92.5504 141.747 93.7185 139.922C95.5444 136.927 96.4752 133.473 96.4009 129.966C96.3738 130.251 96.1859 128.266 95.8373 124.01C94.3432 120.724 88.2086 115.191 77.4334 107.413C66.4907 99.5988 60.6051 94.8767 59.7765 93.2468C61.1348 93.4166 62.1059 93.5388 62.6492 93.6271C63.7629 93.6678 64.3334 93.5048 64.3334 93.1245C64.3334 92.7442 63.4981 92.0244 61.8342 91.0872C60.5507 90.4556 59.274 89.8512 58.0312 89.2672C56.2275 88.4164 54.5104 87.393 52.9039 86.2112C53.0398 85.9192 53.1484 85.7155 53.2163 85.5864C54.2667 83.5129 60.4851 79.6442 71.8715 73.9804C83.4843 68.2487 112.951 56.3983 123.599 52.8262L125.399 52.2218V52.2896C125.759 52.1402 126.119 52.0044 126.486 51.8618C128.455 51.2167 130.343 50.6054 132.176 50.0418C135.054 49.2825 138.033 48.9801 141.005 49.1454C149.338 49.5325 154.913 55.8958 157.12 63.4407L157.894 66.9245C157.894 67.1214 157.956 67.3184 157.983 67.5221C157.983 67.2776 157.983 67.0467 157.983 66.809C157.983 66.5713 157.983 66.3811 157.983 66.1706C158.055 61.2246 159.596 56.4117 162.41 52.344C168.584 43.2303 181.038 36.0453 192.773 32.4868V26.6396C180.312 31.7737 167.782 39.4885 161.018 51.4748ZM74.8256 114.449C87.4299 124.178 94.0648 129.896 94.7303 131.603C95.1016 132.567 92.066 135.001 85.6235 138.903C78.5879 143.195 72.6185 145.339 67.7153 145.335C65.3045 145.335 62.8665 143.976 60.4217 141.144C57.2887 137.622 55.3306 132.696 54.5474 126.367C54.0946 120.934 53.6555 115.483 53.2299 110.014C52.741 104.291 52.1433 98.6321 51.4371 93.0363C51.6411 93.0719 51.848 93.0878 52.055 93.0838C54.2961 97.344 61.8863 104.466 74.8256 114.449Z" fill="#F5F5F5"/>
<path d="M157.446 62.9049C156.36 55.2174 152.265 48.3584 145.494 44.4128C139.117 40.6301 131.443 39.1429 124.095 39.3331L124.041 34.7559C126.094 34.8786 128.136 35.144 130.153 35.5504C144.611 38.3211 156.801 47.2039 157.439 62.9049H157.446Z" fill="#C99D66"/>
<path d="M192.773 14.8438V19.1833C192.638 19.224 192.495 19.2851 192.352 19.3327C177.025 25.1662 164.509 38.2662 159.809 53.9673C158.757 57.4688 158.116 61.0812 157.901 64.7312C157.886 62.9616 157.977 61.1928 158.173 59.4341C160.21 40.4191 173.5 23.5703 190.818 15.6383C191.469 15.3803 192.115 15.1086 192.773 14.8438Z" fill="#C99D66"/>
</svg>
