<svg width="225" height="150" viewBox="0 0 225 150" fill="none" xmlns="http://www.w3.org/2000/svg">
<g clip-path="url(#clip0_2017_5135)">
<path d="M93.3419 125.058C100.67 129.45 111.183 125.39 111.183 125.39C111.183 125.39 109.809 114.211 102.476 109.824C95.1482 105.432 84.6392 109.487 84.6392 109.487C84.6392 109.487 86.0139 120.666 93.3419 125.058Z" fill="url(#paint0_linear_2017_5135)"/>
<path d="M177.565 109.678C175.392 109.678 173.63 111.44 173.63 113.613C173.63 115.786 175.392 117.548 177.565 117.548C179.738 117.548 181.5 115.786 181.5 113.613C181.5 111.44 179.738 109.678 177.565 109.678Z" fill="#2C665C"/>
<path d="M47.8452 19.7031C45.4004 19.7031 43.4185 21.6851 43.4185 24.1299C43.4185 26.5747 45.4004 28.5566 47.8452 28.5566C50.29 28.5566 52.272 26.5747 52.272 24.1299C52.272 21.6851 50.29 19.7031 47.8452 19.7031Z" fill="#2C665C"/>
<path d="M55.9585 124.485C53.9211 124.485 52.2695 122.834 52.2695 120.796C52.2695 118.759 53.9211 117.107 55.9585 117.107C57.9958 117.107 59.6475 118.759 59.6475 120.796C59.6475 122.834 57.9958 124.485 55.9585 124.485Z" fill="#2C665C"/>
<path d="M136.326 133.135C135.103 133.135 134.112 132.144 134.112 130.922C134.112 129.699 135.103 128.708 136.326 128.708C137.548 128.708 138.539 129.699 138.539 130.922C138.539 132.144 137.548 133.135 136.326 133.135Z" fill="#E1E4E5"/>
<path d="M153.991 142.788C152.225 142.788 150.794 141.357 150.794 139.591C150.794 137.825 152.225 136.394 153.991 136.394C155.757 136.394 157.188 137.825 157.188 139.591C157.188 141.357 155.757 142.788 153.991 142.788Z" fill="#E1E4E5"/>
<path d="M166.006 32.3216C164.662 32.3216 163.573 31.2322 163.573 29.8883C163.573 28.5445 164.662 27.4551 166.006 27.4551C167.35 27.4551 168.439 28.5445 168.439 29.8883C168.439 31.2322 167.35 32.3216 166.006 32.3216Z" fill="#E1E4E5"/>
<path d="M87.2231 9.55287C87.5703 10.8488 86.8012 12.1808 85.5053 12.5281C84.2094 12.8753 82.8773 12.1063 82.5301 10.8103C82.1829 9.51442 82.9519 8.18237 84.2478 7.83513C85.5438 7.48789 86.8758 8.25695 87.2231 9.55287Z" fill="#E1E4E5"/>
<path d="M108.338 19.7662C106.553 19.7662 105.106 18.3193 105.106 16.5345C105.106 14.7496 106.553 13.3027 108.338 13.3027C110.123 13.3027 111.57 14.7496 111.57 16.5345C111.57 18.3193 110.123 19.7662 108.338 19.7662Z" fill="#E1E4E5"/>
<path d="M73.6405 141.519C72.2675 141.519 71.1545 140.628 71.1545 139.53C71.1545 138.431 72.2675 137.541 73.6405 137.541C75.0134 137.541 76.1265 138.431 76.1265 139.53C76.1265 140.628 75.0134 141.519 73.6405 141.519Z" fill="#E1E4E5"/>
<path d="M169.632 13.7196C170.355 16.4166 168.754 19.1889 166.057 19.9116C163.36 20.6342 160.588 19.0337 159.865 16.3366C159.142 13.6395 160.743 10.8673 163.44 10.1446C166.137 9.42192 168.909 11.0225 169.632 13.7196Z" fill="#E1E4E5"/>
<path fill-rule="evenodd" clip-rule="evenodd" d="M173.63 39.4804V70.3174C173.63 100.486 154.918 127.491 126.671 138.085L118.285 141.228C116.64 141.831 114.835 141.831 113.189 141.228L104.787 138.085C76.5467 127.486 57.8415 100.482 57.8447 70.3174V39.4804C57.8427 33.1564 61.942 27.5611 67.9725 25.6566L111.398 12.0931C114.222 11.1981 117.253 11.1981 120.077 12.0931L163.502 25.6566C169.533 27.5609 173.632 33.1564 173.63 39.4804Z" fill="#2C665C"/>
<path d="M143.716 61.6217C127.238 48.8865 104.238 48.8865 87.7593 61.6217M99.4213 78.622C109.035 71.2015 122.446 71.2015 132.06 78.622M115.738 94.1608C116.069 94.1729 116.39 94.2822 116.659 94.4751C116.928 94.6679 117.135 94.9357 117.253 95.2452C117.372 95.5547 117.396 95.8921 117.324 96.2155C117.252 96.5389 117.087 96.8339 116.848 97.0638C116.61 97.2938 116.309 97.4484 115.983 97.5086C115.657 97.5687 115.321 97.5317 115.016 97.4021C114.711 97.2724 114.451 97.056 114.268 96.7797C114.085 96.5033 113.988 96.1793 113.988 95.848C113.997 95.3924 114.187 94.9591 114.515 94.6429C114.843 94.3267 115.283 94.1533 115.738 94.1608Z" stroke="white" stroke-width="9.5975" stroke-linecap="round" stroke-linejoin="round"/>
</g>
<defs>
<linearGradient id="paint0_linear_2017_5135" x1="121.7" y1="139.196" x2="62.7352" y2="84.4101" gradientUnits="userSpaceOnUse">
<stop stop-color="white"/>
<stop offset="1" stop-color="#EEEEEE"/>
</linearGradient>
<clipPath id="clip0_2017_5135">
<rect width="225" height="150" fill="white"/>
</clipPath>
</defs>
</svg>
