<svg width="225" height="150" viewBox="0 0 225 150" fill="none" xmlns="http://www.w3.org/2000/svg">
<g clip-path="url(#clip0_2017_5127)">
<path d="M111.074 128.161C141.794 128.161 166.698 103.257 166.698 72.5366C166.698 41.816 141.794 16.9121 111.074 16.9121C80.3532 16.9121 55.4492 41.816 55.4492 72.5366C55.4492 103.257 80.3532 128.161 111.074 128.161Z" fill="url(#paint0_linear_2017_5127)"/>
<path fill-rule="evenodd" clip-rule="evenodd" d="M154.008 73.399H48.4361C38.5261 73.399 38.9809 65.2007 42.2179 62.3442C45.5356 59.4162 52.0911 60.604 52.0911 60.604C52.0911 60.604 54.0429 55.0895 60.4669 52.405C66.1494 50.0302 72.1021 51.1602 72.1021 51.1602C72.1021 51.1602 72.1021 47.3757 75.7404 44.2415C79.3791 41.1067 84.2304 41.4117 84.2304 41.4117C84.2304 41.4117 87.5651 20.543 109.85 20.543C132.135 20.543 134.712 40.1927 134.712 40.1927C134.712 40.1927 139.715 40.1927 143.354 43.544C146.992 46.8952 147.447 50.703 147.447 50.703C147.447 50.703 159.615 49.0555 163.214 59.602C165.358 65.8877 160.952 73.399 154.008 73.399Z" fill="white" stroke="#E1E4E5"/>
<path fill-rule="evenodd" clip-rule="evenodd" d="M121.555 93.8516H87.7279C84.7034 93.8516 83.4004 89.9394 85.8752 88.2044C85.9097 88.1794 85.9449 88.1546 85.9799 88.1306C89.5039 85.7111 94.1287 85.9309 94.1287 85.9309C94.1287 85.9309 94.7887 72.8389 107.231 72.8389C118.481 72.8389 122.967 83.8696 124.585 89.9471C125.111 91.9214 123.6 93.8516 121.555 93.8516Z" fill="white" stroke="#E1E4E5"/>
<path fill-rule="evenodd" clip-rule="evenodd" d="M77.4609 71.4848C77.4609 91.2213 98.9617 112.497 106.805 119.602C108.43 121.074 110.818 121.074 112.443 119.602C120.282 112.497 141.783 91.2213 141.783 71.4848C141.783 54.1868 127.383 40.1641 109.622 40.1641C91.8604 40.1641 77.4609 54.1868 77.4609 71.4848Z" fill="#2C665C" stroke="#2C665C" stroke-width="5.75" stroke-linecap="round" stroke-linejoin="round"/>
<path d="M109.622 60.6309V86.3596M122.487 73.4954H96.7578" stroke="white" stroke-width="5.75" stroke-linecap="round" stroke-linejoin="round"/>
<path fill-rule="evenodd" clip-rule="evenodd" d="M39.8772 110.527H86.5204C90.2964 110.527 91.9252 105.699 88.8339 103.556C88.7909 103.527 88.7469 103.496 88.7029 103.466C84.3024 100.479 78.5272 100.751 78.5272 100.751C78.5272 100.751 77.7019 84.5946 62.1634 84.5946C54.4812 84.5946 48.2727 97.5606 48.2727 97.5606C48.2727 97.5606 37.8219 97.5606 36.0924 105.707C35.5697 108.175 37.3224 110.527 39.8772 110.527ZM147.813 101.71H185.794C188.869 101.71 190.195 97.7508 187.678 95.9941L187.571 95.9201C183.988 93.4708 179.285 93.6933 179.285 93.6933C179.285 93.6933 178.613 80.4453 165.96 80.4453C159.705 80.4453 154.649 91.0776 154.649 91.0776C154.649 91.0776 146.139 91.0776 144.731 97.7578C144.305 99.7816 145.733 101.71 147.813 101.71ZM159.131 131.273H127.369C124.798 131.273 123.689 128.038 125.794 126.602C125.823 126.582 125.853 126.562 125.883 126.542C128.879 124.541 132.812 124.723 132.812 124.723C132.812 124.723 133.374 113.898 143.955 113.898C149.186 113.898 153.414 122.585 153.414 122.585C153.414 122.585 160.53 122.585 161.708 128.043C162.064 129.697 160.871 131.273 159.131 131.273ZM93.2622 133.088H64.6099C62.2904 133.088 61.2899 130.143 63.1889 128.836L63.2692 128.781C65.9724 126.959 69.5202 127.124 69.5202 127.124C69.5202 127.124 70.0269 117.269 79.5722 117.269C84.2912 117.269 88.1052 125.178 88.1052 125.178C88.1052 125.178 94.5247 125.178 95.5872 130.148C95.9084 131.653 94.8317 133.088 93.2622 133.088Z" fill="white" stroke="#E1E4E5"/>
</g>
<defs>
<linearGradient id="paint0_linear_2017_5127" x1="113.446" y1="190.534" x2="110.015" y2="-104.108" gradientUnits="userSpaceOnUse">
<stop stop-color="white"/>
<stop offset="1" stop-color="#EEEEEE"/>
</linearGradient>
<clipPath id="clip0_2017_5127">
<rect width="225" height="150" fill="white"/>
</clipPath>
</defs>
</svg>
