<svg width="225" height="150" viewBox="0 0 225 150" fill="none" xmlns="http://www.w3.org/2000/svg">
<g clip-path="url(#clip0_2017_5068)">
<path fill-rule="evenodd" clip-rule="evenodd" d="M67.9117 107.742C63.4537 107.742 65.5395 100.673 71.1875 102.361C71.5 92.5458 87.4992 85.3638 94.1152 98.603C95.9857 97.1228 100.186 99.9185 99.2557 102.361C101.333 102.539 102.968 102.779 104.24 103.097C107.176 103.832 106.595 107.709 103.568 107.682L67.9117 107.742ZM42.951 88.6498C38.7355 88.6498 40.708 81.965 46.0487 83.5618C46.3442 74.2798 61.4735 67.4885 67.7295 80.0075C69.4982 78.608 73.47 81.2518 72.5905 83.5618C74.5552 83.7293 76.101 83.9565 77.3035 84.2575C80.0802 84.9525 79.5305 88.6185 76.6685 88.5928L42.951 88.6498ZM58.3235 107.521H39.4377C37.7492 107.521 37.022 105.33 38.4035 104.359C38.4227 104.345 38.4425 104.331 38.462 104.317C40.4295 102.962 43.0115 103.085 43.0115 103.085C43.0115 103.085 43.38 95.7535 50.3267 95.7535C56.6072 95.7535 59.1117 101.931 60.0152 105.334C60.3085 106.44 59.4652 107.521 58.3235 107.521ZM169.019 107.902H155.737C154.55 107.902 154.038 106.361 155.01 105.678C155.024 105.668 155.037 105.658 155.051 105.649C156.435 104.696 158.25 104.782 158.25 104.782C158.25 104.782 158.51 99.6263 163.395 99.6263C167.812 99.6263 169.573 103.971 170.208 106.364C170.415 107.142 169.822 107.902 169.019 107.902ZM116.641 107.653H139.4C141.243 107.653 142.037 105.321 140.529 104.286C140.508 104.271 140.487 104.257 140.465 104.242C138.318 102.8 135.5 102.931 135.5 102.931C135.5 102.931 135.097 95.1263 127.516 95.1263C123.767 95.1263 120.738 101.39 120.738 101.39C120.738 101.39 115.639 101.39 114.795 105.325C114.54 106.517 115.395 107.653 116.641 107.653Z" fill="white" stroke="#E1E4E5"/>
<path fill-rule="evenodd" clip-rule="evenodd" d="M182.413 96.5433H131.957C127.221 96.5433 127.438 92.6233 128.985 91.2573C130.571 89.8573 133.704 90.425 133.704 90.425C133.704 90.425 134.637 87.7883 137.707 86.5048C140.423 85.3693 143.268 85.9095 143.268 85.9095C143.268 85.9095 143.268 84.1 145.007 82.6013C146.746 81.1023 149.065 81.248 149.065 81.248C149.065 81.248 150.658 71.2695 161.309 71.2695C171.96 71.2695 173.192 80.6653 173.192 80.6653C173.192 80.6653 175.583 80.6653 177.322 82.2678C179.06 83.8703 179.278 85.6908 179.278 85.6908C179.278 85.6908 185.093 84.9033 186.813 89.946C187.838 92.9518 185.732 96.5433 182.413 96.5433Z" fill="white" stroke="#E1E4E5"/>
<path fill-rule="evenodd" clip-rule="evenodd" d="M90.7085 58.2045C81.143 59.5105 73.75 67.625 73.75 77.5478C73.75 88.3763 82.5312 97.1575 93.3597 97.1575H136.501C145.165 97.1575 152.189 90.1332 152.189 81.4697C152.189 72.806 145.165 65.7818 136.501 65.7818C136.501 52.7845 125.967 42.25 112.97 42.25C102.627 42.25 93.8658 48.929 90.7085 58.2045Z" fill="#2C665C"/>
<path d="M122.383 73.6251H103.557M112.97 83.0381V64.2129" stroke="white" stroke-width="5.40625" stroke-linecap="round" stroke-linejoin="round"/>
<path d="M155.688 119.692C159.14 120.51 162.792 117.582 162.792 117.582C162.792 117.582 160.844 113.329 157.39 112.513C153.937 111.695 150.286 114.621 150.286 114.621C150.286 114.621 152.235 118.874 155.688 119.692Z" fill="url(#paint0_linear_2017_5068)"/>
<path d="M169.308 43.4756C164.057 47.0929 156.034 44.5644 156.034 44.5644C156.034 44.5644 156.531 36.1724 161.786 32.5586C167.037 28.9416 175.056 31.4666 175.056 31.4666C175.056 31.4666 174.56 39.8586 169.308 43.4756Z" fill="url(#paint1_linear_2017_5068)"/>
<path d="M51.1878 42.5686C54.3245 45.7611 60.1903 45.0878 60.1903 45.0878C60.1903 45.0878 60.9665 39.2386 57.8268 36.0478C54.69 32.8553 48.8273 33.5266 48.8273 33.5266C48.8273 33.5266 48.051 39.3758 51.1878 42.5686Z" fill="url(#paint2_linear_2017_5068)"/>
<path d="M34.945 95.8766C36.4334 95.8766 37.64 97.0832 37.64 98.5716C37.64 100.06 36.4334 101.267 34.945 101.267C33.4566 101.267 32.25 100.06 32.25 98.5716C32.25 97.0832 33.4566 95.8766 34.945 95.8766Z" fill="#2C665C"/>
<path d="M134.016 115.568C135.664 115.568 137 116.837 137 118.403C137 119.968 135.664 121.237 134.016 121.237C132.368 121.237 131.032 119.968 131.032 118.403C131.032 116.837 132.368 115.568 134.016 115.568Z" fill="#2C665C"/>
<path d="M38.0041 70.019C40.1376 70.019 41.8671 68.2894 41.8671 66.156C41.8671 64.0225 40.1376 62.293 38.0041 62.293C35.8706 62.293 34.1411 64.0225 34.1411 66.156C34.1411 68.2894 35.8706 70.019 38.0041 70.019Z" fill="#2C665C"/>
<path d="M103.249 120.913C104.732 120.913 105.934 119.777 105.934 118.376C105.934 116.975 104.732 115.84 103.249 115.84C101.765 115.84 100.563 116.975 100.563 118.376C100.563 119.777 101.765 120.913 103.249 120.913Z" fill="#E1E4E5"/>
<path d="M196.844 113.812C198.035 113.812 199 112.847 199 111.656C199 110.465 198.035 109.5 196.844 109.5C195.653 109.5 194.688 110.465 194.688 111.656C194.688 112.847 195.653 113.812 196.844 113.812Z" fill="#E1E4E5"/>
<path d="M85.3376 124.872C86.0488 124.872 86.6253 124.296 86.6253 123.585C86.6253 122.873 86.0488 122.297 85.3376 122.297C84.6264 122.297 84.0498 122.873 84.0498 123.585C84.0498 124.296 84.6264 124.872 85.3376 124.872Z" fill="#E1E4E5"/>
<path d="M96.1544 33.761C97.1704 33.761 97.9939 32.9375 97.9939 31.9215C97.9939 30.9056 97.1704 30.082 96.1544 30.082C95.1385 30.082 94.3149 30.9056 94.3149 31.9215C94.3149 32.9375 95.1385 33.761 96.1544 33.761Z" fill="#E1E4E5"/>
<path d="M170.211 120.812C169.954 121.771 170.523 122.756 171.482 123.013C172.441 123.27 173.426 122.701 173.683 121.742C173.94 120.783 173.371 119.798 172.412 119.541C171.453 119.284 170.468 119.853 170.211 120.812Z" fill="#E1E4E5"/>
<path d="M176.682 64.1292C178.003 64.1292 179.074 63.0586 179.074 61.7379C179.074 60.4173 178.003 59.3467 176.682 59.3467C175.362 59.3467 174.291 60.4173 174.291 61.7379C174.291 63.0586 175.362 64.1292 176.682 64.1292Z" fill="#E1E4E5"/>
<path d="M28.0641 86.8932C29.08 86.8932 29.9036 86.2344 29.9036 85.4217C29.9036 84.609 29.08 83.9502 28.0641 83.9502C27.0482 83.9502 26.2246 84.609 26.2246 85.4217C26.2246 86.2344 27.0482 86.8932 28.0641 86.8932Z" fill="#E1E4E5"/>
<path d="M44.25 115.47C44.25 117.069 45.5463 118.366 47.1453 118.366C48.7443 118.366 50.0405 117.069 50.0405 115.47C50.0405 113.871 48.7443 112.575 47.1453 112.575C45.5463 112.575 44.25 113.871 44.25 115.47Z" fill="#E1E4E5"/>
<path d="M56.7923 60.9324H56.7443C56.4593 64.9702 53.4565 65.0322 53.4565 65.0322C53.4565 65.0322 56.7678 65.0969 56.7678 69.7622C56.7678 65.0969 60.0788 65.0322 60.0788 65.0322C60.0788 65.0322 57.0773 64.9702 56.7923 60.9324ZM139.351 28.4717H139.304C139.026 32.5794 136.093 32.6424 136.093 32.6424C136.093 32.6424 139.327 32.7084 139.327 37.4547C139.327 32.7084 142.561 32.6424 142.561 32.6424C142.561 32.6424 139.63 32.5794 139.351 28.4717ZM194.657 83.7777H194.61C194.332 87.8854 191.399 87.9487 191.399 87.9487C191.399 87.9487 194.633 88.0144 194.633 92.7607C194.633 88.0144 197.867 87.9487 197.867 87.9487C197.867 87.9487 194.936 87.8854 194.657 83.7777ZM85.8233 42.9777H85.7763C85.498 47.0854 82.5653 47.1487 82.5653 47.1487C82.5653 47.1487 85.7993 47.2144 85.7993 51.9607C85.7993 47.2144 89.033 47.1487 89.033 47.1487C89.033 47.1487 86.1015 47.0854 85.8233 42.9777ZM152.194 59.3002H152.159C151.951 62.3694 149.76 62.4167 149.76 62.4167C149.76 62.4167 152.176 62.4659 152.176 66.0122C152.176 62.4659 154.593 62.4167 154.593 62.4167C154.593 62.4167 152.402 62.3694 152.194 59.3002Z" fill="#E1E4E5"/>
</g>
<defs>
<linearGradient id="paint0_linear_2017_5068" x1="168.69" y1="121.726" x2="138.464" y2="107.446" gradientUnits="userSpaceOnUse">
<stop stop-color="white"/>
<stop offset="1" stop-color="#EEEEEE"/>
</linearGradient>
<linearGradient id="paint1_linear_2017_5068" x1="148.852" y1="55.3439" x2="190.189" y2="11.7546" gradientUnits="userSpaceOnUse">
<stop stop-color="white"/>
<stop offset="1" stop-color="#EEEEEE"/>
</linearGradient>
<linearGradient id="paint2_linear_2017_5068" x1="63.703" y1="53.4736" x2="41.026" y2="17.9254" gradientUnits="userSpaceOnUse">
<stop stop-color="white"/>
<stop offset="1" stop-color="#EEEEEE"/>
</linearGradient>
<clipPath id="clip0_2017_5068">
<rect width="225" height="150" fill="white"/>
</clipPath>
</defs>
</svg>
