<svg width="225" height="150" viewBox="0 0 225 150" fill="none" xmlns="http://www.w3.org/2000/svg">
<g clip-path="url(#clip0_2017_5089)">
<path d="M58.6721 84.5769C58.0841 85.6262 56.7964 85.7704 54.7331 85.5712C53.1816 85.4207 51.7666 85.3044 50.2149 84.4584C49.1289 83.8667 48.2691 83.0662 47.6416 82.2887C46.9616 81.4462 46.0124 80.4849 46.4776 79.5297C47.1171 78.2177 50.8146 77.1127 54.4051 78.9197C58.3494 80.9054 59.2474 83.5512 58.6721 84.5769Z" fill="url(#paint0_linear_2017_5089)"/>
<path d="M176.568 77.6541C174.163 79.4471 170.348 78.4008 170.348 78.4008C170.348 78.4008 170.433 74.4478 172.839 72.6563C175.243 70.8633 179.056 71.9081 179.056 71.9081C179.056 71.9081 178.972 75.8611 176.568 77.6541Z" fill="url(#paint1_linear_2017_5089)"/>
<path d="M54.0302 43.5912C56.3155 46.2362 60.9207 46.0045 60.9207 46.0045C60.9207 46.0045 61.818 41.4845 59.5302 38.8407C57.245 36.1957 52.642 36.426 52.642 36.426C52.642 36.426 51.745 40.9462 54.0302 43.5912Z" fill="url(#paint2_linear_2017_5089)"/>
<path d="M109.972 127.694C108.883 127.694 108 126.811 108 125.722C108 124.633 108.883 123.75 109.972 123.75C111.061 123.75 111.944 124.633 111.944 125.722C111.944 126.811 111.061 127.694 109.972 127.694Z" fill="#E1E4E5"/>
<path d="M127.168 111.585C125.97 111.585 125 110.615 125 109.418C125 108.221 125.97 107.25 127.168 107.25C128.365 107.25 129.335 108.221 129.335 109.418C129.335 110.615 128.365 111.585 127.168 111.585Z" fill="#E1E4E5"/>
<path d="M169.75 45.1602C168.784 45.1602 168 44.3767 168 43.4102C168 42.4437 168.784 41.6602 169.75 41.6602C170.716 41.6602 171.5 42.4437 171.5 43.4102C171.5 44.3767 170.716 45.1602 169.75 45.1602Z" fill="#E1E4E5"/>
<path d="M47.9914 52.5913C48.3008 53.7459 47.6156 54.9326 46.461 55.242C45.3065 55.5513 44.1198 54.8662 43.8104 53.7116C43.501 52.557 44.1862 51.3703 45.3407 51.0609C46.4953 50.7516 47.682 51.4367 47.9914 52.5913Z" fill="#E1E4E5"/>
<path d="M80.3793 34.0085C78.7891 34.0085 77.5 32.7194 77.5 31.1293C77.5 29.5391 78.7891 28.25 80.3793 28.25C81.9695 28.25 83.2585 29.5391 83.2585 31.1293C83.2585 32.7194 81.9695 34.0085 80.3793 34.0085Z" fill="#E1E4E5"/>
<path d="M186.114 102.422C184.891 102.422 183.899 101.629 183.899 100.651C183.899 99.6721 184.891 98.8789 186.114 98.8789C187.337 98.8789 188.329 99.6721 188.329 100.651C188.329 101.629 187.337 102.422 186.114 102.422Z" fill="#E1E4E5"/>
<path d="M58.3625 117.931C58.3625 119.688 56.9382 121.113 55.1813 121.113C53.4243 121.113 52 119.688 52 117.931C52 116.174 53.4243 114.75 55.1813 114.75C56.9382 114.75 58.3625 116.174 58.3625 117.931Z" fill="#E1E4E5"/>
<path d="M164.881 97.9961H164.939C165.282 102.857 168.897 102.932 168.897 102.932C168.897 102.932 164.91 103.01 164.91 108.627C164.91 103.01 160.924 102.932 160.924 102.932C160.924 102.932 164.538 102.857 164.881 97.9961Z" fill="#E1E4E5"/>
<path d="M77.388 118.845H152.517C158.445 118.845 163.25 114.039 163.25 108.112V32.9827C163.25 27.0553 158.445 22.25 152.517 22.25H98.8535C92.926 22.25 88.1208 27.0553 88.1208 32.9827V108.112C88.1208 114.039 83.3155 118.845 77.388 118.845ZM77.388 118.845C71.4603 118.845 66.6553 114.039 66.6553 108.112V49.082C66.6553 43.1543 71.4603 38.3493 77.388 38.3493H88.1208M106.903 43.7158H144.468M106.903 65.1813H144.468M106.903 86.6472H144.468" stroke="#E1E4E5" stroke-linecap="round" stroke-linejoin="round"/>
<path fill-rule="evenodd" clip-rule="evenodd" d="M67.9182 77.8857C67.9182 90.3352 78.0097 100.427 90.4592 100.427C102.908 100.427 113 90.3352 113 77.8857C113 65.4365 102.908 55.3447 90.4592 55.3447C78.0097 55.3447 67.9182 65.4365 67.9182 77.8857Z" fill="white" stroke="#2C665C" stroke-width="5.0205" stroke-linecap="round" stroke-linejoin="round"/>
<path d="M63 105.344L72.6312 95.7129" stroke="#2C665C" stroke-width="5.0205" stroke-linecap="round" stroke-linejoin="round"/>
<path fill-rule="evenodd" clip-rule="evenodd" d="M135.25 105.177V94.7847C135.25 93.0668 135.701 91.3791 136.557 89.8899C137.413 88.4007 138.645 87.1621 140.13 86.2977L149.95 80.5822C151.45 79.7096 153.154 79.25 154.89 79.25C156.625 79.25 158.329 79.7096 159.829 80.5822L169.65 86.2977C171.135 87.1616 172.367 88.4001 173.224 89.8894C174.08 91.3786 174.531 93.0666 174.531 94.7847V105.177C174.531 106.895 174.081 108.582 173.224 110.072C172.368 111.561 171.136 112.799 169.652 113.664L159.831 119.379C158.332 120.252 156.627 120.712 154.892 120.712C153.157 120.712 151.452 120.252 149.952 119.379L140.132 113.664C138.647 112.8 137.414 111.562 136.558 110.072C135.701 108.583 135.25 106.895 135.25 105.177Z" fill="#2C665C"/>
<path d="M154.891 99.9807V90.1602M154.888 107.619C154.817 107.619 154.746 107.633 154.68 107.66C154.614 107.687 154.554 107.728 154.503 107.778C154.453 107.829 154.413 107.889 154.386 107.956C154.359 108.022 154.345 108.093 154.345 108.164C154.345 108.272 154.377 108.378 154.437 108.468C154.497 108.558 154.583 108.628 154.683 108.669C154.783 108.71 154.892 108.721 154.998 108.699C155.104 108.678 155.202 108.626 155.278 108.549C155.354 108.473 155.406 108.375 155.427 108.269C155.447 108.163 155.436 108.053 155.394 107.954C155.353 107.854 155.282 107.769 155.192 107.709C155.102 107.65 154.997 107.618 154.888 107.619Z" stroke="white" stroke-width="3.2735" stroke-linecap="round" stroke-linejoin="round"/>
</g>
<defs>
<linearGradient id="paint0_linear_2017_5089" x1="54.7109" y1="91.3779" x2="49.4699" y2="67.8272" gradientUnits="userSpaceOnUse">
<stop stop-color="white"/>
<stop offset="1" stop-color="#EEEEEE"/>
</linearGradient>
<linearGradient id="paint1_linear_2017_5089" x1="167.163" y1="83.5941" x2="185.82" y2="62.3756" gradientUnits="userSpaceOnUse">
<stop stop-color="white"/>
<stop offset="1" stop-color="#EEEEEE"/>
</linearGradient>
<linearGradient id="paint2_linear_2017_5089" x1="63.2397" y1="52.7157" x2="47.341" y2="23.877" gradientUnits="userSpaceOnUse">
<stop stop-color="white"/>
<stop offset="1" stop-color="#EEEEEE"/>
</linearGradient>
<clipPath id="clip0_2017_5089">
<rect width="225" height="150" fill="white"/>
</clipPath>
</defs>
</svg>
