<svg width="44" height="44" viewBox="0 0 44 44" fill="none" xmlns="http://www.w3.org/2000/svg">
<rect width="44" height="44" rx="22" fill="#E9F4F2"/>
<path d="M27.8332 30.9578C26.4832 30.9578 25.2082 30.2578 24.4915 29.1078C24.1082 28.5162 23.8916 27.8078 23.8749 27.0828C23.8499 25.8661 24.3666 24.7328 25.2916 23.9661C25.9832 23.3911 26.8499 23.0662 27.7416 23.0412C28.8249 23.0328 29.7999 23.4078 30.5666 24.1412C31.3332 24.8745 31.7665 25.8578 31.7832 26.9162C31.7999 27.6412 31.6166 28.3495 31.2499 28.9745C31.0499 29.3245 30.7916 29.6495 30.4832 29.9245C29.7999 30.5662 28.8832 30.9412 27.9082 30.9578C27.8916 30.9578 27.8666 30.9578 27.8332 30.9578ZM27.8332 24.2912C27.8166 24.2912 27.7916 24.2912 27.7749 24.2912C27.1582 24.3078 26.5749 24.5245 26.0916 24.9245C25.4582 25.4495 25.1082 26.2245 25.1249 27.0578C25.1332 27.5495 25.2832 28.0328 25.5416 28.4411C26.0499 29.2578 26.9332 29.7578 27.8832 29.7078C28.5416 29.6912 29.1666 29.4412 29.6416 28.9995C29.8582 28.8078 30.0332 28.5912 30.1665 28.3578C30.4165 27.9245 30.5415 27.4412 30.5332 26.9495C30.5165 26.2245 30.2249 25.5495 29.6999 25.0495C29.1999 24.5578 28.5332 24.2912 27.8332 24.2912Z" fill="#2C665C"/>
<path d="M27.3751 28.4584C27.2167 28.4584 27.0667 28.4 26.9417 28.2834L26.1001 27.4834C25.8501 27.2417 25.8417 26.8501 26.0834 26.6001C26.325 26.3501 26.7167 26.3417 26.9667 26.5834L27.3751 26.975L28.6834 25.7084C28.9334 25.4667 29.325 25.475 29.5667 25.725C29.8084 25.975 29.8001 26.3668 29.5501 26.6084L27.8084 28.2917C27.6834 28.4 27.5251 28.4584 27.3751 28.4584Z" fill="#2C665C"/>
<path d="M21.9998 23.0834C21.8915 23.0834 21.7831 23.0584 21.6831 23.0001L14.3248 18.7417C14.0248 18.5667 13.9248 18.1834 14.0998 17.8834C14.2748 17.5834 14.6581 17.4834 14.9498 17.6584L21.9914 21.7334L28.9915 17.6834C29.2915 17.5084 29.6748 17.6167 29.8415 17.9084C30.0165 18.2084 29.9081 18.5917 29.6165 18.7667L22.3081 23.0001C22.2165 23.0501 22.1081 23.0834 21.9998 23.0834Z" fill="#2C665C"/>
<path d="M22 30.6335C21.6583 30.6335 21.375 30.3502 21.375 30.0085V22.4502C21.375 22.1085 21.6583 21.8252 22 21.8252C22.3417 21.8252 22.625 22.1085 22.625 22.4502V30.0085C22.625 30.3502 22.3417 30.6335 22 30.6335Z" fill="#2C665C"/>
<path d="M22.0001 30.9586C21.2667 30.9586 20.5334 30.8002 19.9667 30.4752L15.5167 28.0086C14.3084 27.3419 13.3584 25.7336 13.3584 24.3503V19.6336C13.3584 18.2502 14.3084 16.6503 15.5167 15.9753L19.9667 13.5086C21.1001 12.8669 22.8834 12.8669 24.0251 13.5086L28.475 15.9753C29.6834 16.6419 30.6334 18.2502 30.6334 19.6336V24.3503C30.6334 24.4336 30.6334 24.5002 30.6167 24.5836C30.5751 24.8002 30.4167 24.9836 30.2084 25.0502C30.0001 25.1252 29.7667 25.0753 29.5917 24.9336C28.6334 24.1003 27.1501 24.0669 26.1417 24.8753C25.5001 25.3836 25.1251 26.1586 25.1251 26.9836C25.1251 27.4752 25.2584 27.9586 25.5167 28.3753C25.5834 28.4919 25.6501 28.5836 25.7251 28.6753C25.8501 28.8169 25.9001 29.0086 25.8667 29.1919C25.8334 29.3753 25.7167 29.5336 25.5501 29.6253L24.0251 30.4669C23.4584 30.8002 22.7334 30.9586 22.0001 30.9586ZM22.0001 14.2919C21.4834 14.2919 20.9584 14.4003 20.5834 14.6086L16.1334 17.0753C15.3251 17.517 14.6251 18.7169 14.6251 19.6336V24.3503C14.6251 25.2669 15.3334 26.4669 16.1334 26.9086L20.5834 29.3752C21.3417 29.8002 22.6667 29.8002 23.4251 29.3752L24.3584 28.8586C24.05 28.3002 23.8834 27.6502 23.8834 26.9836C23.8834 25.7669 24.4251 24.6419 25.3667 23.8919C26.5001 22.9836 28.1167 22.7919 29.3917 23.3336V19.6169C29.3917 18.7003 28.6834 17.5003 27.8834 17.0586L23.4334 14.5919C23.0417 14.4003 22.5167 14.2919 22.0001 14.2919Z" fill="#2C665C"/>
</svg>
