<svg width="24" height="25" viewBox="0 0 24 25" fill="none" xmlns="http://www.w3.org/2000/svg">
<path d="M12.0199 21.0299C9.68987 21.0299 7.35987 20.6599 5.14987 19.9199C4.30987 19.6299 3.66987 19.0399 3.38987 18.2699C3.09987 17.4999 3.19987 16.6499 3.65987 15.8899L4.80987 13.9799C5.04987 13.5799 5.26987 12.7799 5.26987 12.3099V9.41992C5.26987 5.69992 8.29987 2.66992 12.0199 2.66992C15.7399 2.66992 18.7699 5.69992 18.7699 9.41992V12.3099C18.7699 12.7699 18.9899 13.5799 19.2299 13.9899L20.3699 15.8899C20.7999 16.6099 20.8799 17.4799 20.5899 18.2699C20.2999 19.0599 19.6699 19.6599 18.8799 19.9199C16.6799 20.6599 14.3499 21.0299 12.0199 21.0299ZM12.0199 4.16992C9.12987 4.16992 6.76987 6.51992 6.76987 9.41992V12.3099C6.76987 13.0399 6.46987 14.1199 6.09987 14.7499L4.94987 16.6599C4.72987 17.0299 4.66987 17.4199 4.79987 17.7499C4.91987 18.0899 5.21987 18.3499 5.62987 18.4899C9.80987 19.8899 14.2399 19.8899 18.4199 18.4899C18.7799 18.3699 19.0599 18.0999 19.1899 17.7399C19.3199 17.3799 19.2899 16.9899 19.0899 16.6599L17.9399 14.7499C17.5599 14.0999 17.2699 13.0299 17.2699 12.2999V9.41992C17.2699 6.51992 14.9199 4.16992 12.0199 4.16992Z" fill="#242424"/>
<path d="M13.8796 4.43969C13.8096 4.43969 13.7396 4.42969 13.6696 4.40969C13.3796 4.32969 13.0996 4.26969 12.8296 4.22969C11.9796 4.11969 11.1596 4.17969 10.3896 4.40969C10.1096 4.49969 9.80963 4.40969 9.61963 4.19969C9.42963 3.98969 9.36963 3.68969 9.47963 3.41969C9.88963 2.36969 10.8896 1.67969 12.0296 1.67969C13.1696 1.67969 14.1696 2.35969 14.5796 3.41969C14.6796 3.68969 14.6296 3.98969 14.4396 4.19969C14.2896 4.35969 14.0796 4.43969 13.8796 4.43969Z" fill="#242424"/>
<path d="M12.0195 23.3096C11.0295 23.3096 10.0695 22.9096 9.36953 22.2096C8.66953 21.5096 8.26953 20.5496 8.26953 19.5596H9.76953C9.76953 20.1496 10.0095 20.7296 10.4295 21.1496C10.8495 21.5696 11.4295 21.8096 12.0195 21.8096C13.2595 21.8096 14.2695 20.7996 14.2695 19.5596H15.7695C15.7695 21.6296 14.0895 23.3096 12.0195 23.3096Z" fill="#242424"/>
</svg>
