<svg width="37" height="24" viewBox="0 0 37 24" fill="none" xmlns="http://www.w3.org/2000/svg">
<path d="M37 18C37 21.3136 35.05 24 31.2188 24H5.78125C1.95002 24 0 21.3136 0 18V6C0 2.68636 1.95002 0 5.78125 0H31.2188C35.05 0 37 2.68636 37 6V18Z" fill="#137A08"/>
<path fill-rule="evenodd" clip-rule="evenodd" d="M17.6347 11.2223C17.5936 10.6482 17.6855 10.5042 18.3429 10.1233C18.1561 9.9533 17.9307 9.91398 17.6994 9.89606C17.4225 9.87525 17.1461 9.866 16.8721 9.83998C16.731 9.82784 16.7045 9.77234 16.731 9.63301C16.805 9.25145 17.0028 8.98667 17.3913 8.86584C17.7694 8.74733 18.1388 8.60048 18.5227 8.46116C18.5105 8.4282 18.4949 8.39583 18.4805 8.3623C18.4373 8.28052 18.4135 8.1899 18.411 8.09747C18.4085 8.00503 18.4273 7.91326 18.466 7.82927C18.4966 7.76336 18.5308 7.69745 18.5689 7.63675C18.8059 7.25808 19.036 7.18812 19.439 7.37775C19.5662 7.43787 19.6899 7.51014 19.8003 7.59628C20.1206 7.84545 20.1495 8.19695 19.8633 8.48775C19.7437 8.60627 19.5818 8.68778 19.4378 8.78548C19.3552 8.83983 19.2222 8.8248 19.1933 8.95892C19.1915 8.96933 19.143 8.97048 19.1164 8.97511C19.0441 8.97916 18.9649 8.96412 18.9002 8.98956C18.5909 9.10403 18.2862 9.22775 17.9815 9.35262C17.9341 9.36997 17.8931 9.40177 17.8474 9.42662L17.8555 9.46478C18.1284 9.46478 18.4047 9.46883 18.677 9.46305C19.2881 9.44744 19.9003 9.42778 20.5114 9.4087C20.7103 9.40408 20.734 9.44108 20.6744 9.63128C20.6604 9.67204 20.6473 9.71309 20.6351 9.75442C20.5762 9.96891 20.4305 10.0649 20.2148 10.0978C19.5604 10.1915 18.9349 10.3996 18.3203 10.6436C18.1792 10.7014 18.0336 10.7794 18.0266 10.9511C18.0214 11.1194 18.1451 11.2252 18.2804 11.2992C18.4174 11.3726 18.5631 11.4258 18.7059 11.4819C18.869 11.5431 18.8984 11.5911 18.8562 11.7553C18.7637 12.0987 18.7545 12.119 18.3856 12.0796C17.648 11.9999 17.0045 11.7322 16.5698 11.0899C16.4819 10.9592 16.4154 10.8124 16.3281 10.6546C16.2928 10.6997 16.2581 10.7407 16.2235 10.7841C15.946 11.165 15.6453 11.5258 15.2626 11.8114C14.9868 12.0189 14.6949 12.1814 14.3307 12.1733C13.9011 12.1629 13.6329 11.9444 13.5502 11.5189C13.5398 11.4662 13.5282 11.4148 13.5172 11.3651C13.116 11.5137 12.7218 11.6611 12.328 11.801C12.135 11.8675 11.9407 11.9282 11.7441 11.9808C11.6753 11.9999 11.6002 11.9929 11.5279 11.997C11.5198 11.9796 11.5112 11.9623 11.5054 11.9438C11.5597 11.9056 11.6118 11.8623 11.669 11.8293C12.2529 11.49 12.831 11.15 13.4149 10.813C13.5057 10.7604 13.5473 10.6864 13.578 10.5892C13.6681 10.3285 13.7687 10.0724 13.8687 9.81455C13.8872 9.76598 13.9214 9.72667 13.9676 9.65152C14.0798 9.8978 13.9728 10.1279 14.0283 10.3574C14.0624 10.3395 14.096 10.3227 14.1214 10.3007C14.3359 10.1238 14.5532 9.95272 14.7573 9.76598C15.0418 9.50409 15.084 9.28498 14.9313 8.93117C14.8446 8.73577 14.7475 8.54556 14.6498 8.35594C14.6309 8.31739 14.6001 8.28596 14.5619 8.26633C14.4457 8.19869 14.4105 8.10156 14.4538 7.98247C14.5041 7.85123 14.5625 7.72462 14.6278 7.60148C14.6781 7.50841 14.7654 7.49511 14.8325 7.57316C14.9816 7.7437 15.1227 7.92292 15.2534 8.10619C15.3308 8.21487 15.288 8.29928 15.1713 8.33512C15.2302 8.56984 15.2967 8.79878 15.3435 9.03061C15.4332 9.49311 15.2909 9.89028 14.9816 10.2366C14.6932 10.5609 14.3746 10.8494 13.9983 11.0725C13.952 11.0991 13.915 11.1772 13.9173 11.2333C13.9185 11.3599 13.9717 11.4888 14.1035 11.5125C14.2572 11.5402 14.4261 11.5541 14.5735 11.5189C14.9261 11.4385 15.2083 11.2177 15.4413 10.9546C15.6742 10.6864 15.8702 10.3834 16.0812 10.0967C16.1443 10.01 16.1466 9.92381 16.1153 9.82091C15.9205 9.2185 15.7338 8.61089 15.5413 8.00906C15.4482 7.71826 15.5442 7.33092 15.765 7.16211C15.8026 7.22455 15.839 7.28236 15.8708 7.34537C16.2674 8.1588 16.5044 9.01789 16.6218 9.91398C16.6634 10.247 16.7264 10.5788 16.964 10.843C17.1421 11.0425 17.3739 11.1552 17.6347 11.2223ZM19.4494 8.21083C19.4505 8.19695 19.4505 8.18192 19.4505 8.1692C19.2829 8.09405 19.1499 7.942 18.9129 7.942C18.9302 8.07786 18.9453 8.19637 18.9603 8.33744L19.4494 8.21083ZM24.4669 18.8755C24.1617 18.8755 23.8911 18.8709 23.6188 18.8784C23.0604 18.8905 22.5042 18.9171 21.9428 18.9212C18.799 18.9449 15.6523 18.9657 12.5067 18.9773C11.9315 18.9784 11.3533 18.9391 10.7931 18.7795C10.5301 18.7044 10.2838 18.5905 10.089 18.3864C10.0427 18.3378 10.0034 18.2766 9.9375 18.191H10.189C13.6462 18.213 17.1034 18.2413 20.5594 18.2569C21.7977 18.2644 23.0338 18.2494 24.2721 18.2413C24.3218 18.2413 24.4103 18.2251 24.4126 18.2083C24.4218 18.1453 24.4242 18.058 24.3866 18.0187C24.216 17.8297 24.3126 17.6753 24.4455 17.5169C24.4993 17.4533 24.556 17.4435 24.6155 17.5134C24.7785 17.7094 24.8271 17.8112 24.6814 17.9979C24.6404 18.0511 24.6433 18.139 24.6213 18.2251C24.6855 18.2303 24.7236 18.2378 24.7595 18.2367C25.3492 18.2263 25.9336 18.2135 26.5222 18.2014C26.6332 18.2014 26.7459 18.2089 26.8569 18.2222C27.1228 18.2529 27.2639 18.3824 27.3217 18.6471C27.3714 18.8686 27.3714 19.0923 27.2859 19.3068C27.1714 19.597 26.9072 19.656 26.6719 19.4496C26.631 19.4192 26.5822 19.4013 26.5314 19.3981C26.3811 19.3935 26.2302 19.3981 26.0799 19.3993C25.9683 19.401 25.8573 19.3837 25.7758 19.5097C25.7226 19.5912 25.6255 19.5571 25.5417 19.5039C25.4812 19.4634 25.4121 19.4376 25.3399 19.4288C25.2191 19.4184 25.0965 19.4345 24.9763 19.4265C24.8346 19.4195 24.7202 19.4432 24.6566 19.5906C24.6207 19.6698 24.556 19.667 24.4918 19.6062C24.3178 19.4496 24.3033 19.3224 24.4195 19.1148C24.4536 19.053 24.449 18.9715 24.4669 18.8755ZM26.5332 19.1935L26.5684 18.8206C26.5395 18.8177 26.5158 18.8084 26.4938 18.8084C25.9273 18.8229 25.3613 18.835 24.7936 18.8518C24.6612 18.8558 24.6109 18.9478 24.6762 19.0674C24.7335 19.1692 24.8017 19.2524 24.9502 19.2258C25.0826 19.2045 25.2208 19.2212 25.3549 19.2085C25.4169 19.2012 25.475 19.1745 25.5209 19.1322C25.6122 19.0455 25.6983 19.0478 25.792 19.1177C25.8302 19.1484 25.87 19.1883 25.9094 19.19C26.1157 19.1993 26.3245 19.1935 26.5332 19.1935Z" fill="white"/>
<path fill-rule="evenodd" clip-rule="evenodd" d="M11.0141 9.05913C10.858 9.10538 10.7025 9.15163 10.547 9.20308C10.3869 9.2528 10.2377 9.21522 10.0984 9.14353C10.0533 9.1233 10.003 9.07127 9.99663 9.03022C9.94344 8.64057 9.92147 8.25611 10.2053 7.92543C10.4031 7.69244 10.6019 7.65255 10.8268 7.85894C10.9991 8.01388 11.1402 8.20235 11.3078 8.39024C11.361 8.3596 11.4448 8.32086 11.5183 8.26825C11.5346 8.25352 11.5478 8.23562 11.557 8.21565C11.5663 8.19568 11.5714 8.17405 11.572 8.15205C11.5304 7.66064 11.4836 7.16577 11.4362 6.67321C11.383 6.11878 11.3275 5.56552 11.272 5.00994C11.2689 4.97176 11.2619 4.93398 11.2512 4.89721C11.1789 4.67578 11.3043 4.39019 11.5269 4.30058C11.5547 4.28844 11.6287 4.32139 11.6443 4.35203C11.6975 4.4613 11.7339 4.5775 11.7755 4.69139C11.8524 4.9001 11.9287 5.11111 12.0039 5.31982C12.0256 5.37333 12.0388 5.42989 12.0432 5.48747C12.0594 5.68808 11.9802 5.7511 11.7882 5.69907C11.8391 6.45525 11.8935 7.20971 11.9495 7.99307C12.0363 7.92253 12.097 7.86241 12.1658 7.815C12.2114 7.78378 12.2675 7.76933 12.319 7.74678C12.3415 7.80344 12.3768 7.85605 12.382 7.91213C12.3958 8.00983 12.3704 8.11389 12.3999 8.20235C12.4323 8.29485 12.4907 8.41683 12.5676 8.44632C12.6427 8.47464 12.7948 8.43071 12.8456 8.36538C12.9711 8.21102 13.0607 8.02718 13.1596 7.85143C13.1844 7.80691 13.2 7.75835 13.2197 7.7121H13.2648C13.2838 7.80864 13.296 7.91097 13.3261 8.00463C13.3619 8.11332 13.3972 8.23183 13.4631 8.31797C13.5764 8.46539 13.7342 8.43013 13.7735 8.25496C13.7972 8.14511 13.7868 8.02371 13.7695 7.91386C13.7469 7.79014 13.7961 7.67047 13.9169 7.64793C13.9504 7.64272 14.0181 7.68377 14.0279 7.71614C14.1094 8.02024 14.1031 8.32607 13.9764 8.61455C13.8747 8.84117 13.4717 8.85563 13.2653 8.65386C13.2278 8.61744 13.1937 8.57235 13.1451 8.51974C12.9878 8.68161 12.8254 8.82788 12.5872 8.84985C12.3502 8.87124 12.1582 8.8088 12.0276 8.57177C12.0114 8.62149 11.9952 8.64635 11.9952 8.67178C12.005 8.925 12.0183 9.17707 12.0276 9.42913C12.0455 9.88238 12.0201 10.3298 11.8362 10.7559C11.6872 11.1032 11.4193 11.3861 11.0806 11.5537C10.5262 11.8359 9.94113 12.0191 9.31213 12.022C9.20229 12.022 9.08839 12.0029 8.98144 11.981C8.56288 11.8943 8.35302 11.6075 8.24954 11.2178C8.08708 10.6091 8.12524 10.0101 8.32932 9.41641C8.34666 9.36611 8.37961 9.31928 8.40447 9.27188C8.41863 9.27695 8.43341 9.28006 8.44841 9.28113C8.44841 9.44127 8.46633 9.60372 8.44668 9.75866C8.39522 10.1379 8.41083 10.5044 8.54438 10.8623C8.66636 11.1941 8.91496 11.3803 9.26819 11.4011C9.95558 11.4404 10.543 11.1785 11.0893 10.7871C11.4674 10.516 11.6177 10.1437 11.6177 9.69564C11.616 9.40427 11.6177 9.11174 11.6177 8.80071C11.5084 8.84753 11.3818 8.851 11.3997 9.00652C11.4922 9.86099 11.0089 10.3547 10.3238 10.7155C10.1388 10.8143 9.93477 10.897 9.72896 10.938C9.20229 11.0438 8.72938 10.6877 8.64844 10.1553C8.59121 9.77427 8.6548 9.40311 8.74846 9.03485C8.76465 8.97588 8.81032 8.925 8.84154 8.86835C8.85362 8.8743 8.86645 8.87858 8.87969 8.88107C8.87969 8.95507 8.88663 9.02849 8.87969 9.10075C8.85194 9.39386 8.85021 9.68466 8.97335 9.95927C9.13696 10.3298 9.40232 10.4478 9.78619 10.3212C10.2631 10.1639 10.6308 9.85116 10.9401 9.4696C11.0199 9.36958 11.0257 9.2158 11.0656 9.08572C11.0511 9.07589 11.0315 9.06722 11.0141 9.05913ZM10.8407 8.5816C10.7713 8.49719 10.7326 8.42261 10.673 8.38272C10.6066 8.33763 10.5181 8.3226 10.4418 8.29485C10.4227 8.37463 10.3817 8.45788 10.3944 8.53361C10.3996 8.58044 10.484 8.64577 10.5354 8.64982C10.6274 8.65271 10.7193 8.61166 10.8407 8.5816ZM27.4219 7.33689C27.4375 7.66585 27.4566 7.99307 27.4716 8.3226C27.4982 8.87124 27.5393 9.41814 27.5375 9.96563C27.5339 10.1882 27.4791 10.407 27.3774 10.605C27.1282 11.0889 26.69 11.1519 26.2211 10.8606C26.0766 10.7721 25.9662 10.6253 25.8552 10.4906C25.791 10.4166 25.7436 10.3969 25.6864 10.475C25.6022 10.5867 25.525 10.7035 25.4551 10.8247C25.2759 11.1473 25.1059 11.4751 24.9284 11.7983C24.8928 11.8671 24.8432 11.9278 24.7828 11.9763C24.7296 12.0157 24.6475 12.0486 24.5862 12.0405C24.2781 11.9908 23.8358 11.4901 23.8404 11.1751C23.8421 10.9062 23.8768 10.6351 23.9173 10.3674C23.9422 10.1934 23.9982 10.0258 24.041 9.85463C24.0624 9.85694 24.0832 9.85694 24.1029 9.85868C24.1144 9.94308 24.1376 10.0275 24.1376 10.1125C24.1335 10.4813 24.1613 10.838 24.3116 11.1803C24.3307 11.2196 24.3474 11.2612 24.3711 11.2976C24.4839 11.4757 24.6284 11.482 24.7481 11.3069C24.8117 11.2109 24.8591 11.104 24.9169 11.0022C25.129 10.627 25.3337 10.2449 25.5569 9.87775C25.7002 9.63899 25.8407 9.63899 26.0292 9.85116C26.1518 9.99222 26.2604 10.1524 26.3963 10.279C26.601 10.4686 26.8894 10.3986 26.9854 10.1368C27.038 9.98355 27.0762 9.81416 27.0698 9.65344C27.0426 8.87528 27.0016 8.09308 26.9617 7.31493C26.9513 7.14496 26.9259 6.97383 26.9276 6.80502C26.9322 6.65482 26.8795 6.50849 26.7802 6.39571C26.4934 6.04132 26.2177 5.6771 25.9309 5.32271C25.7846 5.14464 25.6939 4.96369 25.7274 4.72666C25.7453 4.61682 25.7245 4.50119 25.7332 4.39077C25.7378 4.34278 25.758 4.27225 25.7922 4.25549C25.8268 4.23988 25.9003 4.26474 25.9321 4.29596C26.1558 4.50524 26.3743 4.71799 26.5888 4.93536C26.6813 5.02786 26.664 5.08452 26.5275 5.17239C26.6119 5.29785 26.6981 5.42157 26.7808 5.54413C26.7955 5.54077 26.8103 5.53807 26.8253 5.53603C26.7987 5.33427 26.8045 5.12094 26.7385 4.9371C26.6351 4.65439 26.7426 4.44511 26.8975 4.2393C26.9785 4.13119 27.0426 4.2023 27.0768 4.28902C27.1635 4.51044 27.245 4.73071 27.3242 4.95618C27.3733 5.09319 27.4126 5.23541 27.4629 5.39902C27.3814 5.39382 27.3386 5.38861 27.2993 5.38514C27.2982 5.39555 27.2918 5.40249 27.2918 5.41174C27.3097 5.70253 27.3259 5.99564 27.3467 6.28471C27.3496 6.31766 27.3525 6.35408 27.3716 6.38067C27.5705 6.66338 27.7763 6.94608 28.0029 7.2178C27.9711 7.00736 27.9318 6.79403 27.9104 6.58186C27.8491 6.00778 27.8121 5.43082 27.7318 4.86021C27.6982 4.61624 27.7497 4.42314 27.8908 4.2393C28.0012 4.0965 28.0931 4.09939 28.1469 4.26936C28.2573 4.61913 28.3538 4.97583 28.4446 5.33369C28.4781 5.46319 28.4209 5.51291 28.2735 5.51869C28.3058 5.97946 28.3394 6.43907 28.3752 6.89636C28.3989 7.18889 28.4209 7.48027 28.4544 7.76818C28.4654 7.84911 28.492 7.93814 28.5377 8.0081C28.8117 8.4255 29.0973 8.83771 29.369 9.25511C29.5477 9.5303 29.6419 9.83266 29.6182 10.1645C29.6153 10.2102 29.606 10.2541 29.5974 10.3443C29.2384 9.81763 28.9054 9.33143 28.5735 8.84291C28.5342 9.36496 28.6625 9.887 28.4099 10.368C28.3943 10.368 28.3758 10.368 28.3602 10.3692C28.3509 10.2975 28.3301 10.2269 28.3336 10.1529C28.3567 9.5806 28.3128 9.00941 28.2087 8.44689C28.2006 8.40874 28.1954 8.36596 28.1723 8.33705C27.937 7.99943 27.6971 7.66585 27.4583 7.32996C27.4462 7.33169 27.4335 7.33458 27.4219 7.33689Z" fill="white"/>
<path fill-rule="evenodd" clip-rule="evenodd" d="M9.61362 4.67641C9.87031 4.87239 9.98767 5.10422 9.95876 5.3875C9.92061 5.74073 10.0033 6.072 10.0952 6.40384C10.1628 6.64319 10.3074 6.74205 10.5404 6.74898C10.7317 6.75188 10.808 6.67556 10.7676 6.49056C10.6964 6.18011 10.6097 5.87255 10.5294 5.56498C10.5139 5.50301 10.4904 5.44334 10.4594 5.3875C10.3317 5.15452 10.3981 4.96662 10.5791 4.79492C10.656 4.72092 10.723 4.71167 10.7872 4.78972C10.8861 4.90939 10.9901 5.02791 11.0659 5.16261C11.1613 5.32448 11.1318 5.39502 10.9624 5.49098C11.0173 5.72859 11.0936 5.9662 11.1196 6.20902C11.1462 6.42986 11.1509 6.66573 11.1069 6.88311C11.041 7.20108 10.6011 7.43869 10.2929 7.36469C10.112 7.31902 10.0033 7.19819 9.9339 7.03342C9.90442 6.96347 9.88072 6.88947 9.84545 6.7935C9.8044 6.84958 9.77203 6.88311 9.74659 6.92184C9.69514 6.997 9.66276 7.09412 9.59512 7.14962C9.42111 7.29011 9.4477 7.46586 9.46273 7.65028C9.49915 8.15441 9.53615 8.65737 9.55697 9.1615C9.56564 9.36558 9.51418 9.56156 9.33612 9.71708C9.30259 9.35864 9.27021 9.00252 9.23264 8.64466C9.19506 8.28333 9.15228 7.92142 9.1095 7.552C9.08811 7.54738 9.06845 7.53813 9.04475 7.53639C8.65914 7.49766 8.42962 7.29994 8.32729 6.923C8.2452 6.6218 8.25734 6.31713 8.28798 6.01419C8.30012 5.887 8.30475 5.76097 8.31457 5.63262C8.29087 5.62916 8.27122 5.62337 8.24867 5.62048C8.19201 5.82514 8.13247 6.0298 8.08275 6.23677C8.00875 6.52872 7.95036 6.82183 7.87636 7.11205C7.85333 7.18057 7.81632 7.24357 7.76767 7.29705C7.62025 7.48725 7.43814 7.48378 7.32887 7.27161C7.2318 7.0822 7.1558 6.88271 7.10225 6.67672C6.97449 6.23646 6.96631 5.77011 7.07854 5.32564C7.09126 5.27014 7.12306 5.21695 7.14445 5.16261C7.15775 5.16377 7.17278 5.16723 7.18839 5.16723C7.19417 5.22967 7.20168 5.29558 7.20804 5.35859C7.24562 5.71298 7.27395 6.07084 7.32945 6.42581C7.34737 6.54953 7.41501 6.67209 7.48497 6.77905C7.55723 6.89409 7.65898 6.88542 7.70003 6.75997C7.76131 6.56109 7.80987 6.35702 7.83531 6.15294C7.87693 5.77484 7.97753 5.42045 8.18507 5.10075C8.24404 5.01403 8.31631 4.92847 8.40129 4.87181C8.54756 4.77584 8.70018 4.85389 8.6944 5.02617C8.68721 5.2045 8.66144 5.3816 8.61751 5.55458C8.52097 5.91591 8.53022 6.26509 8.70018 6.60156C8.78575 6.76055 8.8742 6.8172 9.05689 6.83166C9.0459 6.67614 9.04359 6.52236 9.02393 6.37031C8.97248 5.92516 8.91582 5.47769 8.85628 5.03253C8.83756 4.90559 8.81033 4.78004 8.77476 4.65675C8.74701 4.53823 8.83662 4.28328 8.94473 4.23298C8.97653 4.21737 9.05747 4.24108 9.07365 4.27056C9.18407 4.48389 9.29392 4.70011 9.38295 4.92384C9.40342 4.97404 9.40664 5.02961 9.39209 5.08183C9.37755 5.13404 9.34606 5.17995 9.30259 5.21233C9.27715 5.23083 9.26212 5.2765 9.26386 5.31119C9.30664 5.78352 9.35404 6.25758 9.39914 6.72817C9.40029 6.73742 9.40954 6.7432 9.41648 6.75014C9.60957 6.62642 9.72115 6.36973 9.68068 6.15641C9.62229 5.86619 9.56101 5.57828 9.51072 5.28575C9.47429 5.08456 9.5269 4.89494 9.61362 4.67641ZM14.7214 4.78798C14.7167 4.83539 14.7144 4.88048 14.7057 4.92442C14.6416 5.2713 14.6283 5.62106 14.7017 5.96736C14.7329 6.11247 14.8063 6.257 14.8844 6.38708C14.9202 6.44605 15.0139 6.50617 15.0781 6.5027C15.1301 6.49981 15.1995 6.41309 15.2261 6.34834C15.3746 6.01881 15.5036 5.6783 15.6614 5.34992C15.7591 5.14527 15.8828 4.94986 16.0129 4.76486C16.0603 4.69953 16.1811 4.61339 16.2343 4.6342C16.3505 4.67525 16.4014 4.79897 16.3846 4.93541C16.3644 5.08861 16.328 5.24181 16.3216 5.39502C16.3095 5.71009 16.2933 6.02633 16.3095 6.34083C16.3251 6.67903 16.5806 6.82183 16.8968 6.68597C17.3761 6.48131 17.4975 6.18184 17.4651 5.69969C17.4414 5.332 17.3501 4.96431 17.2825 4.59894C17.242 4.36075 17.394 4.20581 17.5004 4C17.6744 4.20292 17.723 4.42145 17.7525 4.63825C17.8045 4.99784 17.8247 5.36148 17.8797 5.72223C17.919 5.98702 18.0092 6.23966 18.1872 6.45067C18.2653 6.54375 18.356 6.61891 18.4878 6.57613C18.6237 6.53508 18.6659 6.42003 18.6775 6.29227C18.707 5.96389 18.6382 5.64592 18.541 5.33547C18.4802 5.14146 18.4142 4.94907 18.3433 4.7585C18.304 4.65502 18.3138 4.57466 18.389 4.49372C18.4451 4.43359 18.4786 4.35497 18.5214 4.28502C18.5965 4.1532 18.6439 4.14164 18.7601 4.23125C18.9873 4.40989 19.1232 4.64808 19.1972 4.92038C19.2093 4.96547 19.1799 5.02617 19.1689 5.07705C19.1192 5.06722 19.0677 5.06317 19.0232 5.04352C18.9792 5.02559 18.9422 4.99206 18.8763 4.94755C18.9318 5.16261 18.9821 5.34414 19.0232 5.53145C19.0856 5.83034 19.1296 6.13386 19.0411 6.4368C19.0278 6.48825 19.0162 6.54028 18.9983 6.59173C18.8012 7.12014 18.3751 7.22767 17.9502 6.85652C17.8594 6.77673 17.7658 6.70158 17.6877 6.63683C17.5386 6.77673 17.3674 6.94497 17.1865 7.09933C17.1206 7.15888 17.0298 7.19356 16.9437 7.22767C16.5552 7.38261 16.2118 7.23114 16.062 6.84264C15.9383 6.52987 15.9603 6.20324 15.9811 5.87775C15.9851 5.80375 15.9811 5.72744 15.9811 5.65228C15.965 5.64776 15.9488 5.64371 15.9325 5.64014C15.8984 5.70836 15.8585 5.77542 15.8325 5.84884C15.7232 6.13906 15.6261 6.43391 15.514 6.72355C15.3538 7.14095 15.1093 7.17102 14.8277 6.82414C14.3375 6.21248 14.3595 5.54938 14.6271 4.86256C14.6393 4.83366 14.663 4.80648 14.6803 4.77989C14.6931 4.78625 14.7071 4.7898 14.7214 4.7903M20.6899 5.85173C20.6627 5.5777 20.6795 5.28633 20.5916 5.03542C20.5564 4.94131 20.5406 4.841 20.5454 4.74061C20.5502 4.64022 20.5754 4.54186 20.6194 4.45152C20.6483 4.39428 20.7125 4.31912 20.7639 4.31566C20.8154 4.31219 20.8963 4.37809 20.92 4.43302C21.0663 4.7822 21.2073 5.13081 21.3316 5.48867C21.3935 5.66963 21.3357 5.73264 21.1524 5.71761C21.1669 6.04309 21.179 6.36684 21.2016 6.68944C21.2027 6.73338 21.242 6.77616 21.2657 6.81952C21.6843 7.52888 22.1138 8.23303 22.5174 8.95106C22.718 9.3043 22.8735 9.6847 22.9313 10.0952C22.9434 10.1773 22.9411 10.264 22.944 10.349C22.9288 10.3576 22.9132 10.3655 22.8972 10.3727C22.8614 10.3253 22.8174 10.2819 22.7937 10.2287C22.4093 9.31875 21.8814 8.48856 21.3559 7.65375C21.3293 7.61444 21.3022 7.57744 21.2507 7.50517C21.2773 7.82777 21.3022 8.11162 21.3247 8.39259C21.3762 9.01523 21.4981 9.63499 21.4236 10.2617C21.3866 10.5583 21.2952 10.8467 21.2183 11.1352C21.2027 11.2046 21.1484 11.2647 21.1096 11.3272C21.0888 11.322 21.0657 11.3191 21.0466 11.3144C21.0466 11.2399 21.0322 11.1618 21.0495 11.0895C21.1935 10.5305 21.142 9.96336 21.0773 9.39969C20.9934 8.65275 20.8905 7.9087 20.8073 7.16234C20.7743 6.87328 20.7096 6.61023 20.5194 6.37609C20.2401 6.02575 19.9956 5.65344 19.7262 5.29558C19.6464 5.19094 19.5337 5.11116 19.4475 5.01114C19.3978 4.9568 19.3475 4.88453 19.3388 4.81747C19.3213 4.63863 19.3153 4.45884 19.3209 4.27923C19.3209 4.22894 19.3498 4.15609 19.3862 4.13528C19.4244 4.11794 19.5036 4.13644 19.5406 4.16939C19.825 4.42666 20.106 4.68739 20.3795 4.95564C20.4269 5.00073 20.4332 5.08919 20.4587 5.1603C20.3829 5.17591 20.3095 5.19441 20.2228 5.21406C20.3639 5.42045 20.5113 5.64188 20.6633 5.86272C20.672 5.85809 20.6795 5.85347 20.6899 5.85M29.9457 5.33142C29.9752 5.69506 30.0052 6.07142 30.037 6.44547C30.1001 7.18662 30.1671 7.92431 30.2313 8.66431C30.2833 9.18129 30.2626 9.703 30.17 10.2143C30.0359 10.9213 29.7312 11.5145 29.0219 11.8018C28.8143 11.8862 28.5877 11.9301 28.3668 11.9868C28.3061 12.0001 28.2385 11.988 28.1737 11.988C28.168 11.9706 28.1593 11.9562 28.1541 11.9394C28.2183 11.8793 28.2767 11.8139 28.3449 11.7613C28.5767 11.5833 28.8172 11.4214 29.0438 11.2387C29.5867 10.7959 29.8434 10.2154 29.8064 9.52514C29.7674 8.8131 29.7124 8.10202 29.6416 7.39244C29.5722 6.66978 29.4844 5.94828 29.4 5.22678C29.378 5.03889 29.3468 4.85273 29.319 4.666C29.2965 4.53072 29.4664 4.18731 29.5902 4.14858C29.6196 4.14048 29.6919 4.17806 29.7075 4.21333C29.8578 4.52841 30 4.84522 30.1405 5.16492C30.1579 5.21406 30.1463 5.27361 30.1492 5.33142H29.9457Z" fill="white"/>
<path fill-rule="evenodd" clip-rule="evenodd" d="M21.2833 12.105C21.3613 12.0662 21.4359 12.013 21.5163 11.9911C22.0545 11.8442 22.4326 11.4823 22.7974 11.0915C23.1304 10.7354 23.2229 10.3139 23.1859 9.8416C23.1425 9.25769 23.1246 8.66974 23.076 8.08583C23.0159 7.35971 22.935 6.63879 22.8581 5.91555C22.8311 5.66052 22.7974 5.40625 22.7569 5.15301C22.7465 5.07632 22.7287 5.00081 22.7037 4.92754C22.661 4.78532 22.68 4.66276 22.7881 4.55407C22.891 4.45868 22.9859 4.35693 23.1003 4.23899C23.1396 4.30316 23.1853 4.35057 23.2027 4.40376C23.2934 4.70843 23.3836 5.01657 23.4651 5.32529C23.5085 5.48543 23.4692 5.51722 23.2795 5.4808C23.2795 5.63747 23.2686 5.79126 23.2807 5.94272C23.3674 7.18454 23.5576 8.41999 23.5426 9.6699C23.5362 10.137 23.5305 10.6053 23.3154 11.0348C23.1211 11.4216 22.8286 11.7338 22.4823 11.9928C22.389 12.0612 22.2812 12.1071 22.1672 12.1269C21.9325 12.1634 21.6955 12.1772 21.459 12.194C21.4047 12.1969 21.3486 12.172 21.2937 12.1616C21.2911 12.1426 21.2876 12.1237 21.2833 12.105ZM24.3647 5.60279C24.3919 5.89358 24.4121 6.15837 24.4433 6.42488C24.5243 7.14638 24.6081 7.86904 24.6965 8.58938C24.7387 8.93915 24.8017 9.28833 24.8503 9.6381C24.9104 10.0821 24.8202 10.4978 24.6144 10.888C24.578 10.9574 24.5098 11.0077 24.456 11.0661C24.4393 11.0632 24.4231 11.0574 24.4075 11.0551C24.393 10.9926 24.3601 10.9262 24.3734 10.8736C24.4982 10.3596 24.415 9.85143 24.3468 9.34152C24.2491 8.64199 24.1687 7.93841 24.0698 7.23946C23.9658 6.51507 23.8606 5.79068 23.7397 5.06918C23.6883 4.75468 23.7432 4.48527 23.9398 4.23841C24.049 4.1014 24.1427 4.10891 24.2098 4.26674C24.2745 4.41994 24.3155 4.57662 24.3791 4.72982C24.4676 4.94546 24.5722 5.15243 24.6601 5.36807C24.6931 5.44785 24.696 5.53919 24.7116 5.62244C24.6295 5.62649 24.5456 5.63169 24.4624 5.63169C24.4393 5.63112 24.4179 5.61955 24.3647 5.60279ZM12.4281 6.31735C12.4894 6.2659 12.553 6.20924 12.616 6.15837C12.8854 5.93752 13.1589 5.7213 13.4242 5.49352C13.5272 5.40333 13.6064 5.28424 13.6971 5.18307C13.4803 4.8599 13.5023 4.51418 13.7457 4.30663C13.8503 4.2176 13.966 4.1673 14.1059 4.2309C14.2394 4.29623 14.2781 4.41474 14.2631 4.54829C14.2504 4.67201 14.2117 4.79457 14.1897 4.91424C14.1741 5.00096 14.1787 5.09173 14.1556 5.17498C14.1338 5.2323 14.099 5.28376 14.0538 5.32529C14.0018 5.37674 13.9226 5.4068 13.8787 5.4623C13.541 5.89069 13.0941 6.1601 12.5917 6.34972C12.5507 6.36476 12.5021 6.36302 12.4559 6.3688C12.4472 6.35262 12.4385 6.33469 12.4281 6.31735ZM13.9631 4.58876C13.9382 4.58471 13.9133 4.57662 13.8896 4.57315C13.874 4.65408 13.8555 4.73618 13.8411 4.81654L13.9012 4.82752C13.9238 4.74658 13.9411 4.66854 13.9631 4.58876ZM7.56958 9.8653C7.61988 10.07 7.61872 10.2417 7.57594 10.4261C7.52448 10.6516 7.50078 10.8828 7.46956 11.1112C7.46494 11.147 7.46956 11.1921 7.48864 11.2227C7.5268 11.2846 7.56553 11.3655 7.62277 11.3904C7.65688 11.4043 7.73319 11.3233 7.78291 11.2806C7.81239 11.2545 7.82684 11.2071 7.8598 11.1933C7.88581 11.1834 7.94767 11.1956 7.95577 11.217C8.03381 11.3881 7.88928 11.7564 7.71642 11.8384C7.532 11.9263 7.33428 11.8506 7.28977 11.6315C7.24236 11.4118 7.20767 11.1719 7.24236 10.9539C7.29786 10.6134 7.41233 10.2827 7.50483 9.9474C7.51234 9.92254 7.53894 9.90462 7.56958 9.8653ZM25.814 7.46146L25.4417 6.80702C25.2336 6.90993 25.185 6.88102 25.1955 6.67058C25.1989 6.6174 25.181 6.56016 25.1937 6.51218C25.2099 6.45841 25.2411 6.38499 25.2845 6.36765C25.3261 6.35435 25.4134 6.38962 25.44 6.42893C25.5233 6.55843 25.5874 6.69949 25.6591 6.83708C25.6892 6.89432 25.7169 6.95733 25.7759 7.01226C25.7759 6.90588 25.7742 6.80355 25.7759 6.6966C25.7799 6.56421 25.7666 6.4243 25.8019 6.29885C25.8256 6.21676 25.9152 6.14738 25.9858 6.08899C26.0089 6.06818 26.0944 6.07858 26.1089 6.10113C26.1627 6.18149 26.2118 6.26937 26.2332 6.36071C26.2523 6.43587 26.213 6.50351 26.1181 6.45379C25.9805 6.38441 25.936 6.45668 25.932 6.57115C25.9233 6.78621 25.9274 6.9978 25.9187 7.21171C25.9175 7.28976 25.8909 7.36838 25.8747 7.4499C25.8545 7.45568 25.8331 7.45799 25.814 7.46146ZM7.19727 9.05535C7.40192 8.72871 7.67422 8.47722 8.00144 8.28876C8.20898 8.16908 8.43445 8.07947 8.65819 7.98408C8.72409 7.9546 8.81428 7.88985 8.8588 8.02051C8.90447 8.15116 8.86573 8.24887 8.75069 8.29512C8.60673 8.35119 8.45295 8.38762 8.31652 8.45815C7.96848 8.63563 7.62797 8.82641 7.28341 9.01315C7.25508 9.02876 7.22675 9.04205 7.19727 9.05535ZM20.6543 11.4916C20.4161 11.6962 20.1964 11.9321 19.8565 11.976C19.6345 12.0061 19.5177 11.8673 19.568 11.6482C19.5859 11.5713 19.6009 11.4933 19.6223 11.3991C19.5102 11.4164 19.4235 11.432 19.3269 11.4494C19.3755 11.3291 19.7125 11.0961 19.816 11.1117C19.8501 11.1164 19.8952 11.1886 19.8935 11.2251C19.8906 11.3118 19.853 11.3962 19.8438 11.4817C19.8362 11.5448 19.8513 11.6095 19.8542 11.6737C19.9189 11.6685 19.9912 11.6737 20.049 11.654C20.1796 11.6055 20.3045 11.5384 20.4346 11.4858C20.4959 11.4604 20.5653 11.4494 20.63 11.4314C20.6364 11.4517 20.6473 11.4731 20.6543 11.4916ZM27.1281 11.158C27.1778 11.1638 27.2281 11.1591 27.2727 11.1748C27.3594 11.1985 27.4016 11.258 27.3634 11.3505C27.3472 11.391 27.3253 11.4291 27.3039 11.4661C27.2553 11.5621 27.2351 11.6344 27.3883 11.6303C27.423 11.6303 27.4842 11.6581 27.4883 11.6847C27.4975 11.724 27.486 11.7893 27.4542 11.8142C27.301 11.9367 27.1299 12.0281 26.9275 12.0217C26.8865 12.0206 26.8217 11.9876 26.8159 11.9558C26.8038 11.9142 26.8235 11.8506 26.8518 11.8142C26.9003 11.7552 26.9709 11.7113 27.0223 11.6558C27.0796 11.5945 27.0871 11.5234 27.0102 11.4702C26.9333 11.417 26.8223 11.3702 26.8894 11.2626C26.9304 11.1985 27.0339 11.1719 27.1108 11.1273C27.1154 11.1372 27.1235 11.147 27.1281 11.158ZM17.5729 8.08583C17.5891 8.06791 17.5821 8.07369 17.5758 8.08121C17.5307 8.16504 17.4833 8.28702 17.374 8.24713C17.3279 8.22548 17.2865 8.19485 17.2524 8.15703C17.2182 8.11921 17.192 8.07496 17.1751 8.02687C17.1387 7.8939 17.1532 7.74532 17.1468 7.60426C17.1636 7.60252 17.1798 7.59905 17.1971 7.59616C17.2549 7.72855 17.3139 7.86326 17.3694 7.99622C17.3902 7.99507 17.4122 7.99218 17.4312 7.99102C17.4653 7.84996 17.4971 7.70658 17.5312 7.56552L17.5706 7.56148C17.6417 7.68288 17.7122 7.8066 17.7827 7.93205C17.8035 7.9309 17.8203 7.92627 17.8388 7.92512L17.9065 7.40538C18.0261 7.55685 18.0458 7.69502 18.0475 7.84129C18.0475 7.96038 18.018 8.08237 17.8984 8.11647C17.8134 8.14133 17.707 8.10029 17.5729 8.08583ZM25.3325 8.67552C25.3683 8.61655 25.392 8.54313 25.4429 8.49688C25.5961 8.36391 25.7603 8.24251 25.917 8.11474C26.0892 7.97137 26.2552 7.82452 26.4303 7.68288C26.4633 7.65629 26.5234 7.62391 26.5517 7.63663C26.5858 7.65224 26.6032 7.71468 26.6119 7.75688C26.635 7.87887 26.5997 7.97137 26.4881 8.03958C26.1592 8.24424 25.8354 8.45757 25.5071 8.66338C25.4678 8.68708 25.4238 8.70038 25.3781 8.71946C25.3638 8.70396 25.3485 8.68929 25.3325 8.67552ZM28.9492 6.09362C28.9348 5.99071 28.933 5.88607 28.9053 5.78547C28.8434 5.55018 28.7856 5.3091 28.6908 5.08652C28.6341 4.94662 28.6313 4.83908 28.7157 4.72404C28.796 4.61535 28.855 4.6113 28.9018 4.73213C28.9781 4.93101 29.0556 5.13219 29.0816 5.33858C29.1099 5.54208 29.0758 5.75079 29.0625 5.9566C29.0596 6.00516 29.0232 6.05026 29.0036 6.09651C28.9855 6.09471 28.9674 6.09374 28.9492 6.09362ZM21.977 5.52243C21.977 5.42646 21.9643 5.35477 21.9805 5.29002C22.0418 5.03969 21.9568 4.84429 21.7834 4.67316C21.6504 4.53962 21.6463 4.39277 21.7857 4.27194C21.8198 4.24362 21.9123 4.23494 21.9441 4.26096C22.2302 4.48758 22.2904 5.20677 22.0551 5.48543C22.0464 5.49583 22.0314 5.49699 21.977 5.52243ZM14.0093 6.54455C14.0556 6.76887 13.8255 7.06718 13.5734 7.08105C13.426 7.08857 13.2797 6.94115 13.2786 6.76308C13.2728 6.47865 13.4347 6.27341 13.6312 6.09304C13.6422 6.08263 13.6671 6.08899 13.7243 6.08263C13.67 6.19421 13.6225 6.28151 13.5879 6.36822C13.552 6.45263 13.5139 6.53877 13.5035 6.62722C13.4959 6.67752 13.5283 6.76829 13.5665 6.78448C13.6162 6.80471 13.7 6.79026 13.7503 6.75962C13.8393 6.70585 13.9133 6.6278 14.0093 6.54455Z" fill="white"/>
<path fill-rule="evenodd" clip-rule="evenodd" d="M22.3075 6.21889C22.3538 6.09806 22.4035 5.97723 22.455 5.84889C22.5538 5.96741 22.5723 6.29636 22.4949 6.39406C22.433 6.47153 22.3515 6.47905 22.2746 6.41892C22.1879 6.3507 22.1202 6.34955 22.0306 6.42008C21.9242 6.5068 21.8508 6.48483 21.8167 6.35591C21.789 6.25184 21.793 6.14258 21.7843 6.03794C21.8017 6.03158 21.8213 6.02695 21.8375 6.02175C21.882 6.09517 21.9242 6.16917 21.985 6.27323C22.0352 6.14373 22.0699 6.04545 22.122 5.90959C22.1763 6.03852 22.2168 6.12466 22.2555 6.21484C22.2723 6.21484 22.2896 6.21773 22.3075 6.21889ZM13.0171 10.2779C13.0408 10.0744 13.0627 9.89345 13.0824 9.7125C12.8136 9.67608 12.7535 9.58705 12.8494 9.39106C12.8772 9.33556 12.9552 9.25289 12.998 9.26156C13.0778 9.27486 13.1801 9.32458 13.2171 9.3928C13.3333 9.6015 13.2472 10.068 13.0818 10.2438C13.0743 10.2542 13.0564 10.2571 13.0171 10.2779ZM9.88248 4.13417C9.89925 4.24402 9.90214 4.31802 9.92411 4.38566C9.93856 4.43595 9.97961 4.477 10.0062 4.52383C10.0496 4.49608 10.1028 4.477 10.1328 4.44116C10.1785 4.37525 10.2091 4.30009 10.2785 4.22783C10.286 4.28738 10.286 4.34866 10.3051 4.40011C10.3288 4.45445 10.3739 4.49897 10.408 4.54753C10.4415 4.50591 10.4791 4.46833 10.5097 4.42381C10.5271 4.39895 10.5346 4.36831 10.552 4.3342C10.645 4.45966 10.6352 4.61344 10.5323 4.70189C10.404 4.81116 10.3242 4.70883 10.2467 4.62442C10.0345 4.7597 9.95012 4.76491 9.84895 4.65044C9.73217 4.51458 9.73044 4.31802 9.88248 4.13417ZM26.4255 9.45292C26.4174 9.3795 26.4018 9.33556 26.4099 9.29856C26.4764 9.07714 26.3874 8.92567 26.2122 8.8008C26.0844 8.71176 26.0844 8.60366 26.2145 8.51405C26.2556 8.4863 26.3411 8.47589 26.3822 8.49959C26.6464 8.6528 26.7215 9.15056 26.5227 9.37719C26.5059 9.39742 26.481 9.41187 26.4255 9.45292ZM16.872 5.56561C16.872 5.50028 16.8691 5.43553 16.872 5.37078C16.8899 5.08403 16.8356 4.81636 16.6731 4.57181C16.6454 4.53192 16.6217 4.46139 16.6379 4.42381C16.6671 4.36635 16.7153 4.32079 16.7743 4.29489C16.8009 4.2868 16.8743 4.35155 16.8951 4.39606C17.0206 4.66258 17.0455 4.94528 17.0125 5.23203C17.0004 5.34823 16.9662 5.46155 16.9414 5.57659C16.9183 5.57428 16.8946 5.5685 16.872 5.56561ZM7.8128 5.04877C7.82494 4.80422 7.95097 4.60361 7.85384 4.38508C7.81742 4.39953 7.79661 4.41341 7.77291 4.41977C7.71798 4.42786 7.65959 4.43248 7.60352 4.43827C7.61623 4.37872 7.61103 4.30414 7.6463 4.26136C7.71798 4.17638 7.79314 4.05381 7.93073 4.10989C8.05561 4.1625 8.06139 4.29258 8.0533 4.41109C8.04173 4.63541 7.95097 4.82734 7.8128 5.04877Z" fill="white"/>
</svg>
