<svg width="36" height="36" viewBox="0 0 36 36" fill="none" xmlns="http://www.w3.org/2000/svg">
<rect width="36" height="36" rx="18" fill="#2C665C"/>
<path d="M21.5383 13.5258C21.7758 13.5258 22.0133 13.6133 22.2008 13.8008C22.5633 14.1633 22.5633 14.7633 22.2008 15.1258L15.1258 22.2008C14.7633 22.5633 14.1633 22.5633 13.8008 22.2008C13.4383 21.8383 13.4383 21.2383 13.8008 20.8758L20.8758 13.8008C21.0508 13.6133 21.3008 13.5258 21.5383 13.5258Z" fill="white"/>
<path d="M14.4633 13.5258C14.7008 13.5258 14.9383 13.6133 15.1258 13.8008L22.2008 20.8758C22.5633 21.2383 22.5633 21.8383 22.2008 22.2008C21.8383 22.5633 21.2383 22.5633 20.8758 22.2008L13.8008 15.1258C13.4383 14.7633 13.4383 14.1633 13.8008 13.8008C13.9883 13.6133 14.2258 13.5258 14.4633 13.5258Z" fill="white"/>
</svg>
