<svg width="19" height="18" viewBox="0 0 19 18" fill="none" xmlns="http://www.w3.org/2000/svg">
<path d="M9.26926 3.34693C9.63198 3.34693 9.93176 3.04716 9.93176 2.68443C9.93176 2.32258 9.64035 2.02193 9.26926 2.02193L6.7793 2.02193C5.17157 2.02193 3.8668 3.3267 3.8668 4.93443L3.8668 15.3145C3.8668 15.6772 4.16657 15.977 4.5293 15.977C4.89203 15.977 5.1918 15.6772 5.1918 15.3145L5.1918 4.93443C5.1918 4.05966 5.90452 3.34693 6.7793 3.34693L9.26926 3.34693Z" fill="#828282" stroke="#828282" stroke-width="0.2"/>
<path d="M1.69788 13.4127L1.76827 13.3423L1.69788 13.4127L4.06791 15.7827C4.19144 15.9062 4.35927 15.977 4.5361 15.977C4.71291 15.977 4.88079 15.9062 5.00433 15.7827L4.93397 15.7123L5.00433 15.7827L7.37431 13.4127C7.50654 13.2804 7.56862 13.1121 7.56862 12.9445C7.56862 12.7739 7.49704 12.6077 7.3767 12.4787L7.37675 12.4787L7.37431 12.4762C7.11776 12.2197 6.69444 12.2197 6.43789 12.4762L4.5361 14.378L2.63435 12.4762C2.3778 12.2197 1.95444 12.2197 1.69788 12.4762C1.44133 12.7328 1.44133 13.1561 1.69788 13.4127Z" fill="#828282" stroke="#828282" stroke-width="0.2"/>
<path d="M15.4591 13.0645L15.4591 2.68443C15.4591 2.3217 15.1594 2.02193 14.7966 2.02193C14.4339 2.02193 14.1341 2.3217 14.1341 2.68443L14.1341 13.0645C14.1341 13.9392 13.4214 14.652 12.5466 14.652L10.0566 14.652C9.69391 14.652 9.39414 14.9517 9.39414 15.3145C9.39414 15.6772 9.69391 15.977 10.0566 15.977L12.5466 15.977C14.1544 15.977 15.4591 14.6722 15.4591 13.0645Z" fill="#828282" stroke="#828282" stroke-width="0.2"/>
<mask id="path-4-outside-1_2890_7302" maskUnits="userSpaceOnUse" x="10.8652" y="1.61523" width="8" height="5" fill="black">
<rect fill="white" x="10.8652" y="1.61523" width="8" height="5"/>
<path d="M17.7283 5.05461C17.7283 5.19711 17.6759 5.33961 17.5634 5.45211C17.3459 5.66961 16.9858 5.66961 16.7683 5.45211L14.7959 3.47963L12.8234 5.45211C12.6059 5.66961 12.2459 5.66961 12.0284 5.45211C11.8109 5.23461 11.8109 4.87461 12.0284 4.65711L14.3983 2.28711C14.5033 2.18211 14.6459 2.12211 14.7959 2.12211C14.9459 2.12211 15.0883 2.18211 15.1933 2.28711L17.5634 4.65711C17.6759 4.76211 17.7283 4.90461 17.7283 5.05461Z"/>
</mask>
<path d="M17.7283 5.05461C17.7283 5.19711 17.6759 5.33961 17.5634 5.45211C17.3459 5.66961 16.9858 5.66961 16.7683 5.45211L14.7959 3.47963L12.8234 5.45211C12.6059 5.66961 12.2459 5.66961 12.0284 5.45211C11.8109 5.23461 11.8109 4.87461 12.0284 4.65711L14.3983 2.28711C14.5033 2.18211 14.6459 2.12211 14.7959 2.12211C14.9459 2.12211 15.0883 2.18211 15.1933 2.28711L17.5634 4.65711C17.6759 4.76211 17.7283 4.90461 17.7283 5.05461Z" fill="#828282"/>
<path d="M16.7683 5.45211L16.6269 5.59353L16.6269 5.59353L16.7683 5.45211ZM14.7959 3.47963L14.9373 3.33821L14.7959 3.19679L14.6544 3.33821L14.7959 3.47963ZM12.8234 5.45211L12.6819 5.31069L12.6819 5.31069L12.8234 5.45211ZM12.0284 4.65711L12.1698 4.79853L12.1698 4.79853L12.0284 4.65711ZM14.3983 2.28711L14.2569 2.14569L14.2569 2.14569L14.3983 2.28711ZM15.1933 2.28711L15.0519 2.42853L15.0519 2.42853L15.1933 2.28711ZM17.5634 4.65711L17.4219 4.79862L17.4269 4.80332L17.5634 4.65711ZM17.5283 5.05461C17.5283 5.14695 17.4949 5.23769 17.4219 5.31069L17.7048 5.59353C17.8568 5.44153 17.9283 5.24727 17.9283 5.05461L17.5283 5.05461ZM17.4219 5.31069C17.2825 5.45008 17.0491 5.45008 16.9097 5.31069L16.6269 5.59353C16.9225 5.88914 17.4092 5.88914 17.7048 5.59353L17.4219 5.31069ZM16.9097 5.31069L14.9373 3.33821L14.6544 3.62105L16.6269 5.59353L16.9097 5.31069ZM14.6544 3.33821L12.6819 5.31069L12.9648 5.59353L14.9373 3.62105L14.6544 3.33821ZM12.6819 5.31069C12.5425 5.45008 12.3092 5.45008 12.1698 5.31069L11.8869 5.59353C12.1825 5.88914 12.6692 5.88914 12.9648 5.59353L12.6819 5.31069ZM12.1698 5.31069C12.0304 5.17129 12.0304 4.93793 12.1698 4.79853L11.8869 4.51569C11.5913 4.81129 11.5913 5.29793 11.8869 5.59353L12.1698 5.31069ZM12.1698 4.79853L14.5398 2.42853L14.2569 2.14569L11.8869 4.51569L12.1698 4.79853ZM14.5398 2.42853C14.6077 2.36061 14.6995 2.32211 14.7959 2.32211L14.7959 1.92211C14.5922 1.92211 14.399 2.0036 14.2569 2.14569L14.5398 2.42853ZM14.7959 2.32211C14.8922 2.32211 14.984 2.3606 15.0519 2.42853L15.3348 2.14569C15.1927 2.00361 14.9995 1.92211 14.7959 1.92211L14.7959 2.32211ZM15.0519 2.42853L17.4219 4.79853L17.7048 4.51569L15.3348 2.14569L15.0519 2.42853ZM17.4269 4.80332C17.4933 4.86529 17.5283 4.95192 17.5283 5.05461L17.9283 5.05461C17.9283 4.8573 17.8584 4.65893 17.6998 4.5109L17.4269 4.80332Z" fill="#828282" mask="url(#path-4-outside-1_2890_7302)"/>
</svg>
